<svg width="134" height="134" viewBox="0 0 134 134" fill="none" xmlns="http://www.w3.org/2000/svg">
<path fill-rule="evenodd" clip-rule="evenodd" d="M127.176 87.1409C128.354 86.5258 129.505 85.8578 130.637 85.162C131.434 84.6846 130.729 83.4825 129.911 83.917C129.493 84.1391 129.076 84.3634 128.658 84.5844C128.987 84.3008 129.292 83.9921 129.565 83.6562L129.547 83.6372C130.601 82.6926 129.247 80.9102 128.048 81.686C126.991 82.4525 125.924 83.2348 124.711 83.7395C122.197 84.8054 119.425 84.9818 116.728 85.0129C115.741 84.9388 114.798 85.1098 113.84 85.3003C114.215 83.7934 115.155 82.6551 115.654 81.1955C116.022 79.7218 113.895 78.7179 113.142 80.1345C112.957 80.4824 112.78 80.8346 112.608 81.1879C110.979 82.6703 108.259 82.5396 106.616 84.1309C105.681 84.9617 105.223 86.0891 105.042 87.2204C104.919 87.9886 105.11 88.7589 104.646 89.4394C102.401 92.616 98.8533 97.637 97.0519 101.133C95.7763 92.8256 92.3706 82.5511 88.8521 74.955C87.6887 72.5259 86.3577 70.1523 84.6101 68.0929C84.8083 67.4064 84.1093 66.1874 83.665 66.5625C82.2964 64.8907 79.8776 64.4573 77.933 63.626C75.3074 62.5029 73.1292 60.1685 72.0584 57.5157C70.6827 52.4631 67.296 51.8212 62.5989 52.0444C58.1032 52.039 54.7774 53.9624 53.797 58.5402C51.8039 62.0146 47.0993 61.4397 43.7145 62.3598C41.2339 62.9265 38.8266 63.803 36.5387 64.9157C33.9935 62.5008 24.8781 72.637 24.0495 75.2452C24.5373 75.3399 25.0221 75.4537 25.5025 75.5925C25.9304 75.7161 25.7507 76.3629 25.3192 76.2594C24.7822 76.1304 24.2417 76.0417 23.6987 75.9801C23.6821 76.0319 23.6677 76.0836 23.6569 76.1348C23.5959 76.1304 23.535 76.125 23.4741 76.1211C23.6092 76.1914 23.7393 76.273 23.8661 76.3787C24.1725 76.6329 23.7736 77.1239 23.448 76.9214C23.1412 76.6917 22.7395 76.7282 22.3715 76.6509C22.3497 77.4076 19.65 76.561 19.2306 76.3101C17.3668 76.077 15.4494 76.3275 13.7095 75.4281C11.3943 74.9403 9.06184 74.4008 6.77274 73.7797C6.16671 74.0159 5.59716 74.8619 6.07852 75.4826C6.34925 75.7651 6.00122 76.2262 5.66031 76.0253C4.51696 75.3519 3.63274 74.3012 2.88305 73.1689C2.53016 72.8128 1.90383 72.8896 1.42971 72.7415C1.36634 72.8553 1.329 72.9827 1.32954 73.1128C-0.68148 73.4438 0.753128 75.641 1.76408 76.3258C1.22779 76.6753 1.20743 77.3591 1.25436 77.9307C1.14069 78.1338 1.10274 78.3864 1.20166 78.614C1.5798 79.4861 2.39771 80.2199 3.01958 80.9266C3.70624 81.7067 4.31842 82.4906 5.15391 83.1232C8.33844 85.5518 12.1814 86.909 16.1239 87.4403C17.5237 87.6554 19.5373 87.9847 20.404 89.1688C20.1914 90.5739 19.8009 91.9219 19.4466 93.2921C18.9513 95.1115 18.985 97.0158 18.9784 98.8701C18.9091 98.8145 18.7762 98.826 18.7564 98.9321C18.6412 99.7008 18.5555 100.487 18.0884 101.133C17.679 102.334 17.4065 103.615 17.2534 104.877C16.6402 110.859 16.4937 117.019 17.8765 122.908C18.41 125.093 19.2778 127.169 20.4601 129.081C20.8126 129.652 21.3794 129.819 21.8884 129.707C23.5918 130.592 25.7376 130.875 27.5736 130.651C33.8328 128.878 31.6518 133.147 40.4278 131.84C55.5761 129.909 70.8847 133.703 86.0011 131.475C86.3734 134.352 91.2469 133.527 92.9395 132.31C98.016 128.536 100.536 116.584 103.084 110.521C104.835 105.742 107.767 97.2777 111.607 94.0706C112.758 93.1696 114.15 92.6955 115.542 92.3127C120.74 90.973 125.957 89.7062 131.165 88.4034C132.048 88.1856 131.889 86.6793 130.945 86.7756C129.691 86.9041 128.434 87.0201 127.176 87.1409Z" fill="white"/>
<path fill-rule="evenodd" clip-rule="evenodd" d="M11.4779 86.2448C11.1259 86.2013 10.7809 86.0761 10.4381 85.977C9.91479 85.824 9.40186 85.6454 8.89692 85.4418C7.85489 85.0243 6.84393 84.5305 5.89618 83.9268C4.36538 82.9496 3.01281 81.698 1.9926 80.1905L1.92259 80.0855C1.34014 79.1981 0.265814 77.2274 1.47047 76.5534C0.694041 75.9045 -0.039704 74.7389 0.00167057 73.8395C0.0603571 72.5667 1.61991 72.5841 2.42616 73.1236C2.95413 73.477 3.34974 73.9718 3.74656 74.4585C4.18589 74.9991 4.65516 75.5147 5.14284 76.0106C5.27224 76.1418 5.4029 76.2703 5.53584 76.3966L5.6696 76.5223C5.64891 76.4728 5.63051 76.4222 5.6144 76.3705C5.34525 75.5321 5.66612 74.44 6.50461 74.0557C7.0177 73.8205 7.55056 73.9642 8.04782 74.1635L8.12398 74.195C8.79338 74.4721 9.47083 74.7171 10.1678 74.9142C13.0087 75.7161 15.9737 75.8495 18.8847 76.2496C20.0062 76.4053 21.1483 76.6007 22.2639 76.8882C22.6894 75.0808 23.7326 73.3479 24.8643 71.9227C30.2838 65.103 39.2216 62.8486 47.3979 61.3902C48.1433 61.2579 48.7612 62.2449 49.1945 62.0113C50.0171 61.5693 50.7401 60.9432 51.3754 60.2632C52.7288 58.8124 53.6891 57.1063 54.8177 55.4894C55.3757 54.6913 56.6588 55.4055 56.1416 56.263L55.8879 56.6816C54.8438 58.3976 53.688 60.1663 52.1909 61.4969C51.395 62.2035 50.5114 62.7615 49.5016 63.1099C48.7367 63.3734 47.6637 63.5955 46.8264 63.3402L46.7259 63.1938C46.7591 63.2428 46.7926 63.2912 46.8264 63.3402C49.0116 66.5075 51.7538 69.1887 54.6429 71.7185C57.5593 74.2712 60.7048 76.5566 63.87 78.792L64.1335 78.9776C69.29 75.2158 73.6452 70.308 76.7015 64.7012C76.0608 64.6239 75.4271 64.2134 74.8794 63.9075C74.2207 63.5367 73.6006 63.0952 73.1177 62.5062C72.0654 61.223 72.202 59.5697 72.012 58.0127C72.0006 57.9163 72.1285 57.8918 72.1873 57.9403C72.7573 58.4145 72.9577 59.1913 73.1956 59.862C73.458 60.5991 73.7547 61.2072 74.3562 61.726C74.9164 62.2089 75.5997 62.5644 76.2633 62.8813C76.6057 63.0435 78.3042 63.4605 78.498 63.8062C81.4329 63.117 84.2921 64.3076 86.4675 66.317C88.5684 68.2578 90.1107 70.7811 91.4728 73.2723C92.9252 75.93 94.1159 78.7005 95.1415 81.5483C96.1813 84.4385 96.9783 87.3924 97.4165 90.4345C97.7867 92.9992 98.0132 95.6042 98.1602 98.1977L98.1782 98.5216C100.349 95.1126 102.575 91.7389 104.847 88.3952C104.33 87.0157 104.902 85.6073 105.869 84.5419C106.941 83.3628 108.423 82.8151 109.841 82.1776L110.028 82.0932C110.711 81.7813 111.393 81.4378 111.983 80.9707C112.551 80.5199 112.969 79.8982 113.567 79.4828C114.437 78.878 116.014 79.0065 116.055 80.3288C116.075 81.055 115.764 81.851 115.479 82.5031C115.155 83.2408 114.719 83.9093 114.202 84.524C114.178 84.5523 114.152 84.5751 114.125 84.5931L114.105 84.6056C114.821 84.7238 115.542 84.8196 116.277 84.8528C117.759 84.9208 119.258 84.8114 120.709 84.4984C122.196 84.1788 123.635 83.6584 124.972 82.9338C126.114 82.3148 127.172 81.514 128.469 81.3251C128.589 81.3066 128.71 81.2951 128.834 81.288C129.041 81.2766 129.248 81.5205 129.167 81.7252C129.121 81.8384 129.075 81.95 129.022 82.0627C128.574 83.0508 127.886 84.0095 127.028 84.7374L126.962 84.7929C127.264 84.6884 127.562 84.5708 127.855 84.4385C129.579 83.6622 131.143 82.4884 132.992 82.0164C133.079 81.9936 133.168 81.9729 133.256 81.9533C133.828 81.8303 134.129 82.4514 133.793 82.8772C133.74 82.9463 133.685 83.0143 133.629 83.0818C132.804 84.1059 131.895 85.0564 130.892 85.91C130.548 86.2024 130.193 86.4854 129.832 86.756C129.68 86.8703 129.527 86.9825 129.372 87.093L129.296 87.1469C129.477 87.0195 129.655 86.8894 129.832 86.756C130.964 86.413 132.08 86.0069 133.171 85.5572C133.605 85.3787 133.942 85.818 133.988 86.1795C134.142 87.3897 132.798 88.2656 131.925 88.8476C131.048 89.4323 130.083 89.8765 129.095 90.2331C127.195 90.9196 125.2 91.2315 123.208 91.5108L122.241 91.6458C118.411 92.1815 114.411 92.8223 111.664 95.8029C110.123 97.4737 109.081 99.5495 108.128 101.592C107.175 103.632 106.339 105.726 105.546 107.831C104.724 110.011 104.007 112.23 103.245 114.431C102.546 116.452 101.711 118.447 100.884 120.422L100.753 120.734C98.997 124.932 96.8988 128.885 93.9754 132.389C93.4936 132.968 92.7151 132.147 93.1599 131.574C96.2183 127.63 98.3459 122.976 100.102 118.333C100.902 116.22 101.571 114.057 102.339 111.933L102.796 110.672C103.407 108.989 104.022 107.309 104.665 105.641C105.478 103.529 106.371 101.443 107.394 99.4248L107.503 99.2125C108.504 97.2657 109.693 95.3467 111.33 93.8735C114.276 91.2201 118.197 90.5837 121.988 90.0796L123.18 89.9223C124.783 89.7094 126.39 89.4742 127.948 89.0458C128.848 88.7991 129.726 88.4839 130.552 88.049C130.881 87.8764 131.202 87.6869 131.512 87.4795C130.627 87.7397 129.729 87.9526 128.814 88.1192C128.367 88.2009 127.924 88.2618 127.483 88.3048C126.345 88.4175 125.217 88.4126 124.052 88.3517C123.953 88.3457 123.921 88.1905 124.026 88.1709C124.838 88.0266 125.65 87.8465 126.459 87.6505L126.702 87.5911C126.706 87.4567 126.759 87.314 126.87 87.1785C127.272 86.688 128.037 86.437 128.567 86.0908C129.123 85.7282 129.661 85.3373 130.174 84.9181C130.643 84.5354 131.094 84.1304 131.528 83.7068L131.658 83.5789C131.614 83.6219 131.571 83.6644 131.528 83.7068C130.357 84.248 129.247 84.9415 128.024 85.3694C127.053 85.7113 126.034 85.941 125.005 86.0227L124.942 86.0281L124.877 86.032C123.804 86.1093 122.724 86.0782 121.667 86.3107C121.549 86.3368 121.512 86.1784 121.618 86.1332C122.542 85.7489 123.502 85.6008 124.473 85.4211C124.493 85.3455 124.546 85.2774 124.638 85.2339L124.887 85.1152C125.626 84.7597 126.316 84.4009 126.931 83.8244C127.474 83.3143 127.925 82.7187 128.265 82.0578C126.906 82.3562 125.713 83.3856 124.478 83.9643C123.132 84.5964 121.709 85.0493 120.246 85.3074L120.079 85.3362C117.345 85.7924 114.057 85.7342 111.608 84.3122C111.53 84.2659 111.586 84.1614 111.667 84.1739C112.361 84.2877 113.05 84.4227 113.737 84.5419C113.603 84.4189 113.543 84.1979 113.698 84.0209C114.316 83.3127 114.804 82.5031 115.117 81.6174L115.177 81.4443C115.32 81.0333 115.563 80.3958 115.315 80.025C115.078 79.6717 114.521 79.7202 114.187 79.8693C113.493 80.1824 113.032 80.9641 112.448 81.4356C111.811 81.9511 111.086 82.3327 110.344 82.6746L110.188 82.746C108.905 83.3236 107.534 83.8092 106.524 84.8288C105.982 85.3765 105.515 86.0608 105.358 86.8284C105.287 87.1806 105.287 87.5427 105.381 87.8916C105.456 88.1644 105.613 88.3321 105.523 88.6097C105.406 88.9674 104.99 89.3953 104.776 89.7143C104.528 90.0823 104.281 90.4514 104.033 90.8211C103.54 91.5598 103.049 92.3007 102.558 93.0406C101.576 94.5224 100.603 96.0114 99.6399 97.5047C99.3263 97.9908 99.0138 98.4781 98.7019 98.9653L98.2353 99.6964L97.9893 100.082L97.5684 100.743C97.5837 100.805 97.5821 100.869 97.5625 100.925C97.4911 101.13 97.3567 101.269 97.1901 101.37L97.1601 101.388C94.706 105.269 92.2905 109.175 89.851 113.065C89.7209 114.253 89.5989 115.441 89.4933 116.63C89.2527 119.32 89.0883 122.017 89.0355 124.717C89.0105 126.025 89.115 127.34 89.171 128.646C89.1988 129.269 89.2364 129.891 89.2859 130.514L89.3224 130.955C89.3708 131.561 89.3986 132.163 89.1803 132.741C88.987 133.248 88.3985 133.362 88.0496 132.975C83.5033 132.792 78.9532 132.653 74.4036 132.567C66.2594 132.41 58.1118 132.435 49.9665 132.592C45.8752 132.671 41.783 132.783 37.6931 132.921C35.678 132.988 33.6618 133.082 31.6456 133.11C30.5593 133.125 28.8497 132.729 28.762 131.506L28.7599 131.469C28.6242 131.506 28.4838 131.536 28.3401 131.558C28.2761 131.567 28.2146 131.565 28.1578 131.552L28.1296 131.544C26.5103 132.038 24.4621 131.333 22.9234 130.923L22.7964 130.889C21.3277 130.506 20.1476 129.958 19.185 128.741C17.5 126.609 16.9249 123.746 16.6259 121.108C16.3453 118.625 16.3292 116.096 16.6708 113.618C16.4694 111.599 16.6661 109.515 16.895 107.507C17.0077 106.514 17.14 105.522 17.2987 104.535C17.3873 103.984 17.5034 103.438 17.6219 102.894C17.6692 102.676 17.7086 102.442 17.7686 102.216L17.7956 102.12C17.6115 102.144 17.4103 102.104 17.2159 101.997C16.7535 101.742 16.619 101.228 16.6109 100.736C16.5856 99.2511 16.7627 97.7246 16.9192 96.2493C17.0767 94.7767 17.293 93.2981 17.5759 91.844L17.6491 91.4689C17.8635 90.3806 18.1088 89.2575 18.5408 88.2357C16.918 87.9597 15.2998 87.6663 13.7252 87.1665C12.957 86.9215 12.2001 86.6166 11.4779 86.2448ZM96.1813 101.692C96.1563 101.698 96.1318 101.704 96.1078 101.711C95.4589 101.893 94.8034 102.047 94.1501 102.213C93.021 102.497 91.9165 102.815 90.8663 103.309C90.6464 106.086 90.3203 108.854 90.0105 111.624L89.949 112.178C90.4248 111.294 90.9126 110.418 91.4221 109.552C92.9737 106.911 94.5606 104.291 96.1813 101.692ZM18.1912 101.967C18.1946 102.297 18.1256 102.64 18.0888 102.957C18.029 103.473 17.9807 103.991 17.9197 104.506C17.7955 105.542 17.6897 106.578 17.6126 107.619C17.5632 108.282 17.531 108.949 17.5022 109.615C18.1544 107.177 19.0181 104.792 19.8393 102.403C19.702 102.389 19.5618 102.355 19.417 102.316L19.1733 102.251C19.0297 102.214 18.5635 102.099 18.1912 101.967ZM98.2353 99.6964L98.2402 99.8059C98.2577 100.193 98.0252 100.412 97.7432 100.468C97.9065 100.211 98.0709 99.9534 98.2353 99.6964ZM23.614 81.3196C24.3006 81.38 24.9735 81.5265 25.6152 81.7796L25.6772 81.8036C26.1518 81.9871 26.8459 82.2173 27.0012 82.7242C27.0449 82.8679 26.9276 82.9866 26.793 82.998C26.2777 83.0394 25.6704 82.4874 25.1932 82.3006C24.6618 82.0938 24.1051 81.9391 23.5415 81.8575C22.2752 81.6724 20.9549 81.8128 19.7633 82.2745C19.6932 82.3017 19.6495 82.1901 19.7127 82.1569C20.9135 81.5031 22.2488 81.1988 23.614 81.3196ZM9.06378 84.61C8.98435 84.5398 8.90504 84.4663 8.82681 84.3928C8.21016 83.8092 7.66413 83.1281 7.2598 82.3796L7.15337 82.1771C6.82406 81.539 6.41968 80.6304 7.1936 80.1709C7.65596 79.896 8.21261 79.9651 8.72789 80.1317C8.76126 80.1421 8.79458 80.1541 8.82795 80.1655C9.05796 80.2461 9.27997 80.3424 9.4778 80.4344C10.3369 80.8291 11.0949 81.4035 11.8885 81.9097C12.7483 82.4585 13.5975 82.8096 14.5899 83.0149L14.6833 83.0339C15.615 83.2179 16.6248 83.3361 17.2746 84.1026C17.4379 84.2959 17.2884 84.6584 17.0066 84.5626C15.2101 83.9567 13.3089 83.8228 11.6596 82.8276C10.9764 82.416 10.3301 81.943 9.63192 81.5526C9.26156 81.3457 8.87918 81.1645 8.47169 81.0403L8.24909 80.9745C8.1187 80.9364 7.96306 80.8988 7.85837 80.9364C7.65912 81.0055 7.7227 81.1122 7.78438 81.2978L7.79054 81.3169C8.27473 82.8151 9.65489 84.0694 10.9339 84.8991C11.2271 85.0896 11.5274 85.2649 11.8333 85.4271C13.9042 86.5312 16.2214 87.0451 18.4972 87.6554C18.4972 87.6554 19.813 88.0228 20.2489 88.1606C20.7343 88.1203 21.2875 88.2918 21.6532 88.497C22.0086 88.6957 22.295 88.963 22.5113 89.2771C22.5113 89.2771 22.7194 89.4508 22.7574 89.7197C22.8667 89.9696 22.9403 90.2385 22.9771 90.5195C22.9977 90.6839 22.9564 90.8107 22.8781 90.9C23.1134 94.5121 22.1381 98.1041 21.0386 101.537L20.9297 101.875L20.8597 102.09C19.6738 105.729 18.3132 109.342 17.7059 113.137C17.2999 115.671 17.3126 118.295 17.6105 120.841L17.6315 121.017C17.925 123.424 18.4897 126.125 20.02 128.063C20.8006 129.051 21.7254 129.49 22.9077 129.809L22.9725 129.826C24.0421 130.108 25.1462 130.507 26.2492 130.628C27.2729 130.74 28.1309 130.359 29.0521 130.002L29.0532 130.001C30.9935 128.283 31.8745 125.782 32.5255 123.257C34.2128 116.724 34.0035 109.943 33.0466 103.314C32.5474 99.8511 31.8688 96.4175 31.1925 92.9851C30.8544 91.2696 30.4898 89.5575 30.1873 87.8361L30.0077 86.8235C29.9085 86.2606 29.8127 85.6971 29.7307 85.1315C29.6203 84.371 29.5869 83.623 29.549 82.8576C28.6197 81.3169 27.2705 80.0479 25.7075 79.1377C24.5884 78.4855 23.4038 78.0331 22.1811 77.7053C18.6859 76.763 14.8754 76.8299 11.3583 76.1048C10.1768 75.8614 9.05518 75.5005 7.9342 75.0677L7.78134 75.0084C7.2672 74.808 6.74273 74.6964 6.4874 75.3029C6.30568 75.7346 6.4138 76.1832 6.68638 76.5458C7.35463 77.4337 8.698 77.8458 9.70895 78.1654C10.3174 78.3586 10.9385 78.5121 11.5665 78.6259C12.1944 78.7397 12.8247 78.7685 13.4274 78.9907C13.6597 79.0756 13.7057 79.4452 13.4274 79.5106C12.6637 79.6891 11.8954 79.5362 11.1363 79.3875C10.3025 79.2226 9.48123 78.9896 8.68303 78.6934C8.53582 78.6395 8.38344 78.5824 8.22829 78.5214L8.11141 78.4751C8.23221 78.5628 8.35296 78.6488 8.47485 78.7353C8.50708 78.7582 8.48753 78.8192 8.44496 78.8039C6.56814 78.1038 4.86046 76.8397 3.53756 75.3448L3.47174 75.2697C3.00595 74.7356 1.94437 73.1204 1.04954 73.5701C0.209305 73.992 1.64163 75.6186 2.18592 76.2834L2.24918 76.3612C2.86795 76.3775 3.46717 76.763 3.96862 77.0738C4.83928 77.6133 5.74903 78.0782 6.67604 78.5132C8.51862 79.3794 10.475 79.9902 12.298 80.9004C12.3221 80.9135 12.3037 80.944 12.2807 80.9407C11.1202 80.7556 9.97239 80.46 8.85098 80.0931L8.80095 80.0773L8.75092 80.0604C8.05049 79.8301 7.35926 79.5705 6.67952 79.2928C5.92389 78.9847 5.18546 78.6384 4.46892 78.2459C3.82027 77.8915 3.10024 77.2529 2.34804 77.1588C2.26758 77.1484 2.19626 77.1473 2.13415 77.1533C1.2704 77.2257 1.98465 78.6569 2.22615 79.0848C2.62068 79.7877 3.09681 80.4366 3.64312 81.0295C4.75076 82.2331 6.09293 83.1869 7.54561 83.9289C8.04129 84.1821 8.54851 84.4053 9.06378 84.61Z" fill="black"/>
<path fill-rule="evenodd" clip-rule="evenodd" d="M80.7594 19.1929C79.945 16.2593 80.0615 15.9421 78.8486 13.14C74.8249 4.99959 47.9396 7.72519 45.1956 15.8511C43.707 20.2595 44.0567 26.4681 43.6692 30.2907C43.5506 32.3174 43.4342 34.3443 43.3135 36.371C43.2718 37.0706 43.2297 37.7707 43.1868 38.4702C43.1031 39.8329 43.0218 41.195 42.9459 42.5576C42.4404 46.756 44.5493 47.1828 48.1666 47.0587C49.1231 49.367 50.672 51.2936 52.585 52.8609C52.1233 54.118 53.7979 54.7685 54.7011 55.271C59.6165 58.0164 65.6534 59.691 71.0974 58.1471C72.6968 57.6936 79.3026 56.1225 81.3338 51.2593C82.3311 48.8716 84.359 36.5044 81.6849 25.3793L80.7594 19.1929Z" fill="white"/>
<path fill-rule="evenodd" clip-rule="evenodd" d="M63.5744 0.0581985C64.3349 -0.0762687 65.1847 -0.0244941 65.6208 0.722207C65.715 0.883187 65.7748 1.04553 65.8037 1.20547C67.8806 0.738321 70.037 0.687692 72.159 0.993754C72.7916 1.08456 73.0137 1.92795 72.7356 2.41018C72.7067 2.45961 72.6779 2.50784 72.6468 2.55515C73.3115 2.6091 73.9752 2.72414 74.6333 2.90145C75.101 3.02802 75.5381 3.63437 75.3302 4.13147C75.3117 4.17518 75.2921 4.2189 75.2725 4.26251C76.3068 4.43633 77.2944 4.84251 78.1583 5.49835C78.2618 5.57544 78.357 5.67556 78.4365 5.78944C80.3675 5.5719 82.3562 5.97122 84.0803 6.90324C84.5632 7.16428 84.7968 7.91691 84.4691 8.38635C84.3667 8.53247 84.26 8.67167 84.1446 8.8063C84.8948 9.08362 85.5584 9.53221 86.0059 10.263C86.492 11.0557 86.6418 12.0763 86.3804 12.9484C86.9259 13.5042 87.2112 14.3555 87.0168 15.2093C86.8394 15.9883 86.3625 16.483 85.7506 16.7799C85.8747 17.1597 85.7745 17.5911 85.4925 17.8844C85.0603 18.3343 84.5425 18.6795 83.9791 18.9062C83.978 19.0524 83.941 19.2031 83.8675 19.3435C83.359 20.319 82.2631 20.9669 81.1487 21.0648C81.5238 22.6398 81.832 24.2346 82.1308 25.8202C82.6622 28.6403 83.0743 31.488 83.3247 34.3471L83.3552 34.7007C83.7635 39.5389 83.8588 44.6073 82.875 49.3795C82.2484 52.4184 80.3479 54.9798 77.8132 56.7148C75.236 58.4798 72.0866 59.3579 68.9884 59.4967C67.408 59.5669 65.8129 59.4336 64.2647 59.1091C63.5297 58.955 62.8198 58.7362 62.1219 58.458C61.3706 58.1575 60.7522 57.7149 60.1174 57.2162C59.787 56.9576 59.9759 56.3468 60.3668 56.2695C60.646 56.2129 60.922 56.1519 61.2008 56.1013C61.4561 56.0544 61.7343 56.3098 61.6815 56.5455L62.2199 56.6843C62.3995 56.7306 62.5787 56.7774 62.7578 56.8253L63.0256 56.8988C63.7883 57.1117 64.5684 57.2913 65.3502 57.4187C66.942 57.6778 68.5981 57.6838 70.1981 57.4824C72.8885 57.1449 75.6361 56.1856 77.7283 54.4169C78.7539 53.5497 79.6086 52.5218 80.2287 51.329C81.0165 49.8134 81.2544 48.1252 81.4525 46.449C82.0241 41.6017 81.8478 36.7472 81.4041 31.8987C81.183 29.4871 80.882 27.0801 80.5619 24.6788C80.3975 23.4476 80.2205 22.2142 80.0746 20.9785C79.7491 20.891 79.4382 20.746 79.16 20.5355C78.9717 20.3928 78.8612 20.227 78.8127 20.058C78.5318 20.0049 78.2623 19.8507 78.068 19.5898L78.0435 19.5552C77.5339 18.8175 76.6531 18.3954 75.8376 18.0881C75.3427 17.9018 74.8391 17.7394 74.3377 17.5738C73.8151 17.4001 73.2631 17.1435 72.7149 17.0768C72.0926 17.0031 71.4655 17.1907 70.8378 17.1239C70.2672 17.0618 69.7648 16.8569 69.3543 16.4474C69.2106 16.3047 69.0859 16.1402 68.9868 15.963C67.0721 16.3725 65.0606 15.856 63.0708 15.9803C61.7621 16.0631 60.6074 16.8731 59.2845 16.8513C58.9235 16.8455 58.5735 16.719 58.3193 16.4969C57.0715 16.7351 55.803 17.1929 54.6298 17.5864C53.4703 17.9754 52.3548 18.4989 51.2094 18.9235C51.2083 18.9247 51.2083 18.9247 51.2083 18.9258C51.0586 19.4102 50.6122 19.6195 50.1374 19.5344C48.5837 19.2572 47.2747 18.2767 45.7622 17.9178C45.3458 19.4355 44.8984 20.9335 44.5926 22.4811C44.2831 24.0425 44.0657 25.6246 43.922 27.2101C43.777 28.8014 43.7081 30.4087 43.7046 32.0058C43.7034 32.8204 43.7242 33.6372 43.7518 34.4518C43.7741 35.1343 43.9041 35.997 43.6576 36.6536L43.6356 36.7091H43.6345C43.6045 36.8049 43.47 36.8626 43.394 36.7739C42.9305 36.235 42.8201 35.3782 42.6913 34.7015C42.5349 33.8801 42.4348 33.0505 42.3545 32.2185C42.1933 30.549 42.1577 28.8865 42.2427 27.2101C42.4095 23.9102 42.9386 20.4249 44.068 17.3058C43.7207 17.3378 43.5654 16.8259 43.5425 16.5371C43.4984 15.9567 43.5893 15.3409 43.6878 14.7588L43.7908 14.1562C43.8884 13.5873 43.9917 13.0334 44.1853 12.4801C44.6501 11.1522 45.3182 9.90512 46.1509 8.77179C47.8499 6.46026 50.2044 4.71006 52.885 3.70112C53.0527 3.63786 53.2117 3.639 53.3521 3.68718C55.7916 2.37218 58.414 1.35965 61.0777 0.639402C61.9009 0.417341 62.7349 0.207909 63.5744 0.0581985ZM43.3157 37.1566C44.4233 36.462 46.7086 36.2801 47.3263 37.7609C47.3516 37.8208 47.2803 37.8736 47.2274 37.86L47.0762 37.8219C46.4957 37.6776 45.994 37.5949 45.3986 37.8333C44.8753 38.0429 44.3669 38.3706 44.0208 38.8219C43.2024 39.8884 43.1137 41.3371 43.19 42.6311L43.1938 42.6937C43.2651 43.8294 43.5561 45.2121 44.666 45.7734C45.2284 46.0581 45.8368 46.0369 46.4476 46.0326C47.1434 46.0282 47.8542 46.1039 48.5189 46.3178C48.8902 46.4376 49.0655 46.9303 48.7568 47.2188C48.6545 47.3146 48.5478 47.4039 48.4351 47.4845C48.7721 47.8438 49.1031 48.2074 49.4243 48.5907C49.9681 49.2402 50.5468 49.8684 51.1506 50.4634C51.7347 51.0378 52.3537 51.5936 53.0206 52.07C53.7223 52.5692 54.5618 52.9198 55.1693 53.5322C55.5646 53.9302 55.4971 54.486 55.1693 54.8889C54.3555 55.8895 52.9705 54.8372 52.192 54.2454L52.0984 54.1741C51.2899 53.5622 50.5212 52.9018 49.8669 52.1239C49.2 51.3301 48.6224 50.4852 48.1956 49.5385C47.9451 48.9816 47.7851 48.4557 47.6989 47.9058C46.3003 48.5134 44.5372 48.3201 43.2835 47.4649C41.6192 46.3303 41.1523 44.248 41.1465 42.347L41.1466 42.2343C41.1589 40.3871 41.6442 38.2057 43.3157 37.1566ZM46.4712 39.8351L46.5225 39.8356C47.1384 39.8487 47.6877 40.0708 48.2108 40.3768L48.2647 40.4083C48.7732 40.711 49.5027 40.9538 49.7716 41.52C49.9327 41.8619 49.9213 42.2528 49.6404 42.5359C49.1319 43.0492 48.3649 42.9638 47.815 42.5636C47.4047 42.2631 47.1344 41.8134 46.7318 41.5097C45.975 40.9364 44.7812 40.9691 43.9934 41.465C43.945 41.4961 43.8979 41.4373 43.9197 41.391C44.4035 40.4007 45.3623 39.8313 46.4712 39.8351Z" fill="black"/>
<path fill-rule="evenodd" clip-rule="evenodd" d="M75.3335 49.1264L75.413 49.1079C76.0483 48.9582 76.6597 48.754 77.252 49.1482C77.8155 49.5233 77.8939 50.2174 77.4545 50.7237C77.0032 51.2441 76.4033 51.2153 75.7701 51.2223L75.7304 51.2229C75.2045 51.23 74.6705 51.2223 74.1467 51.1755C73.6584 51.132 73.1668 51.0623 72.6845 50.9714L72.3992 50.9153C72.1074 50.8565 71.8205 50.7797 71.6703 50.4972C71.4079 50.0051 73.3557 49.6191 73.592 49.5516C74.1663 49.3877 74.751 49.2581 75.3335 49.1264ZM76.4136 43.193C76.1033 43.5147 75.6934 43.7346 75.2328 43.8718C74.0765 44.2159 72.6001 44.0324 71.655 43.6818C71.459 43.6089 71.2761 43.4608 71.171 43.2757C71.0747 43.1058 71.042 42.9071 71.1155 42.7035C71.1362 42.6458 71.1612 42.5892 71.1868 42.5337C71.2565 42.3818 71.3975 42.2637 71.5635 42.1962C71.7356 42.1259 71.9316 42.1118 72.0889 42.1613C72.1101 42.1678 72.1314 42.1749 72.1537 42.182C72.7525 42.3704 73.7341 42.6834 74.548 42.6224C75.0358 42.5859 75.4653 42.4139 75.6874 41.967C75.8044 41.7312 75.7718 41.4982 75.6683 41.2848C75.5116 40.9631 75.198 40.6833 74.9339 40.4905C74.5616 40.2183 74.1647 40.11 73.7542 39.9951C73.5991 39.9521 73.4428 39.908 73.2844 39.8558C73.2321 39.8384 73.1864 39.8046 73.1521 39.7605C73.1184 39.7175 73.0966 39.6641 73.0895 39.6113C73.0824 39.5558 73.0911 39.5008 73.1167 39.4535C73.1401 39.4099 73.1783 39.3713 73.2349 39.3457C74.0384 38.9858 75.0777 39.2237 75.8616 39.7904C76.2541 40.0735 76.5808 40.4372 76.7822 40.8433C76.9695 41.2206 77.049 41.6349 76.9755 42.0568C76.8938 42.5293 76.6935 42.9022 76.4136 43.193ZM63.2451 35.157C63.4705 35.0575 63.6561 35.5234 63.7029 35.6503L63.7987 35.9138C63.9555 36.3389 64.1357 36.7706 64.4651 37.0864C64.7411 37.3504 65.1832 37.5742 65.5033 37.265C65.8071 36.9721 65.659 36.6422 65.7036 36.2823C65.7842 35.6323 66.671 34.9821 67.204 35.6606C68.4077 37.1942 66.5447 39.3261 64.8293 38.9521C63.9566 38.7621 63.2544 38.062 62.9653 37.2296L62.9506 37.1855C62.778 36.6585 62.6032 35.4401 63.2451 35.157ZM78.7812 36.2246L78.7731 36.2056C78.1993 34.9005 80.2451 34.3397 80.4188 35.5114L80.4297 35.5904C80.5984 36.891 80.243 38.6401 78.6506 38.7697C76.8628 38.9156 76.1186 36.9204 76.2781 35.4559C76.3069 35.194 76.6249 35.1578 76.7228 35.3959L76.7435 35.4479C77.0326 36.1838 77.3064 37.5987 78.3234 37.5976C79.0028 37.5965 78.9701 36.6786 78.7812 36.2246ZM80.0785 32.4474C81.1058 32.4109 81.1042 34.0197 80.0785 34.0438C76.6504 34.1245 73.2202 34.2317 69.7915 34.2501L69.1682 34.2539C65.948 34.2755 62.7159 34.3196 59.5051 34.0491C59.2307 34.0261 59.2818 33.6412 59.511 33.6567C62.8776 33.1773 66.285 33.0372 69.6772 32.855C73.1412 32.669 76.6118 32.5705 80.0785 32.4474Z" fill="black"/>
<path fill-rule="evenodd" clip-rule="evenodd" d="M80.0671 22.596C80.7318 22.3681 81.2621 23.0597 81.1341 23.6625C80.9839 24.3724 80.2429 24.9422 79.7519 25.4426C79.2363 25.9696 78.711 26.4862 78.1655 26.9833C77.1246 27.9338 76.0461 28.8288 74.9083 29.663L74.5605 29.918C73.5179 30.6812 72.4781 31.4266 71.3616 32.0873C70.7567 32.444 70.1459 32.7891 69.5269 33.1217C69.3064 33.2402 69.037 33.423 68.7599 33.5589C69.773 34.3413 70.5531 35.5358 70.7219 36.648C71.1405 39.412 69.3603 41.9734 66.8485 42.9914C65.5958 43.4988 64.2016 43.6463 62.8629 43.4933C61.5014 43.3376 60.1213 42.9348 59.2366 41.8193C58.4511 40.8285 58.168 39.5638 58.1119 38.3226C58.0852 37.733 58.0912 37.1532 58.2153 36.6322C57.6737 36.6366 57.132 36.6344 56.5947 36.6404C55.2674 36.6529 53.938 36.6589 52.6096 36.6219C51.2399 36.5827 49.8767 36.5217 48.5114 36.3998C47.9125 36.3459 47.3166 36.2571 46.7207 36.1717C46.1423 36.09 45.5039 36.059 44.9634 35.8222C44.9266 35.8069 44.9418 35.7541 44.9737 35.7438C45.5499 35.5576 46.2044 35.5908 46.8047 35.5538L47.3899 35.5184C47.8772 35.4895 48.3644 35.4629 48.8533 35.4469C49.9824 35.4098 51.1104 35.4006 52.2394 35.3813L52.7234 35.3722C54.0518 35.3458 55.3801 35.3308 56.7084 35.2883C57.2594 35.271 57.8114 35.2388 58.3651 35.2088C58.4293 35.0626 58.5235 34.9291 58.6144 34.7992C58.886 34.4104 59.2307 34.0675 59.5889 33.7568C60.3211 33.117 61.1459 32.6419 62.0659 32.3232C62.9778 32.0084 64.3116 31.8523 65.2762 31.8726C66.2409 31.8929 67.6155 32.029 68.057 32.8179C68.1033 32.8996 68.9439 32.742 69.1932 32.5509C69.7768 32.1057 70.3495 31.6477 70.9119 31.1783C71.956 30.305 73.0301 29.4455 74.0193 28.5112C75.0395 27.547 76.0516 26.5667 77.0223 25.5542C77.51 25.0468 77.9967 24.5382 78.4693 24.0182C78.9527 23.4878 79.3675 22.8342 80.0671 22.596Z" fill="black"/>
</svg>
