<svg width="138" height="208" viewBox="0 0 138 208" fill="none" xmlns="http://www.w3.org/2000/svg">
<path fill-rule="evenodd" clip-rule="evenodd" d="M136.385 196.426C133.351 192.107 126.956 191.392 122.848 188.365C120.685 186.705 118.394 185.607 116.713 183.371C119.39 180.224 116.079 172.845 115.397 168.584C112.697 157.427 110.2 146.093 106.988 134.949C112.554 136.683 111.104 126.303 110.309 123.903C110.254 123.573 109.845 123.507 109.595 123.403C109.665 122.931 109.858 122.828 109.273 122.698C109.078 119.874 109.876 116.712 108.433 114.217C106.806 111.493 102.917 109.215 99.7046 109.177C97.4479 100.209 97.0342 95.979 86.3414 99.7808C86.5778 98.9071 86.6515 98.1061 86.2394 97.2237C84.6314 92.3622 82.6106 87.0435 80.8536 82.1169C78.8284 76.4472 76.7342 70.5847 74.0256 65.1374C72.139 61.6782 66.2375 60.7535 62.2373 61.3261C61.2829 59.6414 58.8775 54.982 55.8348 56.0593C55.8121 54.6541 55.7902 53.2486 55.7719 51.8434C55.7563 50.6216 55.8847 49.369 55.4152 48.209C54.9179 46.9804 53.9053 46.3319 52.7161 45.8615C49.116 44.672 44.9807 42.7605 41.1817 43.9433C37.8629 45.4586 38.2495 51.1578 36.6431 54.256C34.3923 50.9167 30.5539 53.1555 29.7417 56.7369C20.4955 60.4248 12.548 56.2354 11.9563 70.7116C12.4661 73.3506 12.8996 75.8259 12.658 78.4904L12.3782 78.5192C10.0117 91.3459 9.10159 105.096 9.67364 119.39C9.55907 125.018 7.50926 130.271 5.52701 135.35C4.06898 139.084 2.56342 142.946 1.84969 146.908C1.05829 150.208 -1.8509 166.076 4.61805 160.808C4.86592 178.861 20.9441 181.172 35.4225 177.185C50.7929 173.988 68.0961 174.907 77.6886 159.44C80.9429 165.012 82.0658 168.452 82.8828 174.279C83.779 178.547 85.081 183.395 87.4736 186.218C85.4133 189.929 84.4043 194.45 84.5035 197.396C84.5426 198.553 84.0138 199.089 84.7741 199.808C88.4209 203.259 96.558 203.298 102.746 204.834C106.988 205.374 122.329 207.442 124.673 206.094C126.308 206.552 124.407 202.294 126.042 202.203C126.601 202.208 126.676 201.495 127.25 201.521C130.917 201.688 138.823 202.767 136.912 199.808L136.385 196.426Z" fill="white"/>
<path fill-rule="evenodd" clip-rule="evenodd" d="M135.474 200.606C132.77 201.191 129.99 201.028 127.25 201.256C127.339 201.026 127.413 200.792 127.471 200.553C130.302 200.21 133.27 200.047 135.969 199.111C136.032 199.416 136.08 199.724 136.099 200.035C136.102 200.076 136.096 200.541 136.162 200.455C136.08 200.562 135.597 200.583 135.474 200.606ZM121.815 193.585C116.895 191.965 111.677 190.574 107.884 186.816C107.891 186.796 107.899 186.775 107.906 186.754C108.686 186.532 109.545 186.06 110.296 186.574C112.702 186.491 115.215 185.647 116.9 183.863C117.015 183.888 117.126 183.922 117.235 183.965C120.477 189.485 127.384 190.536 132.442 193.734C134.493 194.929 138.312 198.146 133.426 198.218C131.497 198.511 129.557 198.728 127.612 198.877C127.462 195.769 124.386 194.408 121.815 193.585ZM125.254 201.546C124.276 202.882 122.509 203.409 120.911 203.278C119.736 203.119 118.698 202.705 117.476 202.794C108.208 202.442 99.0949 200.52 90.0575 198.558C81.963 197.038 88.1475 191.057 87.4732 186.218C88.6157 186.916 89.9109 187.425 91.2447 187.798C92.9622 192.584 97.6575 191.334 100.982 189.041C102.265 189 103.827 189.197 104.876 188.344C104.937 188.394 105.002 188.437 105.068 188.473C105.901 187.982 106.663 187.469 107.536 187.09C110.486 192.083 116.754 193.223 121.783 195.15C124.86 195.98 127.379 198.36 125.254 201.546ZM125.086 205.824C122.485 206.602 119.733 206.467 117.05 206.248C108.234 205.483 99.4767 203.979 90.9243 201.704C88.8959 201.164 84.9606 200.537 84.7741 197.989C86.5797 200.359 89.8029 200.638 92.5107 201.25C101.399 202.993 110.503 205.246 119.594 204.811C121.513 205.358 123.606 204.926 125.23 203.862C125.178 204.516 125.132 205.17 125.086 205.824ZM77.0219 122.584C78.3386 119.088 79.766 115.639 81.1473 112.165C83.7093 113.603 86.6021 114.128 89.5558 114.463C89.6251 114.498 89.6989 114.529 89.7786 114.554C89.9188 114.582 90.036 114.569 90.1304 114.526C94.0693 114.943 98.0871 115.107 101.552 116.719C102.893 117.343 104.151 118.183 105.29 119.341C106.536 120.535 107.54 121.977 108.213 123.568C108.424 124.059 108.535 124.569 108.868 124.973C108.968 125.516 109.081 126.054 109.158 126.602C109.352 128.744 109.617 131.001 108.791 133.056C108.279 134.315 107.229 133.303 106.533 132.81C105.4 132.018 104.358 131.11 103.318 130.203C100.125 127.198 96.3938 124.642 91.915 124.22C87.0795 123.547 81.8399 122.707 77.0219 122.584ZM75.0844 122.591C74.8186 123.27 74.5579 123.951 74.3013 124.633C73.0309 124.415 70.3266 123.902 69.2195 123.317C69.6141 123.331 70.0046 123.125 70.1046 122.654C70.1488 122.445 70.2182 122.25 70.2724 122.046C70.9399 119.87 71.509 117.649 72.4514 115.562C73.3732 113.358 74.4699 111.217 75.3079 108.981C76.729 108.891 78.9734 110.656 79.9884 111.376C78.178 115.029 76.5704 118.776 75.0903 122.575C75.0629 122.575 75.0342 122.575 75.0067 122.576C75.0322 122.581 75.0589 122.586 75.0844 122.591ZM66.7141 122.334C59.4266 121.878 52.041 122.358 44.8372 121.065C43.4719 120.833 42.1995 120.413 41.0175 119.842C37.5792 118.179 34.9076 115.227 32.9401 111.848C25.8323 101.138 18.0114 90.499 14.5128 77.9501C12.4399 71.8764 12.0363 62.7978 19.2818 60.1844C22.4952 58.9841 26.3763 59.0576 29.142 56.8798C28.8291 58.031 28.6534 59.2357 28.492 60.3022C28.2202 62.0412 27.9524 63.8408 28.1732 65.5993C28.1752 65.6149 28.1772 65.6301 28.1804 65.6445C27.8173 66.6343 28.959 67.5687 30.0792 67.4717C32.4424 67.4174 33.6013 64.5751 35.9696 64.4881C36.8344 64.4565 37.3504 64.9728 37.88 65.5874C39.1616 67.0772 40.4169 68.5953 41.9652 69.8164C42.0755 69.903 42.223 69.7976 42.1604 69.665C41.3786 67.9932 40.2819 66.5125 39.1943 65.0267C36.9396 61.4227 33.9049 63.0809 31.3397 65.2723C30.8396 65.6353 30.3319 65.9296 29.8174 65.801C29.8513 65.6772 29.8605 65.5343 29.8389 65.3745C29.6481 63.9634 29.835 62.476 30.029 61.0761C30.473 58.4638 30.3411 55.0566 32.8584 53.475C33.9571 52.8532 35.2858 52.7746 36.355 53.4801C36.1585 53.9617 35.9246 54.5036 35.8907 55.0127C35.6763 54.8613 35.5312 54.9084 35.4922 55.2367C36.3251 57.6948 37.6888 59.9532 38.8456 62.2712C39.7495 64.0105 40.658 65.7479 41.585 67.4749C41.8588 68.0095 42.0899 68.5757 42.6235 68.8724C42.6247 68.8776 42.6255 68.8828 42.6263 68.8876C42.9873 70.0791 42.9873 71.3593 43.2651 72.5707C43.4361 73.3111 43.6321 74.0554 43.8417 74.7957C44.0402 75.49 44.2498 76.1812 44.4622 76.8612C46.9927 85.6351 49.3898 94.4497 51.8569 103.243C48.9359 101.732 47.455 98.9067 46.118 96.0193C42.5916 88.5787 38.8978 80.457 34.9514 73.5922C38.6221 81.3969 43.6568 99.6797 49.9266 104.225C50.883 104.859 51.9255 105.336 53.0142 105.714C53.4689 106.126 53.9451 106.215 54.2651 106.106C56.2357 106.659 58.2992 106.977 60.236 107.383C63.595 108.089 66.9544 108.789 70.315 109.486C71.4516 109.721 72.5933 110.036 73.7546 110.092C73.8127 110.095 73.8689 110.093 73.9211 110.086C71.3627 113.028 69.6404 117.045 68.6564 120.811C67.8546 120.58 66.9464 121.436 66.7141 122.334ZM37.8701 122.658C32.1858 131.192 23.2783 136.487 15.9428 143.376C11.5478 148.009 8.04302 153.388 4.03446 158.345C3.91081 158.498 3.78599 158.652 3.66142 158.804C3.35266 159.185 2.92346 159.603 2.67499 159.972C2.66794 159.983 2.66076 159.993 2.65463 160.002C2.074 158.788 2.39185 157.236 2.37041 155.852C2.45932 153.482 2.76904 151.133 3.23418 148.81C4.75289 139.482 9.98204 131.181 11.1195 121.801C11.0817 111.824 10.5861 101.82 11.4262 91.8466C11.7328 87.2946 12.0548 82.7402 12.5106 78.1993C15.6587 89.9016 24.8516 102.525 30.0705 110.607C32.1758 113.696 34.0607 117.066 37.0256 119.429C37.7422 119.995 38.4985 120.482 39.2856 120.901C38.7528 121.43 38.2969 122.032 37.8701 122.658ZM56.4872 77.0194C57.2699 76.8141 58.9982 76.6085 59.8968 76.0175C60.3615 77.6119 60.8644 79.1944 61.3948 80.7676C60.1072 80.3867 58.7141 80.5652 57.3878 80.7101C55.6599 80.899 53.9339 81.1042 52.2092 81.319C50.6291 81.5159 49.0502 81.7203 47.4721 81.9304C46.909 79.9103 46.342 77.8918 45.7661 75.8754C49.0582 77.4019 52.9628 77.6147 56.4872 77.0194ZM58.2785 61.8235C58.2757 61.6894 58.2438 61.5496 58.1745 61.4051C58.1641 61.3847 58.1549 61.3644 58.1446 61.344C57.876 60.3837 57.603 59.4245 57.3253 58.4666C57.283 58.3053 57.0276 58.3368 57.0327 58.5065C57.0308 58.6251 57.0296 58.7425 57.0288 58.8615C57.0104 58.8124 56.9929 58.7633 56.9754 58.713C56.631 57.7139 56.3788 56.6853 56.2122 55.6404C59.162 56.2489 61.5913 62.6904 62.9641 67.2956C61.8356 66.9442 60.3555 66.8643 59.9171 67.7999C59.3732 65.807 58.8336 63.8133 58.2785 61.8235ZM53.7024 99.9672C54.4377 99.9189 55.1729 99.873 55.9078 99.8223C57.4117 99.7177 58.9153 99.609 60.4193 99.5024C60.7799 99.4769 61.1406 99.4505 61.5012 99.4238C62.5226 99.3675 63.544 99.3112 64.5653 99.2565C65.6947 99.1966 66.8368 99.094 67.9746 99.052C68.189 99.0472 68.403 99.044 68.6174 99.0416C68.6596 99.1275 68.7031 99.2117 68.7505 99.292C67.2509 99.7073 65.8812 100.188 64.7837 100.672C62.2895 101.765 59.8916 103.204 57.8437 105.013C57.4643 104.934 57.0849 104.854 56.706 104.774C55.6655 104.549 54.6118 104.308 53.5968 103.966C53.337 103.329 53.2521 102.58 53.0313 101.953C52.8564 101.324 52.6814 100.694 52.5061 100.065C52.9062 100.058 53.3151 99.9924 53.7024 99.9672ZM51.2205 94.8218C51.2341 94.8202 51.2476 94.8186 51.2608 94.817C51.2623 94.817 51.2643 94.817 51.2659 94.817C51.4301 94.8118 51.5943 94.8054 51.7581 94.7979C52.0861 94.7827 52.414 94.7627 52.7416 94.7396C53.3976 94.6928 54.0523 94.6306 54.7059 94.5591C56.0158 94.4161 57.3209 94.2368 58.6276 94.0707C59.3975 93.9725 60.165 93.8879 60.9318 93.816C62.7242 93.697 64.5223 93.606 66.3128 93.5808C66.8859 94.9456 67.4677 96.3064 68.0543 97.6644C68.1097 97.791 68.1631 97.9288 68.2177 98.0717C65.5855 98.0218 62.9418 98.2714 60.3188 98.4287C58.8487 98.5166 57.3779 98.602 55.9078 98.6926C55.1725 98.7378 54.4373 98.7881 53.7024 98.836C53.2114 98.8679 52.6838 98.8468 52.1933 98.9394C52.0892 98.5665 51.9856 98.1931 51.8816 97.8198C51.6094 96.8527 51.3405 95.8844 51.0711 94.9165C51.1237 94.8909 51.1739 94.8598 51.2205 94.8218ZM48.9809 87.3733C48.5589 85.8463 48.1365 84.3194 47.712 82.7929C47.7917 82.7817 47.8714 82.7709 47.9511 82.7597C48.2492 82.7186 48.5473 82.6779 48.8454 82.6371C49.5021 82.5477 50.1593 82.4595 50.8164 82.3724C51.3257 82.3049 51.835 82.2382 52.3447 82.1724C52.907 82.1248 53.4697 82.0793 54.0328 82.0378C56.5784 81.8501 59.1444 81.6756 61.6985 81.6612C62.2349 83.2157 62.7996 84.761 63.385 86.2983C61.2127 86.4309 59.0424 86.6058 56.8733 86.7803C55.6256 86.8805 54.3779 86.9847 53.1306 87.0925C52.524 87.1449 51.9171 87.1984 51.3106 87.2523C50.9738 87.2826 50.6367 87.313 50.2996 87.3437C50.1051 87.3613 49.8508 87.4276 49.632 87.4288C49.6038 87.4064 49.5739 87.3844 49.5424 87.3629C49.383 87.2527 49.1475 87.2722 48.9809 87.3733ZM49.4886 88.6622C50.9212 88.4873 52.3507 88.2992 53.7821 88.1251C54.5763 88.0481 55.3706 87.9718 56.1648 87.8975C58.6889 87.662 61.2163 87.4579 63.7404 87.2251C64.4255 88.9956 65.1368 90.7557 65.8649 92.5087C62.7737 92.3046 59.6258 92.8241 56.5697 93.1835C54.9378 93.3755 53.3019 93.5485 51.6597 93.6099C51.3994 93.6195 51.036 93.606 50.7244 93.675C50.3 92.1473 49.8771 90.6192 49.4551 89.0906C49.4611 88.9485 49.4723 88.8059 49.4886 88.6622ZM74.8664 109.085C74.758 109.189 74.652 109.295 74.5468 109.404C74.5488 109.37 74.5496 109.336 74.5488 109.301C74.5508 109.3 74.5528 109.299 74.5536 109.298C74.6476 109.206 74.752 109.136 74.8664 109.085ZM72.9543 65.345C76.132 73.0563 78.8762 80.9856 81.8526 88.7912C82.8071 91.4417 83.7475 94.0971 84.637 96.7708C84.9741 97.6541 85.0977 98.6459 85.7907 99.3403C85.8194 99.3687 85.8509 99.3954 85.8847 99.4178C84.9538 99.8091 84.1126 100.244 83.4351 100.683C83.7467 101.74 84.1229 102.778 84.5721 103.778C84.7327 104.136 84.2042 104.447 84.0428 104.088C83.4718 102.816 83.0107 101.492 82.6497 100.143C82.1997 99.5356 81.6797 98.9917 81.0054 98.6519C79.7043 98.1787 78.0636 98.015 76.2954 98.0681C76.2667 98.017 76.2289 97.9679 76.1831 97.922C75.5973 97.3578 75.3653 96.4598 75.074 95.7123C74.2268 93.5317 73.5063 91.2996 72.9145 89.0347C72.3319 86.7923 71.9708 84.4971 71.3659 82.2598C71.2431 81.8681 70.8618 79.9766 70.5063 80.0808C70.5135 80.1239 70.5195 80.1659 70.5258 80.2086C70.5075 80.1962 70.4868 80.1914 70.4665 80.1922C70.3234 84.8201 71.5325 89.4816 72.9173 93.8791C73.3007 95.3445 74.1714 96.7153 74.4507 98.1939C73.2373 98.3197 72.0007 98.5261 70.8016 98.7869C70.7845 98.6899 70.7598 98.5936 70.7311 98.4966C70.7147 98.3616 70.6737 98.2554 70.6147 98.1744C70.4633 97.8046 70.2628 97.4436 70.115 97.1102C69.8101 96.421 69.5076 95.7318 69.2084 95.0398C67.5781 91.2545 66.0347 87.4284 64.673 83.5368C62.994 78.8182 61.6212 74.0082 60.2965 69.1855C61.1836 69.6606 62.8896 68.7107 63.9353 70.8817C64.1613 71.4287 64.663 71.8193 65.2855 71.6484C65.8314 71.4982 66.2443 70.8613 66.0522 70.2979C66.0243 70.2057 65.9948 70.1146 65.9609 70.0256C64.9419 67.0025 64.117 63.8991 62.6473 61.0537C66.42 61.435 70.8825 61.7058 72.9543 65.345ZM108.094 115.885C108.42 117.428 108.21 119.051 108.122 120.621C106.631 118.639 104.741 116.946 102.53 115.819C102.383 114.828 101.759 113.964 101.47 113C100.938 111.642 100.506 110.253 100.118 108.851C103.723 109.603 107.232 112.222 108.094 115.885ZM95.0237 127.704C96.2476 134.312 98.1919 140.753 99.6157 147.316C99.6994 147.701 99.108 147.865 99.0244 147.479C97.6005 140.916 95.6566 134.474 94.4324 127.867C94.3606 127.48 94.952 127.316 95.0237 127.704ZM94.3953 188.452C95.372 188.589 96.3472 188.709 97.3299 188.813C95.3732 189.632 93.5493 189.432 91.9572 187.985C92.7722 188.183 93.5935 188.335 94.3953 188.452ZM137.501 198.189C137.446 197.927 137.301 197.757 137.119 197.665C137.146 192.166 125.592 190.378 122.091 186.876C120.489 185.744 119.324 183.872 117.464 183.171C118.516 181.542 118.233 179.445 118 177.614C117.489 174.273 116.205 170.54 115.87 168.475C113.337 157.861 110.881 147.221 108.015 136.69C107.957 136.489 107.849 136.09 107.712 135.649C108.021 135.724 108.316 135.749 108.593 135.713C112.613 134.821 111.711 126.686 110.766 123.738C110.665 123.391 110.429 123.171 110.152 123.068C110.188 122.888 110.155 122.697 110.028 122.514C109.959 122.416 109.854 122.345 109.739 122.309C109.618 119.511 110.316 116.504 108.844 113.948C107.19 111.153 103.245 108.84 100.07 108.678C99.6153 107.029 99.2168 105.365 98.7773 103.713C98.2951 101.984 97.6081 100.127 96.1639 98.967C94.2953 97.3043 90.307 97.8114 86.9986 98.9865C87.1795 98.1205 86.7674 97.337 86.5152 96.5252C85.6923 94.0959 84.845 91.6745 83.9803 89.2608C80.8763 81.1218 78.327 72.6853 74.4444 64.8818C72.8364 62.2364 69.7448 61.0445 66.7767 60.7989C65.3843 60.6588 63.9034 60.6045 62.4979 60.7694C62.4533 60.6835 62.407 60.5985 62.36 60.5138C61.2083 58.5169 58.8707 54.799 56.1803 55.4371C55.8962 53.5384 55.8922 51.5926 56.1261 49.6928C56.1429 49.5578 55.9217 49.4995 55.8667 49.6221C54.0842 53.6223 54.4153 58.5445 56.5904 62.3315C56.7498 62.5946 56.9666 62.7304 57.1914 62.7691C57.5377 66.7457 58.4036 70.6701 59.4716 74.5217C59.311 74.5277 59.1568 74.5617 59.0281 74.6188C55.6204 75.8674 51.8733 76.0706 48.3265 75.3415C47.3279 75.1311 46.3611 74.848 45.3891 74.5593C45.2054 73.9216 45.0213 73.2855 44.836 72.6486C44.3721 70.6361 44.2538 68.7027 43.0762 67.082C43.0065 66.9626 42.9351 66.844 42.8666 66.7254C41.9213 65.0096 40.9605 63.303 39.9925 61.6007C39.7574 61.3216 38.1853 58.2222 36.9619 56.3479C37.1153 56.3439 37.2739 56.3052 37.4281 56.2273C38.2905 55.7969 38.2813 54.5487 38.4388 53.7113C38.9213 51.1091 39.4797 48.5025 39.6327 45.8555C39.6411 45.7205 39.4346 45.6634 39.3741 45.786C38.1977 48.1191 37.3823 50.616 36.5112 53.0753C36.4936 53.1244 36.4757 53.1743 36.4562 53.2254C35.6488 52.2072 34.2309 51.9648 32.9963 52.2387C30.9329 52.7778 29.8919 54.4556 29.2922 56.3635C23.3588 59.1965 16.2982 56.3032 12.6974 63.7989C11.0755 67.716 11.1061 72.1575 12.1567 76.7802C9.42058 90.7933 8.56406 105.129 9.13345 119.387C8.93097 129.032 3.01715 137.4 1.32249 146.786C0.477258 150.486 -0.0532358 154.278 0.0122789 158.078C-0.117515 160.086 0.767612 163.052 3.33911 162.271C3.63245 162.165 3.89829 162.003 4.1435 161.808C5.21771 178.07 17.7446 181.215 32.1826 178.414C32.7672 178.425 33.3418 178.29 33.9559 178.117C34.2544 178.028 34.5509 177.935 34.8474 177.837C35.0702 177.783 35.2937 177.729 35.5177 177.673C35.6835 177.639 35.85 177.607 36.0162 177.574C40.1328 174.851 44.4088 172.371 48.476 169.571C48.7625 169.374 49.1136 169.833 48.8474 170.053C46.1304 172.301 43.4707 174.647 40.6437 176.76C48.6983 175.479 56.8941 175.697 64.4143 172.378C69.6918 170.068 74.658 165.439 77.6488 160.445C77.6938 160.525 77.7376 160.604 77.7827 160.684C77.6372 160.271 77.4922 159.858 77.3487 159.444C74.799 152.099 72.4925 144.669 69.7057 137.408C69.5638 137.038 70.1568 136.88 70.2971 137.245C71.0782 139.28 71.823 141.33 72.5447 143.387C75.1278 150.751 77.4364 158.21 80.1877 165.514C80.2036 165.556 80.2088 165.595 80.2076 165.631C80.7818 167.049 81.2517 168.493 81.5777 169.973C81.9152 171.522 82.409 174.83 82.8971 177.614C83.3251 179.91 83.6364 182.573 85.2304 184.336C85.2284 184.339 85.2268 184.343 85.2248 184.347C85.1686 184.456 85.1148 184.565 85.0626 184.673C85.1754 184.786 85.3189 184.859 85.4516 184.943C85.4723 184.847 85.4922 184.751 85.5145 184.653C85.9023 185.064 86.3327 185.434 86.7945 185.768C86.2737 189.624 82.391 193.359 84.4015 197.396C83.4431 199.602 85.7951 201.397 87.7306 201.853C90.6979 202.802 93.7601 203.516 96.7987 204.193C102.815 205.316 121.645 209.463 126.152 206.235C126.087 205.545 126.935 203.306 125.935 203.273C126.378 202.836 126.746 202.324 127.024 201.768C129.782 202.666 132.848 202.345 135.657 202.014C137.928 202.063 137.845 199.849 137.501 198.189Z" fill="black"/>
<path fill-rule="evenodd" clip-rule="evenodd" d="M39.7236 9.78528C54.8701 9.04003 65.1468 20.9915 65.5888 25.7572C65.8956 29.0658 65.6876 33.4777 65.6876 36.4341C65.6876 37.9431 66.4483 42.5294 65.5888 44.7288C63.6755 49.6238 61.514 53.4583 55.5244 53.4583C49.5349 53.4583 40.4042 50.3522 37.2688 46.3464C36.6965 45.6148 29.5827 40.2606 29.5827 36.052C29.5827 27.0725 28.916 10.3171 39.7236 9.78528Z" fill="white"/>
<path fill-rule="evenodd" clip-rule="evenodd" d="M29.3907 0.0872927C30.2539 -0.182675 30.805 0.205965 31.1979 0.808072C31.2844 0.791181 31.3685 0.792299 31.4617 0.81478C31.4849 0.82037 31.5406 0.841494 31.5829 0.858065C31.6156 0.871761 31.6451 0.888372 31.6733 0.905981L31.6905 0.897076C31.755 0.8264 31.8232 0.761873 31.8965 0.709884C32.0619 0.593128 32.2317 0.559109 32.3931 0.583107L32.468 0.555634C33.1068 0.332864 33.7998 0.436243 34.233 0.98696C34.3167 1.09333 34.3844 1.21181 34.4422 1.33679C34.5721 1.37939 34.694 1.44101 34.7992 1.51679C34.873 1.48209 34.9507 1.4529 35.0344 1.43138C35.5058 1.31039 36.0007 1.42459 36.3849 1.71377C36.5722 1.85444 36.7097 2.03061 36.8141 2.23178C36.9329 2.25965 37.0504 2.30985 37.1604 2.37725C37.2549 2.33017 37.3509 2.28597 37.4493 2.25566C37.8092 2.14509 38.1949 2.10441 38.5695 2.13228C39.3769 2.19217 40.1572 3.11452 39.618 3.90657L39.6013 3.93053C39.5327 4.026 39.4729 4.12467 39.418 4.22498C39.6112 4.30907 39.7973 4.42155 39.9691 4.5625C40.8099 5.25194 40.8857 6.31476 40.7283 7.31736L40.7215 7.35909H40.7235C41.1702 7.40154 41.556 7.86832 41.2921 8.30739L41.279 8.32796C40.9219 8.88019 40.6159 9.4902 40.2744 10.0713C39.3299 10.412 38.4193 10.8315 37.5617 11.3398C37.0277 11.808 36.5192 12.3029 36.0717 12.8535C35.8485 13.1284 35.6433 13.4195 35.4548 13.7212C35.6054 13.7938 35.7919 13.79 35.9493 13.6441C37.3505 12.3452 39.043 11.4336 40.845 10.8227C40.9749 10.7786 41.0598 10.6956 41.1076 10.5974C41.9078 10.3693 42.722 10.1925 43.5441 10.0673C43.7709 9.85125 44.0084 9.64465 44.2339 9.42951C44.5221 9.15495 44.8827 9.15894 45.1525 9.3314C45.2864 9.27035 45.4231 9.2164 45.5622 9.16797L45.6486 9.13854C45.6845 9.12676 45.7188 9.11306 45.7542 9.10224C46.719 8.80716 47.6013 8.91673 48.5506 9.15918L48.6721 9.19085C49.1145 9.30828 49.3926 9.28952 49.821 9.18142L49.8692 9.16905C50.3247 9.05025 50.8113 8.96225 51.2768 9.08735C51.7633 9.21828 52.0865 9.50941 52.4181 9.86116L52.4512 9.89653C52.6058 10.0622 52.6955 10.0802 52.8979 10.0762L53.1151 10.0698C53.9336 10.0473 54.7354 10.0818 55.3487 10.7155C55.5755 10.9499 55.819 11.2815 55.9648 11.5842L55.9859 11.6294C55.9927 11.6441 55.9987 11.6564 56.0043 11.6674C56.0923 11.6532 56.2294 11.5975 56.2944 11.5848C57.1866 11.4116 57.9315 11.6785 58.5045 12.3821C58.6296 12.536 58.8193 12.8384 58.9504 13.0046C58.9963 13.0435 59.0397 13.0854 59.0808 13.1292C59.2959 13.2667 59.6008 13.258 59.8419 13.3062C60.4994 13.4372 61.202 13.6874 61.5364 14.3134C61.6762 14.5746 61.7276 14.8605 61.7866 15.146C62.0078 15.2913 62.1811 15.5007 62.3154 15.7274C62.4788 16.0025 62.5486 16.3396 62.7367 16.5994C62.8734 16.7882 63.0826 16.889 63.281 17.0044L63.3571 17.049C63.9461 17.3999 64.4072 17.7894 64.6013 18.477L64.618 18.5381C64.6495 18.6434 64.7599 18.944 64.6639 18.8989C64.7467 18.9446 64.8874 18.9607 64.9627 18.9857C65.3716 19.121 65.7267 19.3395 65.9443 19.7233C66.11 20.0155 66.1399 20.32 66.1874 20.6421L66.2077 20.7721C66.2129 20.8036 66.2188 20.8401 66.2252 20.8756L66.2316 20.9104L66.2328 20.9112C66.3069 20.9432 66.3798 20.9779 66.4512 21.0153C66.7899 21.2147 67.0214 21.561 67.0214 21.9618C67.0214 22.1564 66.9605 22.308 66.872 22.4433C66.9437 22.5516 66.9991 22.6671 67.041 22.7958C67.1231 23.047 67.1286 23.3218 67.1011 23.5818C67.0681 23.8937 66.988 24.1778 66.8935 24.4758C66.8572 24.5907 66.8429 24.7514 66.7879 24.8612C66.8887 24.9899 66.9489 25.1471 66.9302 25.3023C66.9039 25.5243 66.8022 25.7839 66.6014 25.908C66.5034 26.3932 66.2918 26.8887 66.0837 27.2852C66.0598 27.3312 66.0307 27.3723 65.9989 27.4062C66.0275 28.9891 65.9116 30.5827 65.9036 32.1635C65.8948 33.8841 65.9307 35.6059 65.9909 37.3245C66.0917 40.1731 66.4524 43.1187 65.6119 45.8963C64.9245 48.1699 63.5472 50.1217 61.7005 51.6015C59.81 53.1152 57.531 53.9913 55.1104 54.1283C53.8794 54.197 52.6273 54.0572 51.4362 53.7382L51.3086 53.7038C50.1562 53.3868 48.8216 52.9028 47.9735 52.0555C47.5256 51.6075 47.9783 50.6587 48.6351 50.9195C49.2854 51.1786 49.8692 51.5616 50.5148 51.8315C51.0911 52.0723 51.6928 52.2576 52.3025 52.3933C53.5243 52.6684 54.8207 52.7283 56.0629 52.5574C60.5477 51.9433 64.0422 48.217 64.7316 43.7987C64.9225 42.5749 64.9189 41.3315 64.9061 40.0948L64.8918 38.7404C64.881 37.6068 64.8771 36.4728 64.9185 35.3399C64.9715 33.8821 65.0743 32.4254 65.2122 30.9736L65.2839 30.2181C65.3692 29.3344 65.4653 28.444 65.631 27.5719C65.4955 27.5791 64.4255 25.7479 63.8318 24.7245C63.615 24.5525 63.4321 24.3389 63.3611 24.0624C63.3464 24.0047 63.3388 23.9465 63.3344 23.8883C63.2053 23.6856 63.0694 23.4881 62.926 23.2965L62.8945 23.2825C62.8706 23.2715 62.8518 23.2624 62.8407 23.2561C62.5278 23.0785 62.266 22.8093 62.0871 22.4973C62.0269 22.3922 61.9775 22.2824 61.9373 22.1701C61.6818 21.9194 61.4148 21.6803 61.1343 21.456C61.1064 21.434 61.0781 21.4134 61.0502 21.3917C60.6931 21.2583 60.3795 21.0574 60.1507 20.7679C60.0551 20.7087 59.9591 20.6507 59.8622 20.5939C59.5709 20.5912 59.2768 20.5233 58.9903 20.4057C58.4666 20.1905 58.0486 19.7653 57.5226 19.5682C56.9663 19.3599 56.3801 19.8332 55.7891 19.7479C55.638 19.7261 55.4886 19.6802 55.3495 19.6136C55.0168 19.9663 54.6633 20.2989 54.2739 20.5899C53.7089 21.0125 53.1306 21.2056 52.4755 21.3964C52.1507 21.7047 51.7873 22.0035 51.3489 22.0474C50.3343 22.8589 49.2492 23.5434 48.1074 24.1789C47.9237 24.2811 47.7412 24.3272 47.5679 24.3284C47.2096 24.5533 46.8187 24.7264 46.4058 24.8462C46.2763 24.8837 46.1428 24.8916 46.0117 24.8755L45.6534 25.1675C45.4039 25.3706 45.1377 25.4676 44.8835 25.474C44.7285 25.5926 44.5679 25.7052 44.4029 25.813C44.226 25.9288 43.9964 25.9771 43.7657 25.9627C43.4134 26.3077 42.9567 26.3437 42.5741 26.1852C42.5215 26.2159 42.4673 26.2451 42.4068 26.2738C42.3243 26.3129 42.2382 26.3457 42.1501 26.3724C41.7512 26.8029 41.1674 27.0281 40.5824 26.9694C40.1456 27.2369 39.6367 27.3763 39.1398 27.3451C39.0641 27.7261 39.0011 28.1086 38.9481 28.4927L38.9425 28.7738C38.9421 28.8194 38.9421 28.8549 38.9425 28.878L38.9429 28.8876C38.9916 30.1203 39.0183 31.3537 39.0661 32.5864L39.0705 32.6838C39.1255 33.7607 39.3901 35.7249 37.808 35.6821C37.2182 35.6662 36.6332 35.2317 36.1741 34.8744L36.1091 34.8241C36.0741 34.7965 36.0378 34.7685 36.0015 34.7398C35.6584 34.6951 35.3201 34.6116 34.9738 34.5992C34.5458 34.5841 34.0963 34.628 33.6794 34.725C32.9442 34.8959 32.2325 35.2309 31.7531 35.8379C31.7108 35.891 31.6718 35.9469 31.6351 36.0028C31.6008 36.1178 31.543 36.224 31.4661 36.3158C31.0122 37.3365 31.2744 38.6857 31.7758 39.6193C32.3735 40.7317 33.3192 41.5008 34.5083 41.8881L34.5677 41.9069C35.3803 42.1608 35.6911 42.6528 36.1327 43.3368C36.5463 43.9788 37.0213 44.5766 37.5306 45.1444C38.5169 46.2433 39.9014 47.1501 40.4748 48.5409C40.5908 48.8212 40.2588 49.0847 40.0022 49.0128C38.9959 48.7301 38.2902 48.013 37.5589 47.3002C37.0524 46.8067 36.5658 46.2932 36.1087 45.7537C36.0131 45.7981 35.9075 45.8276 35.7979 45.8412C35.3133 45.9003 34.8132 45.8755 34.3892 45.6144C34.1935 45.6319 33.9899 45.5641 33.8384 45.4255C33.6998 45.2981 33.5798 45.16 33.4786 45.013C33.3252 45.0266 33.1741 45.0306 33.0303 45.0066C32.9605 45.0002 32.8936 44.9819 32.8318 44.9519C32.7174 44.9068 32.6086 44.8369 32.509 44.7299C32.307 44.5127 32.2293 44.2064 32.2667 43.9149C32.2269 43.9066 32.187 43.8962 32.148 43.883C31.879 43.792 31.6718 43.6111 31.5394 43.3647C31.3027 43.2321 31.0895 43.0517 30.9281 42.8604C30.7317 42.6276 30.5834 42.3653 30.4962 42.0754C30.4061 42.0334 30.3188 41.9847 30.2351 41.928C29.635 41.5219 29.2915 40.7593 29.527 40.0541L29.535 40.0317C29.5469 40.0002 29.5688 39.9459 29.5951 39.8848C29.5915 39.8353 29.5876 39.7854 29.5848 39.7359L29.5764 39.5853L29.456 39.5342C28.8567 39.2958 28.4514 38.974 28.3793 38.2988C28.3641 38.159 28.4183 38.0169 28.504 37.8979L28.5036 37.8603C28.4646 37.8404 28.4275 37.8196 28.3948 37.7988C28.068 37.59 27.8672 37.2155 27.8895 36.8285C27.9102 36.4756 28.1055 36.1941 28.3251 35.9341L28.388 35.861C28.3932 35.855 28.3988 35.8487 28.4052 35.8415L28.2601 35.7955C28.1657 35.7656 28.0796 35.7361 28.0174 35.7009C27.7771 35.5663 27.5735 35.3843 27.448 35.1531C27.4296 35.1243 27.4109 35.096 27.3942 35.0656C27.232 34.7693 27.2109 34.39 27.3157 34.0722C27.328 34.0346 27.344 33.9995 27.3603 33.9644C26.9187 33.8086 26.5784 33.4868 26.5374 32.8934C26.5214 32.6598 26.5724 32.4274 26.6836 32.2286C26.6589 32.0944 26.6537 31.9555 26.6697 31.8177C26.5143 31.6712 26.3935 31.4939 26.3397 31.2782C26.2377 30.8702 26.4246 30.4824 26.702 30.1263C26.5991 29.8452 26.594 29.5277 26.7111 29.2442C26.6661 29.1029 26.6406 28.9535 26.639 28.8002C26.6358 28.46 26.7406 28.1765 26.9096 27.9349C26.6721 27.6442 26.5593 27.2581 26.6996 26.8963C26.7992 26.6392 26.9136 26.404 27.0451 26.186C26.9761 26.0202 26.9359 25.8346 26.9359 25.6265C26.9359 25.2526 27.0758 24.9564 27.2902 24.7139C27.1973 24.2711 27.3862 23.7318 27.7987 23.5368C27.9541 23.4632 28.1621 23.3864 28.3912 23.3266C28.4773 23.0577 28.5674 22.7898 28.6622 22.5238C28.8113 22.1052 28.9723 21.6924 29.1424 21.2843C29.0444 21.3702 28.9416 21.4503 28.8352 21.5229C28.4988 21.9506 28.0533 22.3212 27.6787 22.5429C26.9359 22.9824 26.0867 22.7216 25.7196 21.9862C25.3753 22.2436 24.9617 22.3959 24.5205 22.3439C24.0204 22.2848 23.5629 21.9606 23.4382 21.455C23.4198 21.3818 23.4091 21.3027 23.4079 21.2231C23.121 21.4275 22.8209 21.6156 22.4917 21.7233C22.0721 21.8604 21.6441 21.5314 21.5887 21.1215C21.5669 20.959 21.5972 20.8154 21.6619 20.6941L21.6209 20.678C21.6141 20.6752 21.6073 20.6722 21.6006 20.669C21.3807 20.566 21.2099 20.377 21.1288 20.159C20.6525 20.3434 20.1073 20.1273 19.9562 19.6033C19.7763 18.9804 19.7654 18.3495 19.9062 17.7426C19.4016 17.3757 19.0728 16.7588 19.0168 16.1139C18.976 15.651 19.0864 15.2236 19.281 14.8285C18.8037 14.6499 18.6396 14.024 18.8664 13.5731C18.5652 13.4005 18.3687 13.0346 18.3643 12.6785C18.2297 12.4745 18.1866 12.2119 18.2983 11.9175C18.4455 11.5297 18.7452 11.2052 19.0885 10.9508C18.9388 10.69 18.8276 10.4056 18.7585 10.1118C18.4741 10.0285 18.2446 9.79835 18.1978 9.45271C18.1393 9.01935 18.4244 8.65203 18.8081 8.55504C18.8507 8.42303 18.9026 8.29398 18.9669 8.16999C18.777 7.72006 18.805 7.15114 19.0498 6.6592C19.2667 6.22428 19.6194 5.9583 20.0441 5.77434C19.9362 5.40439 20.0791 5.03544 20.4388 4.76048C20.878 4.42443 21.3597 4.1676 21.8657 3.98611C21.821 3.38389 22.0725 2.7672 22.6671 2.55721C22.8261 2.50115 22.9914 2.48043 23.16 2.48115C23.282 2.21549 23.4856 1.99951 23.7518 1.80832C24.1539 1.51919 24.9059 1.69584 25.129 2.14929L25.1402 2.17257C25.1514 2.19828 25.1637 2.22176 25.1753 2.24668C25.2203 2.0265 25.3255 1.81855 25.4945 1.64804C25.9169 1.22183 26.3628 1.21384 26.792 1.39608C26.8709 1.20071 26.9662 1.01495 27.0821 0.845087C27.503 0.228765 28.198 0.150264 28.7073 0.48404C28.9113 0.304554 29.1388 0.166195 29.3907 0.0872927ZM32.3994 37.1488C33.2467 36.8166 34.2748 36.9148 35.1125 37.2338L35.1738 37.2574C35.9135 37.5501 37.115 38.2009 37.2596 39.0335C37.335 39.4643 36.9253 39.8373 36.5092 39.6105C36.1474 39.4132 35.9446 39.0163 35.6568 38.7284C35.3723 38.4437 35.0535 38.2145 34.7056 38.0137C33.9803 37.5948 33.2176 37.4315 32.3994 37.3109C32.3074 37.2977 32.3325 37.1747 32.3994 37.1488Z" fill="black"/>
<path fill-rule="evenodd" clip-rule="evenodd" d="M55.3228 46.086C54.6509 45.8117 54.0516 45.3541 53.6132 44.7699C53.461 44.5671 53.4215 44.3522 53.4534 44.1562C53.4893 43.9358 53.6196 43.7357 53.7977 43.6016C53.9763 43.467 54.1994 43.4007 54.415 43.4346C54.6027 43.4638 54.7892 43.5668 54.9371 43.7796L54.9678 43.8224C55.2284 44.1749 55.5679 44.4644 55.9545 44.6509C56.3275 44.8306 56.7443 44.9145 57.1759 44.8657C57.9976 44.7727 58.5639 44.3283 59.166 43.7241C59.241 43.6479 59.3155 43.5692 59.3904 43.4893C59.4378 43.4171 59.5036 43.3704 59.5765 43.346C59.6578 43.3188 59.7495 43.3204 59.8335 43.3496C59.9144 43.3779 59.987 43.4318 60.0356 43.5029C60.0814 43.5708 60.1077 43.6547 60.0993 43.7509C60.044 44.3766 59.7172 44.9352 59.2525 45.3737C58.7368 45.8608 58.053 46.1978 57.409 46.316C56.6997 46.4462 55.9772 46.3531 55.3228 46.086ZM57.7438 36.4313C58.4981 36.8901 59.6482 37.9606 58.8365 39.0982C57.8808 40.1013 56.5048 38.9513 55.8269 38.431C55.1985 38.0277 54.4919 39.0647 55.0754 39.5355C59.9742 43.1643 61.9624 36.5515 58.1255 35.8918C57.7027 35.8192 57.5461 36.2895 57.7438 36.4313ZM48.9646 32.2099C49.0483 31.1745 50.6244 30.9393 50.781 31.9639C50.9217 32.8819 50.7563 33.7248 50.3431 34.5514C49.9481 35.3408 48.9559 34.9726 48.8809 34.2535C48.7801 33.29 48.9128 32.854 48.9646 32.2099ZM60.9625 31.7515C61.1825 31.4636 61.4997 31.2671 61.8799 31.3781C63.0674 31.7251 62.7175 33.4122 62.3003 34.2335C62.0736 34.6796 61.3411 34.7926 61.0099 34.4C60.4704 33.7596 60.2121 32.481 60.898 31.8501C60.9167 31.8178 60.9374 31.7846 60.9625 31.7515ZM50.3263 27.679L50.514 27.6463C51.0943 27.5456 51.816 27.4494 52.2264 27.9162C52.444 28.1638 52.5193 28.6238 52.2264 28.8605C51.7115 29.2778 51.1425 29.1161 50.5256 29.1512C50.0171 29.1804 49.5285 29.2646 49.0387 29.4048C47.964 29.7122 47.0888 30.2729 46.1711 30.889C46.0507 30.9697 45.9276 30.8155 45.985 30.7029C46.515 29.6647 47.5416 28.8122 48.5697 28.2923C49.1185 28.0148 49.719 27.7844 50.3263 27.679ZM59.8802 27.2138L60.0236 27.2434C61.5862 27.57 63.6166 28.2229 64.3566 29.7586C64.3845 29.9758 64.355 30.0225 64.3307 30.0529L64.3227 30.0628C64.3024 30.0888 64.2865 30.1247 64.1924 30.1543C64.1665 30.1479 64.1402 30.1415 64.1135 30.1343C63.7744 30.0457 63.5058 29.9231 63.246 29.7957L62.9642 29.6571C62.6374 29.4966 62.3079 29.3421 61.9584 29.2279C61.2128 28.9847 60.4457 28.8134 59.667 28.7216C59.498 28.702 59.3354 28.6449 59.2071 28.5471C59.0855 28.4545 58.9927 28.3263 58.95 28.1554C58.8951 27.9346 58.911 27.7673 59.0294 27.568C59.1186 27.4183 59.2457 27.3148 59.3924 27.2553C59.5414 27.1943 59.7112 27.1803 59.8802 27.2138Z" fill="black"/>
</svg>
