<svg width="68" height="102" viewBox="0 0 68 102" fill="none" xmlns="http://www.w3.org/2000/svg">
<path fill-rule="evenodd" clip-rule="evenodd" d="M8.42292 101.206C9.42817 101.268 10.4333 101.317 11.4385 101.355C24.5829 101.844 37.7168 100.345 50.8529 100.018C55.4274 99.8971 59.9785 99.9571 64.5415 100.324C64.9887 100.361 65.4998 99.8792 65.445 99.4209C64.6019 92.1412 63.5474 84.8813 63.0009 77.5718C63.0005 77.185 63.0502 76.7991 63.1829 76.435C63.208 76.4064 63.3379 76.086 63.4532 76.0661C63.4155 76.0944 63.5864 76.0451 63.4779 76.0534C64.1373 75.9453 64.7843 75.233 64.3058 74.5514C59.3739 66.9894 52.6411 60.0873 50.4753 51.1056C49.9633 48.6774 48.1151 48.5272 46.146 47.5255C45.5315 47.1598 44.0291 46.1475 43.7846 45.4436C43.2007 42.9061 44.229 40.4207 41.2245 39.394C39.2407 38.8439 35.7346 38.3781 33.7277 38.9584C31.2793 39.7736 31.4625 42.5336 30.0424 44.4324C29.3082 45.5306 28.0562 47.0342 26.8999 47.2028C26.3395 47.2843 25.9268 46.1503 25.3673 46.2282C16.6463 48.3471 4.76461 62.8016 1.01639 70.8032C0.171679 73.3216 2.89585 72.562 2.72847 75.0931C2.52218 79.895 2.07093 86.0419 2.33855 90.8498C2.5892 93.64 2.40369 96.5639 3.27074 99.2492C3.03735 99.5326 3.37266 99.8188 3.64624 99.942C3.99097 100.529 7.38281 101.124 8.42292 101.206Z" fill="white"/>
<path fill-rule="evenodd" clip-rule="evenodd" d="M31.1275 41.408C31.3541 40.3877 32.9773 40.8253 32.6995 41.8417C32.2686 43.4133 31.3751 44.8986 30.1139 45.9412C29.1397 46.7461 27.8122 47.4643 26.4953 47.5967C26.619 47.7171 26.7374 47.8455 26.8618 47.9683C27.142 48.2469 27.4401 48.5057 27.7474 48.7545C28.379 49.2653 29.0356 49.7247 29.753 50.1095C32.6172 51.6469 35.8527 52.0015 39.0519 51.6434C40.5703 51.4736 42.1113 51.1859 43.5386 50.6302C44.2004 50.3734 44.8435 50.0356 45.4115 49.6091L45.5602 49.4974C45.8587 49.272 46.2569 48.9536 46.4434 48.6059C45.8758 48.7334 45.1579 48.1285 44.764 47.7767C44.3332 47.3904 43.9703 46.892 43.7024 46.3812C43.1777 45.3792 42.8999 44.0862 43.3399 43.0118C43.3693 42.9403 43.4631 42.9522 43.4714 43.0297C43.6018 44.2821 43.9393 45.4563 44.838 46.384C45.2366 46.7946 45.7144 47.1392 46.2359 47.3785L46.3094 47.4122C46.5316 47.5148 46.7653 47.6356 46.8591 47.8554C46.8953 47.8515 46.9315 47.8546 46.9656 47.8642C46.9966 47.8725 47.0253 47.8817 47.0531 47.892C46.9911 47.77 46.9581 47.6265 46.9641 47.4568C46.9859 46.7989 47.8886 46.7787 48.0138 47.3642C47.9911 47.287 47.9609 47.3618 48.0178 47.3852C48.017 47.3785 48.0154 47.3709 48.0138 47.3642L48.0154 47.3705L48.0189 47.3852H48.0178C48.0201 47.3959 48.0221 47.4067 48.0233 47.4178L48.0245 47.4325L48.0237 47.4202C48.0229 47.4114 48.0217 47.4031 48.0205 47.396L48.0186 47.3852C48.0273 47.3892 48.0388 47.392 48.0523 47.392L48.0579 47.394C48.079 47.4031 48.1533 47.4377 48.1752 47.4464C48.3254 47.5021 48.4931 47.5196 48.647 47.5673C48.9804 47.6702 49.2742 47.8395 49.4773 48.1285C49.6235 48.3364 49.705 48.5741 49.7384 48.8209C51.2138 49.5308 52.6106 50.4529 53.7803 51.5949C56.3909 54.1419 58.2114 57.33 59.7055 60.6298C60.4658 62.3096 61.1431 64.0251 61.8061 65.7453L61.9107 66.0168C62.6209 67.8659 63.249 69.7352 63.4036 71.7225C63.4179 71.9006 63.359 72.0679 63.2573 72.2067C63.2935 72.3561 63.3121 72.5056 63.307 72.6518C63.3062 72.6745 63.3046 72.6971 63.3026 72.7198C63.5411 72.7158 63.7748 72.8156 63.9962 73.0962C64.086 73.0676 64.1838 73.064 64.2792 73.0954C64.8631 73.2818 64.9569 73.923 65.067 74.4595C65.1803 75.014 65.23 75.582 65.2308 76.1472C65.2308 76.3499 65.1147 76.6051 64.9183 76.6918C64.5491 76.8547 64.1508 76.9612 63.7688 77.1091C63.4815 77.22 63.1937 77.3249 62.9031 77.4235C63.0641 77.7045 63.1162 78.0964 63.2036 78.3929C63.3404 78.8556 63.4505 79.3203 63.5431 79.794C64.1695 83.0156 64.6035 86.2717 65.1898 89.5C65.4827 91.1173 65.8238 92.7235 66.1712 94.3297C66.3425 95.1194 66.5249 95.9072 66.7205 96.6918C66.8246 97.11 66.9327 97.5285 67.0444 97.9443C67.077 98.0659 67.11 98.1871 67.143 98.308L67.2014 98.5198C67.3294 98.5906 67.4383 98.6971 67.5138 98.843C67.7905 99.3776 67.6315 99.9798 67.1017 100.281C66.5257 100.608 65.8381 100.299 65.5205 99.7671C65.2971 99.3919 65.224 98.8947 65.1139 98.4769C64.9899 98.0083 64.8714 97.5369 64.757 97.0659C63.9815 93.8638 63.4616 90.6061 63.0701 87.3361L63.0423 87.1024C62.8435 85.4191 62.6511 83.7314 62.5267 82.0402C62.4655 81.2094 62.4166 80.3787 62.3864 79.546C62.3713 79.1179 62.396 78.6867 62.4202 78.259C62.431 78.0718 62.4472 77.8838 62.4528 77.6962L62.4548 77.6695C62.4564 77.6509 62.4584 77.6258 62.4604 77.5996L62.4623 77.5678C61.8828 77.7494 61.295 77.9005 60.7011 78.0281C59.4384 78.3011 58.1458 78.4534 56.8568 78.3759C57.0368 80.5115 57.2709 82.6415 57.5985 84.7577C57.9141 86.7959 58.2785 88.8298 58.6899 90.851C58.8958 91.8665 59.1184 92.8797 59.3525 93.8893C59.4785 94.4286 59.622 94.9644 59.7357 95.5066C59.8028 95.8289 59.8239 96.0988 59.6884 96.4005C59.8374 96.8059 59.9698 97.2133 60.0998 97.5973L60.1387 97.7118C60.3689 98.3839 60.8053 99.0707 60.3494 99.7313C60.1137 100.072 59.7289 100.267 59.3418 100.279C59.335 100.283 59.3275 100.288 59.3199 100.292C59.1116 100.404 58.8716 100.426 58.643 100.378C58.2964 100.446 57.9486 100.512 57.6 100.571C56.7395 100.72 55.8746 100.843 55.0077 100.946C53.3578 101.142 51.6968 101.25 50.0365 101.31C43.9588 101.529 37.8738 101.144 31.7937 101.255C28.6958 101.311 25.5978 101.451 22.5051 101.636C20.9617 101.728 19.4174 101.827 17.8731 101.904L17.3951 101.927C16.0141 101.993 14.6321 102.044 13.2521 101.943C13.2252 101.941 13.2042 101.931 13.1899 101.915C12.7138 101.862 12.2353 101.423 12.283 100.917C12.4888 98.7591 12.6945 96.602 12.9011 94.4437C13.268 90.599 13.6384 86.7538 14.0129 82.9098L14.067 82.3546C14.1929 81.0596 14.313 79.761 14.374 78.4609C14.0667 78.4391 13.7602 78.4112 13.4536 78.3774C10.132 78.0138 6.94774 77.0089 3.89033 75.6885L3.76648 75.6349C3.49103 75.5148 3.18954 75.3944 2.88055 75.266C2.88567 75.8531 2.86628 76.4413 2.86374 77.0225C2.85956 77.9879 2.86711 78.953 2.86962 79.9173C2.8755 81.905 2.95106 83.8936 3.05015 85.8778C3.224 89.3823 3.42803 92.8821 3.73706 96.3782C3.81517 97.2579 3.92106 98.1359 3.9957 99.0155C4.0403 99.5338 3.93358 99.9654 3.45919 100.238C3.22567 100.372 3.04514 100.316 2.81337 100.208C2.24737 99.942 2.23143 99.3144 2.17769 98.7686C2.13664 98.3569 2.09876 97.9451 2.06179 97.5329C1.98293 96.6533 1.91484 95.7737 1.85944 94.8925C1.64035 91.3911 1.57644 87.893 1.7276 84.3876C1.79775 82.7477 1.89906 81.1045 2.03353 79.4677L2.06517 79.0901C2.17599 77.782 2.24737 76.4096 2.47664 75.0931C1.55207 74.6829 0.635934 74.1614 0.211034 73.2945C-0.339745 72.1685 0.265607 71.2062 1.12801 70.5432C1.11962 70.4315 1.12801 70.3207 1.15154 70.2197C1.39924 69.1469 1.81409 68.0868 2.21462 67.0637C2.61853 66.0355 3.06446 65.0231 3.55486 64.0326C5.52319 60.065 8.21202 56.4393 11.4173 53.3847C13.0094 51.8679 14.7519 50.4656 16.6119 49.2895C17.5339 48.7076 18.4794 48.1698 19.4585 47.6909L19.6033 47.6205C20.2849 47.2894 21.0494 46.9377 21.8074 46.7536C21.8862 46.6948 21.966 46.6392 22.0466 46.5863C22.3447 46.388 22.7495 46.5318 22.9258 46.8148C23.0116 46.7485 23.1106 46.6896 23.2239 46.6368L23.336 46.5855C24.0161 46.279 24.8327 45.9929 25.571 46.194C26.0295 46.3192 26.3904 46.657 26.5526 47.0871C26.9246 46.8904 27.2899 46.6881 27.6468 46.44C28.2204 46.0437 28.7403 45.5513 29.2069 45.0346C30.1434 43.9956 30.8234 42.7785 31.1275 41.408ZM63.6158 74.1706C63.5518 74.1893 63.4846 74.196 63.4151 74.1873C63.5411 74.202 63.2887 74.2767 63.2195 74.3125L63.2144 74.3153C63.0884 74.3872 62.9616 74.4572 62.8332 74.5243C62.5335 74.6821 62.227 74.824 61.9154 74.9576C61.3013 75.2191 60.6674 75.4198 60.0167 75.5669C59.3803 75.7104 58.7126 75.7943 58.0599 75.8078C57.6235 75.8161 57.1052 75.7962 56.6537 75.6675C56.7057 76.4596 56.7634 77.251 56.8282 78.0416L57.7205 77.8369C58.6128 77.6322 59.5039 77.4223 60.3844 77.1671C61.0454 76.9756 61.6968 76.7514 62.3411 76.5093C62.6786 76.3825 63.0136 76.2482 63.3447 76.1035C63.5093 76.0316 63.6635 75.9461 63.8161 75.8594L63.9465 75.7851C63.9163 75.4318 63.8611 75.0848 63.7804 74.735C63.7386 74.5502 63.6671 74.3606 63.6158 74.1706ZM2.51861 70.4399C2.40525 70.808 2.23139 71.1514 1.83507 71.2344C1.6948 71.2639 1.57735 71.248 1.47985 71.2003L1.45648 71.2472C1.13059 71.9165 1.03488 72.6228 1.78467 73.1383C2.12316 73.3709 2.49174 73.5724 2.87296 73.7528C3.55474 74.0776 4.28077 74.3383 4.9653 74.6038L5.10163 74.6571C6.32597 75.1376 7.56959 75.5753 8.83256 75.9413C10.1141 76.3118 11.4181 76.6091 12.7383 76.7983C13.2949 76.8774 13.8558 76.9326 14.4177 76.9688C14.4268 76.2128 14.4227 75.456 14.4201 74.7C14.2203 74.6746 14.0221 74.6479 13.8308 74.6249C13.2479 74.5569 12.6668 74.4739 12.089 74.3705C10.8823 74.1547 9.68824 73.8566 8.52352 73.475C6.3654 72.7667 4.3576 71.7543 2.51861 70.4399ZM26.1799 47.2811C25.6895 46.762 24.7515 46.9492 24.1595 47.2012C23.9806 47.2775 23.8 47.355 23.6288 47.4484L23.5956 47.4667C23.396 47.5816 23.3971 47.6499 23.4945 47.8793C23.6212 48.1806 23.7975 48.4723 23.9655 48.7517C24.6844 49.9525 25.6307 50.9975 26.7116 51.8803C30.5388 55.0052 36.0375 56.1078 40.8239 55.0608C43.1213 54.5592 45.3372 53.5461 47.028 51.8846L47.1823 51.7316C47.8639 51.0487 48.8 50.061 48.7344 49.0494C48.703 48.5629 48.3059 48.5351 47.9005 48.4413C47.7344 48.4024 47.5754 48.3479 47.4378 48.2708C47.5487 48.7486 46.9585 49.4592 46.6532 49.7577C46.0145 50.3834 45.245 50.8723 44.4313 51.2379C42.8828 51.9343 41.1987 52.2634 39.5214 52.4717C37.6186 52.7086 35.6746 52.6875 33.7862 52.3373C32.1426 52.0325 30.5229 51.4553 29.1087 50.5563C28.4605 50.1449 27.8217 49.6751 27.2808 49.1285L27.1659 49.0121C26.7756 48.6166 26.3212 48.138 26.0875 47.6189C25.9985 47.6197 25.9103 47.6169 25.8221 47.611C25.76 47.6078 25.7265 47.5196 25.7886 47.487C25.8582 47.45 25.9279 47.413 25.9976 47.3769C25.9859 47.3379 25.9758 47.3006 25.9674 47.2616C25.9607 47.229 25.9951 47.1988 26.0253 47.2171C26.0673 47.2425 26.1076 47.2692 26.1471 47.2978C26.158 47.293 26.1689 47.287 26.1799 47.2811Z" fill="black"/>
<path fill-rule="evenodd" clip-rule="evenodd" d="M30.2714 8.22148C42.9994 7.59534 51.6353 17.6368 52.0065 21.641C52.2645 24.4206 52.0896 28.1276 52.0896 30.6114C52.0896 31.879 52.7291 35.7329 52.0065 37.5807C50.3987 41.6934 48.5823 44.9149 43.5491 44.9149C38.5162 44.9149 30.8434 42.3055 28.2086 38.9393C27.7276 38.3248 21.7499 33.8262 21.7499 30.2903C21.7499 22.7461 21.1895 8.66828 30.2714 8.22148Z" fill="white"/>
<path fill-rule="evenodd" clip-rule="evenodd" d="M21.5882 0.0733299C22.3136 -0.153469 22.7765 0.173057 23.1068 0.678922C23.1796 0.664732 23.2501 0.665645 23.3285 0.684565C23.3479 0.689255 23.3948 0.706982 23.4303 0.720934C23.4578 0.73246 23.4826 0.746372 23.5064 0.761158L23.5206 0.753686C23.575 0.694303 23.6322 0.640128 23.6939 0.596446C23.8326 0.498309 23.9756 0.46977 24.1112 0.489922L24.174 0.46683C24.7109 0.279659 25.293 0.366506 25.6571 0.829206C25.7275 0.918597 25.7844 1.01817 25.8331 1.12318C25.9422 1.15895 26.0447 1.2107 26.1329 1.27438C26.1949 1.2452 26.2603 1.22068 26.3307 1.20263C26.7266 1.101 27.1427 1.19691 27.4655 1.43984C27.6229 1.55805 27.7385 1.70607 27.826 1.87508C27.9258 1.89853 28.0247 1.9407 28.1169 1.99734C28.1964 1.95775 28.2771 1.92063 28.3598 1.89519C28.6623 1.80226 28.9866 1.76808 29.3014 1.79153C29.9795 1.84181 30.6353 2.61677 30.1822 3.28222L30.1683 3.30237C30.1107 3.38258 30.0606 3.46549 30.0141 3.54976C30.1766 3.62043 30.3329 3.71491 30.4775 3.83335C31.1838 4.41259 31.2474 5.30556 31.1155 6.14796L31.1095 6.18302H31.1115C31.4867 6.21867 31.8107 6.61086 31.5893 6.97976L31.5781 6.99705C31.278 7.46102 31.0209 7.97352 30.7339 8.46178C29.9405 8.748 29.175 9.10048 28.4544 9.52756C28.0056 9.92086 27.5784 10.3367 27.2023 10.7993C27.0147 11.0303 26.8422 11.2749 26.684 11.5284C26.8104 11.5893 26.9674 11.5862 27.0998 11.4636C28.2767 10.3722 29.6993 9.60634 31.2137 9.09308C31.3226 9.05604 31.3941 8.98632 31.4343 8.90381C32.1064 8.71218 32.7908 8.56357 33.4816 8.4584C33.672 8.27687 33.8716 8.10334 34.0612 7.92252C34.3032 7.69187 34.6065 7.69521 34.8331 7.84013C34.9455 7.78881 35.0608 7.7435 35.1777 7.7028L35.25 7.67808C35.2802 7.66818 35.3092 7.65665 35.339 7.64759C36.1495 7.39965 36.8912 7.4917 37.6885 7.69541L37.7907 7.722C38.1623 7.82069 38.3964 7.80491 38.7565 7.71409L38.7971 7.70372C39.1794 7.60391 39.5884 7.52998 39.9795 7.63507C40.3885 7.74505 40.66 7.98966 40.9386 8.28522L40.9665 8.31491C41.0964 8.45407 41.1716 8.46925 41.3417 8.46587L41.5241 8.46047C42.2122 8.44159 42.8859 8.47064 43.4014 9.00302C43.5918 9.19993 43.7965 9.47855 43.9189 9.7329L43.9368 9.77086C43.9428 9.78318 43.9475 9.79351 43.9523 9.80277C44.0262 9.79085 44.1411 9.74403 44.1959 9.73338C44.946 9.58786 45.5716 9.81207 46.0533 10.4032C46.1587 10.5326 46.3177 10.7866 46.4278 10.9263C46.4663 10.959 46.5029 10.9941 46.5375 11.031C46.7183 11.1465 46.9743 11.1392 47.177 11.1797C47.7295 11.2898 48.3201 11.4999 48.6011 12.0259C48.7184 12.2454 48.7617 12.4856 48.8114 12.7255C48.997 12.8476 49.1425 13.0235 49.2558 13.2139C49.3929 13.4451 49.4513 13.7283 49.6095 13.9466C49.7244 14.1052 49.9001 14.1899 50.067 14.2868L50.131 14.3243C50.6259 14.6192 51.0134 14.9464 51.1764 15.5241L51.1907 15.5755C51.2169 15.664 51.3099 15.9165 51.2288 15.8786C51.2984 15.917 51.4169 15.9305 51.4804 15.9515C51.8235 16.0652 52.1224 16.2488 52.3052 16.5713C52.4443 16.8168 52.4694 17.0727 52.5095 17.3432L52.5262 17.4525C52.5306 17.4789 52.5357 17.5096 52.5413 17.5394L52.5465 17.5686L52.5477 17.5693C52.6097 17.5962 52.6709 17.6253 52.7309 17.6567C53.0155 17.8244 53.2103 18.1153 53.2103 18.452C53.2103 18.6155 53.159 18.7429 53.0847 18.8566C53.1447 18.9476 53.1912 19.0446 53.2266 19.1528C53.2957 19.3638 53.3005 19.5947 53.277 19.8131C53.2492 20.0752 53.182 20.3139 53.1029 20.5642C53.0723 20.6608 53.06 20.7958 53.0139 20.888C53.099 20.9962 53.1494 21.1283 53.1335 21.2587C53.1113 21.4452 53.0262 21.6632 52.8573 21.7678C52.7746 22.1752 52.597 22.5915 52.4221 22.9246C52.4018 22.9633 52.3775 22.9977 52.3509 23.0263C52.3752 24.3561 52.2778 25.6952 52.271 27.0233C52.2635 28.4691 52.2937 29.9159 52.3442 31.3595C52.4288 33.7531 52.7321 36.2277 52.0258 38.5617C51.4479 40.472 50.2908 42.1116 48.7391 43.3549C47.1504 44.6268 45.2349 45.3629 43.2011 45.4778C42.1664 45.5358 41.1143 45.4181 40.1135 45.1502L40.0066 45.1212C39.0379 44.8549 37.9163 44.4483 37.2036 43.7364C36.8276 43.36 37.208 42.5627 37.7597 42.7821C38.3062 42.9995 38.7967 43.3215 39.3392 43.548C39.8237 43.7507 40.3293 43.9061 40.8413 44.0202C41.8683 44.2512 42.9574 44.3016 44.0012 44.1581C47.77 43.6422 50.7066 40.5113 51.2861 36.7989C51.4463 35.7711 51.4435 34.7261 51.4324 33.6871L51.4204 32.5491C51.4113 31.5968 51.4081 30.644 51.4431 29.6921C51.4876 28.4675 51.5739 27.2434 51.6899 26.0237L51.7503 25.389C51.8219 24.6464 51.9026 23.8981 52.0417 23.1657C51.9276 23.1717 51.0285 21.633 50.5297 20.7732C50.3476 20.6287 50.1938 20.4492 50.1346 20.2169C50.1223 20.1685 50.1159 20.1196 50.1119 20.0706C50.0034 19.9003 49.8894 19.7344 49.7685 19.5734L49.7423 19.5617C49.722 19.5525 49.7065 19.5447 49.697 19.5395C49.4339 19.3902 49.2141 19.1641 49.0638 18.902C49.0129 18.8136 48.9716 18.7214 48.9378 18.627C48.7232 18.4164 48.4986 18.2155 48.2629 18.0271C48.2398 18.0086 48.216 17.9913 48.1925 17.973C47.8924 17.861 47.6289 17.6921 47.4366 17.4489C47.3563 17.3992 47.2756 17.3505 47.1941 17.3027C46.9492 17.3005 46.702 17.2434 46.4615 17.1446C46.0215 16.9638 45.6702 16.6065 45.2282 16.4409C44.7608 16.2659 44.2679 16.6637 43.7714 16.5919C43.6447 16.5736 43.519 16.535 43.4018 16.4791C43.1224 16.7755 42.8255 17.0548 42.4983 17.2994C42.023 17.6544 41.5372 17.8166 40.9867 17.977C40.7141 18.236 40.4084 18.4871 40.04 18.5239C39.1874 19.2057 38.2756 19.7808 37.3161 20.3148C37.1619 20.4007 37.0084 20.4394 36.863 20.4404C36.5617 20.6294 36.2334 20.7748 35.8864 20.8754C35.7775 20.907 35.6654 20.9136 35.5553 20.9001L35.254 21.1454C35.0445 21.3162 34.8207 21.3977 34.6069 21.403C34.4769 21.5027 34.3422 21.5971 34.2031 21.6878C34.0544 21.7851 33.8616 21.8255 33.6677 21.8137C33.3719 22.1034 32.988 22.1338 32.6664 22.0004C32.6223 22.0262 32.577 22.0508 32.5257 22.0749C32.4566 22.1077 32.3842 22.1355 32.3103 22.1579C31.9752 22.5193 31.4843 22.7088 30.9927 22.6592C30.6258 22.8842 30.1981 23.0012 29.7804 22.9749C29.7168 23.2952 29.6639 23.6166 29.6194 23.9391L29.615 24.1753C29.6142 24.2136 29.6142 24.2434 29.6146 24.2631L29.615 24.2709C29.656 25.3066 29.6782 26.3428 29.7188 27.3787L29.7223 27.4605C29.7684 28.3653 29.991 30.0156 28.6611 29.9795C28.1658 29.9663 27.6741 29.6011 27.2882 29.301L27.2337 29.2584C27.2043 29.2354 27.1741 29.2119 27.1435 29.1881C26.855 29.1503 26.5708 29.0804 26.2794 29.0696C25.9201 29.0569 25.5423 29.0939 25.1921 29.1754C24.5741 29.3193 23.9762 29.6007 23.5731 30.1106C23.5378 30.1551 23.5051 30.202 23.474 30.2489C23.4455 30.3455 23.3967 30.435 23.3321 30.5121C22.9508 31.3698 23.1709 32.503 23.5924 33.2876C24.0946 34.2221 24.8892 34.8684 25.8885 35.1935L25.9386 35.2098C26.6212 35.4229 26.8824 35.8362 27.2536 36.411C27.6014 36.9504 28.0001 37.4528 28.4286 37.9297C29.2573 38.8531 30.4203 39.615 30.9024 40.7836C30.9998 41.0189 30.7208 41.2407 30.505 41.1803C29.6595 40.9422 29.0665 40.34 28.452 39.741C28.0267 39.3261 27.6173 38.8948 27.2337 38.4417C27.1531 38.4786 27.0644 38.5037 26.9722 38.5152C26.5648 38.5649 26.1449 38.5442 25.7883 38.3244C25.624 38.3395 25.4527 38.2823 25.3256 38.1658C25.209 38.0589 25.1084 37.9428 25.0234 37.8192C24.8943 37.8308 24.7675 37.8343 24.6464 37.8141C24.5881 37.8085 24.5316 37.7934 24.4798 37.768C24.3835 37.7302 24.2922 37.6714 24.2084 37.5815C24.0387 37.3991 23.9735 37.1415 24.0049 36.8967C23.9713 36.8895 23.938 36.8812 23.905 36.8701C23.679 36.7934 23.505 36.6415 23.3938 36.4344C23.1949 36.3227 23.0158 36.1717 22.8801 36.0107C22.715 35.8152 22.5903 35.5946 22.5171 35.3509C22.4415 35.3159 22.368 35.275 22.2976 35.2273C21.7934 34.8863 21.5047 34.2452 21.7027 33.6529L21.7094 33.6342C21.7194 33.6076 21.7376 33.5619 21.7599 33.5106C21.7568 33.4689 21.7534 33.4271 21.7511 33.3854L21.7442 33.2594L21.6431 33.2165C21.1393 33.0158 20.7987 32.7451 20.7382 32.1783C20.7256 32.061 20.7711 31.9414 20.8429 31.8412L20.8425 31.8098C20.8098 31.7927 20.7786 31.7756 20.7512 31.7582C20.4765 31.5825 20.3077 31.2681 20.3266 30.9429C20.3439 30.6464 20.5081 30.4099 20.6927 30.1913L20.7455 30.1301C20.7498 30.1249 20.7547 30.1194 20.76 30.1134L20.6379 30.0753C20.5588 30.0498 20.4863 30.0248 20.4341 29.9958C20.2322 29.8825 20.0611 29.7295 19.9555 29.5351C19.9401 29.5108 19.9245 29.4874 19.9104 29.4615C19.7742 29.2127 19.7564 28.894 19.8443 28.6269C19.8547 28.5955 19.8681 28.566 19.8819 28.5362C19.5107 28.4055 19.225 28.1352 19.1905 27.6364C19.177 27.4405 19.2199 27.2452 19.3132 27.0779C19.2925 26.9652 19.2883 26.8485 19.3016 26.733C19.171 26.6096 19.0696 26.4609 19.0242 26.2795C18.9385 25.9368 19.0955 25.6108 19.3287 25.3118C19.2424 25.0754 19.238 24.8087 19.3365 24.5707C19.2986 24.452 19.277 24.3263 19.2758 24.1974C19.2732 23.9119 19.3611 23.6734 19.5032 23.4705C19.3036 23.2264 19.2088 22.9019 19.3266 22.5979C19.4106 22.3819 19.5064 22.1842 19.617 22.001C19.5589 21.8618 19.5251 21.7058 19.5251 21.5311C19.5251 21.217 19.6429 20.968 19.823 20.7643C19.7448 20.3922 19.9038 19.9391 20.2503 19.7753C20.3809 19.7135 20.5557 19.649 20.7483 19.5987C20.8206 19.3728 20.8961 19.1477 20.9758 18.9242C21.1013 18.5725 21.2364 18.2256 21.3795 17.8828C21.2971 17.955 21.2107 18.0223 21.1213 18.0833C20.8388 18.4426 20.4641 18.754 20.1493 18.9402C19.5253 19.3095 18.8115 19.0904 18.5034 18.4726C18.2138 18.6888 17.8664 18.8168 17.4956 18.773C17.0752 18.7234 16.6909 18.451 16.5859 18.0262C16.5707 17.9647 16.5616 17.8983 16.5607 17.8314C16.3196 18.0031 16.0673 18.1611 15.7906 18.2516C15.4382 18.3669 15.0784 18.0904 15.0319 17.746C15.0135 17.6095 15.0391 17.4888 15.0934 17.3869L15.059 17.3734C15.0532 17.371 15.0476 17.3685 15.0419 17.3658C14.8571 17.2792 14.7136 17.1205 14.6454 16.9373C14.2452 17.0922 13.787 16.9107 13.6601 16.4704C13.5089 15.947 13.4997 15.417 13.618 14.9071C13.194 14.5989 12.9177 14.0805 12.8707 13.5387C12.8363 13.1497 12.9291 12.7907 13.0926 12.4587C12.6916 12.3087 12.5537 11.7828 12.7443 11.4039C12.4911 11.2589 12.3261 10.9516 12.3224 10.6523C12.2092 10.4809 12.173 10.2603 12.2668 10.013C12.3905 9.68707 12.6424 9.41448 12.9309 9.20068C12.8051 8.98159 12.7116 8.74267 12.6536 8.4958C12.4147 8.42581 12.2218 8.23243 12.1824 7.94204C12.1332 7.57795 12.3728 7.26932 12.6953 7.18783C12.731 7.07694 12.7747 6.96847 12.8287 6.86433C12.6692 6.48629 12.6927 6.00829 12.8984 5.59496C13.0806 5.22956 13.3771 5.0061 13.7339 4.85152C13.6432 4.5407 13.7633 4.23071 14.0656 3.9997C14.4347 3.71737 14.8394 3.50154 15.2648 3.34907C15.227 2.84309 15.4384 2.32494 15.9381 2.14854C16.0718 2.1014 16.2108 2.08403 16.3521 2.08463C16.4548 1.86141 16.626 1.67996 16.8494 1.51934C17.1876 1.2764 17.8195 1.42482 18.007 1.8058L18.0162 1.82536C18.0258 1.84694 18.036 1.86669 18.0459 1.8876C18.0837 1.70261 18.172 1.52788 18.314 1.38467C18.669 1.02655 19.0437 1.01983 19.4044 1.17298C19.4706 1.00882 19.5507 0.852736 19.6481 0.710003C20.0017 0.192214 20.5859 0.126273 21.0137 0.406652C21.1852 0.25589 21.3765 0.139629 21.5882 0.0733299ZM24.1163 31.212C24.8283 30.933 25.6924 31.0153 26.3963 31.2832L26.4475 31.3034C27.0692 31.5491 28.0792 32.096 28.2008 32.7952C28.2636 33.1577 27.9194 33.4709 27.57 33.2801C27.2659 33.1147 27.0954 32.7813 26.8538 32.5392C26.6145 32.2999 26.3466 32.1075 26.0544 31.9386C25.4448 31.5864 24.804 31.4497 24.1163 31.348C24.0391 31.3372 24.06 31.2335 24.1163 31.212Z" fill="black"/>
<path fill-rule="evenodd" clip-rule="evenodd" d="M46.3305 36.359C46.3889 36.3431 46.4402 36.4214 46.3921 36.4643C46.1942 36.6396 46.069 36.9667 45.9247 37.1897C45.7872 37.4015 45.6552 37.6114 45.5344 37.8332C45.3992 38.082 45.2684 38.33 45.1631 38.5932L45.1424 38.646C45.1739 38.7212 45.1985 38.7955 45.2168 38.844L45.2219 38.8579C45.4016 39.3174 45.0244 39.8277 44.5983 39.9565C43.8701 40.1759 43.2449 39.5777 43.2278 38.8658C43.2139 38.3062 43.5935 37.8074 43.9786 37.4373C44.3161 37.1138 44.6933 36.8379 45.1158 36.6364C45.3022 36.5474 45.4958 36.4726 45.6981 36.4297C45.9048 36.3856 46.1282 36.4134 46.3305 36.359ZM44.958 38.3877C45.0117 38.4127 45.057 38.4743 45.0955 38.5463C45.0765 38.4855 45.0367 38.4246 44.958 38.3877ZM45.4139 30.6091C46.0479 30.9947 47.0142 31.8937 46.3321 32.8497C45.5292 33.6927 44.3729 32.7265 43.8034 32.2892C43.2751 31.9506 42.6813 32.8219 43.1714 33.2173C47.2884 36.2664 48.959 30.7101 45.7347 30.156C45.3793 30.0948 45.2478 30.4899 45.4139 30.6091ZM40.2011 26.9066L40.3131 26.8972C40.7993 26.8544 41.2913 26.7891 41.7707 26.8991C42.4142 27.0469 42.3673 27.9838 41.7707 28.1563C41.2448 28.3081 40.6621 28.2422 40.1192 28.2477C40.0337 28.2485 39.9487 28.2505 39.8632 28.2521C39.8465 28.4552 39.7797 28.6301 39.678 28.805C39.6048 28.9306 39.5118 29.0498 39.42 29.1611C39.2018 29.4262 38.6879 29.4203 38.4677 29.1611C38.3051 28.9695 38.1755 28.7489 38.1735 28.4894C38.1727 28.423 38.1811 28.3527 38.197 28.2831L37.9005 28.2883C37.1755 28.2994 36.4449 28.2942 35.7327 28.1794C35.4795 28.2314 35.2724 27.7743 35.6218 27.6376C36.5721 27.2658 37.6338 27.1563 38.6422 27.0446C39.1605 26.9872 39.6816 26.9476 40.2011 26.9066ZM48.2972 26.5224L48.323 26.5198C48.9518 26.4554 49.645 26.3438 50.2754 26.408C51.2162 26.5037 51.2147 27.7759 50.2754 27.8713C49.9304 27.9063 49.5671 27.8892 49.205 27.8558C49.3903 28.2489 49.1705 28.7179 48.7245 28.778C48.3099 28.834 47.8799 28.4306 48.0162 27.9985L48.0225 27.9794C48.0488 27.9043 48.0726 27.8204 48.1012 27.7378L47.951 27.725C47.5027 27.6853 46.8802 27.6046 46.7149 27.2502C46.6652 27.1434 46.6767 27.0443 46.7534 26.9531C47.0678 26.5787 47.8429 26.5664 48.2972 26.5224ZM41.6097 23.6092C42.0652 23.4438 42.5382 23.8309 42.597 24.2672C42.665 24.7699 42.3025 25.1009 41.843 25.1609L41.82 25.1637C40.806 25.2754 39.7996 25.4797 38.7845 25.5952C38.323 25.6476 37.8583 25.6821 37.3941 25.6945L37.0626 25.7019C36.656 25.7122 36.22 25.7215 35.8443 25.5815L35.8459 25.5789C35.7462 25.55 35.7005 25.4062 35.8114 25.3276C36.2108 25.0449 36.7498 24.938 37.2148 24.8037C37.6827 24.6685 38.1537 24.544 38.6263 24.427C39.6184 24.1815 40.6486 23.9585 41.6097 23.6092ZM45.8078 23.7268C45.9283 23.0907 46.8289 23.0225 47.1596 23.4853C47.3735 23.5588 47.6867 23.6354 47.881 23.693C48.2197 23.7934 48.5583 23.8932 48.8978 23.9899C49.6005 24.1902 50.2862 24.444 50.9774 24.6806C51.0485 24.7051 51.029 24.7955 50.9607 24.8045C49.996 24.93 49.0476 24.9885 48.0774 24.9482L47.8787 24.9393C47.0237 24.9059 45.5721 24.9695 45.8078 23.7268Z" fill="black"/>
</svg>
