<svg width="67" height="102" viewBox="0 0 67 102" fill="none" xmlns="http://www.w3.org/2000/svg">
<path fill-rule="evenodd" clip-rule="evenodd" d="M2.9463 97.1566C2.83033 97.16 2.86687 97.1286 2.90951 97.1212C2.92177 97.1331 2.93403 97.1451 2.9463 97.1566ZM6.37085 99.5109C9.61146 99.8659 12.8561 99.5411 16.0808 99.2152C22.6136 98.7674 29.1005 100.072 35.6463 99.6742C43.8266 99.3554 52.0291 98.757 60.182 99.7656C62.4372 99.8137 66.034 100.376 65.2164 97.148C64.1422 88.8484 62.7058 80.5904 61.1674 72.3545C59.8633 67.7373 59.7689 59.7512 56.1987 56.5404C55.6768 56.0997 53.8043 54.6738 53.3094 54.4826C50.8481 53.635 46.4114 52.9739 44.5809 51.1778C43.0986 48.8578 43.7883 45.6922 41.4827 43.8245C39.4622 42.2991 35.0522 42.6216 32.8921 43.7671C31.1875 44.7891 30.9205 46.7739 29.8584 48.2419C29.5966 48.5935 28.9742 49.4414 28.6229 49.7151C27.7678 50.4765 24.7637 51.2763 23.8962 51.4235C19.0006 52.3512 16.5596 52.9243 12.7092 55.9326C2.64841 65.4307 4.07456 82.2299 1.29071 94.6502C1.1768 96.0153 0.279191 97.8684 1.8806 98.7473C3.25988 99.3584 4.88157 99.292 6.37085 99.5109Z" fill="white"/>
<path fill-rule="evenodd" clip-rule="evenodd" d="M43.4588 48.0204C43.4709 47.9879 43.527 47.9823 43.5354 48.0204C43.6726 48.6009 43.9299 49.2378 44.1909 49.7822C44.4559 50.334 44.8181 50.8407 45.2755 51.271C46.2344 52.1726 47.4674 52.5839 48.8199 52.5846L48.8522 52.5854C48.8583 52.5436 48.8655 52.5015 48.872 52.4594L48.8812 52.3963C49.0047 51.5328 50.1135 51.5578 50.3297 52.2095C50.4399 52.242 50.5496 52.274 50.6589 52.308L50.6807 52.3154C50.8642 52.3799 51.4862 52.6663 51.6004 52.5902C51.8521 52.4232 52.1392 52.6145 52.2344 52.8281C52.3905 53.1779 52.4168 53.61 52.4672 53.9892L52.474 54.0385L52.4817 54.0977C56.0394 54.9527 58.0361 58.2444 59.0554 61.277C59.6076 62.9209 59.969 64.6167 60.332 66.3032C60.7205 68.1072 61.0787 69.9156 61.4578 71.7203C62.2053 75.2767 62.9124 78.8413 63.5267 82.419L63.705 83.4582C64.2677 86.748 64.8163 90.0359 65.2773 93.3407C65.5262 95.1226 65.7594 96.906 65.9844 98.6909C66.0248 99.009 66.0647 99.3274 66.1042 99.6462L66.1635 100.124C66.2164 100.553 66.3059 100.977 66.0764 101.378C65.5799 102.248 64.0749 102.242 63.9894 101.128C63.9724 100.906 64.0535 100.737 64.1874 100.618L64.1854 100.6C64.1842 100.588 64.1826 100.58 64.1822 100.577C64.1378 100.355 64.1257 100.121 64.0987 99.8972C64.039 99.4199 63.9809 98.9423 63.9224 98.4639C63.8091 97.553 63.6945 96.642 63.5763 95.7319C63.3367 93.8854 63.0838 92.0412 62.8152 90.1989L62.5494 88.377C61.6595 82.3045 60.7322 76.2331 59.512 70.2086C59.18 68.5688 58.8384 66.9311 58.4879 65.2946C58.1555 63.7442 57.7824 62.2013 57.2249 60.705C56.3149 58.2604 54.7236 55.971 52.5148 54.3666C52.5491 54.6731 52.5737 54.9811 52.6051 55.2876C52.6862 56.0751 52.7721 56.8614 52.8593 57.6478C53.1755 60.4977 53.6039 63.3426 54.3352 66.1291C54.6974 67.5098 55.1387 68.8723 55.6764 70.2034C55.9414 70.8589 56.2306 71.5059 56.5472 72.1412C56.8611 72.7691 57.4109 73.4407 57.4439 74.1405C57.4593 74.4642 57.093 74.752 56.7538 74.7174C56.9123 76.0067 57.0018 77.3092 57.0962 78.5952C57.2342 80.4581 57.3443 82.3243 57.5052 84.186C57.7933 87.5202 58.1547 90.8495 58.533 94.1759C58.6081 94.8355 58.6895 95.4943 58.7702 96.1532L58.8376 96.7065C58.8832 97.0652 58.9521 97.4948 58.746 97.8129C58.9303 98.2234 59.0562 98.6451 59.1296 99.0847C59.2224 99.6317 58.8844 100.245 58.1938 100.221C58.1155 100.219 58.0369 100.213 57.9586 100.205C57.3185 100.342 56.6804 100.462 56.0156 100.466C55.1669 100.472 54.3162 100.456 53.4675 100.451C51.8254 100.44 50.1833 100.43 48.5412 100.417C42.5964 100.373 36.6487 100.376 30.7051 100.288L28.3268 100.253C26.1466 100.22 23.966 100.183 21.7868 100.109C20.2861 100.059 18.7855 100.008 17.2855 99.9516L16.9802 99.9408C15.6567 99.8964 14.3318 99.8733 13.0229 99.6861C12.9901 99.6809 12.9759 99.6496 12.981 99.622L12.9829 99.6146L12.9258 99.6026C12.8925 99.735 12.2023 99.1787 12.2074 98.8092C11.921 98.4646 12.0548 97.9146 12.0855 97.5157C12.1153 97.1275 12.1529 96.7379 12.1861 96.3493C12.2568 95.5197 12.3173 94.689 12.3897 93.8593C12.6821 90.5132 12.9343 87.1585 13.0979 83.8053C13.1806 82.1147 13.2471 80.4238 13.3169 78.7332C13.3484 77.9636 13.3922 77.1932 13.4738 76.4273L13.4951 76.2357C13.5845 75.459 13.576 74.6234 13.8854 73.8915C13.8896 73.881 13.9041 73.881 13.9083 73.8915C14.2211 74.6036 14.2509 75.4322 14.314 76.2137C14.3251 76.2107 14.3362 76.2092 14.3481 76.2066C14.7801 76.0168 15.2165 75.8457 15.6255 75.6111C15.6809 75.5794 15.7346 75.5463 15.7891 75.5142C16.4325 73.6935 17.1782 71.9033 17.8642 70.0945C20.0807 64.2465 21.3045 58.0185 21.5755 51.8259C19.8847 52.8337 18.0434 53.6179 16.2533 54.4598L16.0857 54.5392C14.3225 55.373 12.6344 56.3193 11.3791 57.7653C10.2849 59.0248 9.56989 60.5592 8.9009 62.0384C8.1825 63.6279 7.53486 65.2458 6.94259 66.8786C5.741 70.1915 4.81043 73.5857 4.08437 77.0146C3.36767 80.3984 2.85551 83.8075 2.51293 87.2405C2.33823 88.9915 2.17886 90.744 2.04506 92.4991C1.9769 93.3873 1.91639 94.2762 1.86016 95.1659C1.83289 95.5976 1.81244 96.0305 1.78175 96.4623C1.76299 96.7114 1.7596 96.9679 1.67098 97.2043C1.59684 97.4016 1.46559 97.5664 1.34288 97.7405C1.11877 98.0582 0.552887 98.1156 0.342409 97.7405L0.251288 97.5779C0.13064 97.3617 0.0204401 97.1435 0.00410368 96.8941C-0.0112243 96.6577 0.0202788 96.4109 0.0347597 96.1737C0.0629148 95.6938 0.0952652 95.2132 0.127656 94.7333C0.195825 93.7236 0.271699 92.7142 0.35689 91.7056C0.526506 89.6851 0.744647 87.6697 1.01906 85.6588C1.98456 78.5952 3.37876 71.5689 6.03929 64.8658C6.69714 63.2084 7.43091 61.5644 8.25922 59.9734C9.06027 58.4353 10.0735 56.983 11.5444 55.9237C12.8984 54.9486 14.4722 54.2957 16.036 53.6622L16.2314 53.5832C17.9843 52.8747 19.7339 52.1118 21.5644 51.5854C21.5235 51.5902 21.4834 51.595 21.4486 51.6059C21.4084 51.6178 21.3846 51.5697 21.4094 51.5436C21.5132 51.4373 21.5567 51.3277 21.6761 51.2229C21.7585 51.1506 21.8443 51.082 21.9325 51.016L22.0594 50.9224C22.2917 50.752 22.5358 50.5779 22.8282 50.5186C23.2416 50.4347 23.4444 50.7826 23.3284 51.0544C23.3881 50.9824 23.5483 51.0037 23.59 51.1025C24.9501 54.3461 25.8432 57.7794 27.6738 60.8444C29.0251 63.1085 30.8386 65.1992 33.2451 66.5665C34.5379 67.301 36.0175 67.8652 37.5454 67.9543C38.9173 68.0337 40.2375 67.7115 41.404 67.0456C43.6657 65.7555 45.1428 63.4907 46.196 61.296C47.3541 58.8798 48.1806 56.3051 48.6663 53.695C47.1274 53.7148 45.503 53.0653 44.4797 52.0071C43.9412 51.45 43.5399 50.7714 43.3362 50.048C43.1304 49.3183 43.1962 48.7184 43.4588 48.0204ZM30.5474 46.1251C30.7349 45.8152 31.1504 45.7127 31.4905 45.8387C31.868 45.9793 31.9814 46.3182 31.9277 46.6624C31.8656 47.0658 31.5853 47.5017 31.367 47.8541C31.1387 48.2228 30.8447 48.5625 30.5405 48.8798C29.9677 49.479 29.355 50.0189 28.6282 50.46C27.9045 50.8989 27.0865 51.2278 26.2455 51.4112L26.0454 51.4545C25.3913 51.5928 24.4604 51.7513 23.9155 51.4224C23.8892 51.4064 23.8899 51.3743 23.9155 51.3583C24.2103 51.1685 24.605 51.1346 24.9441 51.0451C25.3139 50.9463 25.6847 50.8344 26.0381 50.6942C26.7364 50.4168 27.4043 50.051 27.9993 49.6144C28.5967 49.1763 29.1743 48.6539 29.5741 48.0509C29.7753 47.7485 29.9464 47.4309 30.1109 47.1109C30.2771 46.7899 30.3606 46.4338 30.5474 46.1251Z" fill="black"/>
<path fill-rule="evenodd" clip-rule="evenodd" d="M52.1127 31.1238C51.5278 24.5298 49.7465 18.6895 41.3779 18.4404C37.6011 18.4716 33.7457 19.2136 30.2727 20.5864C21.8314 24.5004 19.1531 38.8021 26.5904 44.5592C26.546 44.5824 26.5351 44.6498 26.5876 44.6823C28.124 45.6379 29.8319 46.4247 31.5426 47.0854C36.0986 48.8666 41.4626 49.6403 46.109 47.7081C53.2006 44.9179 53.3067 37.1537 52.1127 31.1238Z" fill="white"/>
<path fill-rule="evenodd" clip-rule="evenodd" d="M66.0704 28.0505C66.362 27.8077 66.579 27.4893 66.6891 27.1323C66.7896 26.8069 66.7964 26.4515 66.6899 26.1268C66.5758 25.7785 66.3293 25.5011 66.385 25.1386C66.391 25.1031 66.3987 25.0661 66.4104 25.029C66.6234 24.3466 67.1478 23.854 66.9602 23.0975C66.9073 22.8839 66.8077 22.6916 66.6685 22.5403C66.6839 22.3764 66.6976 22.2109 66.7089 22.0454C67.0163 21.3795 67.0054 20.5883 66.677 19.9327C66.6371 19.5969 66.5766 19.2644 66.4915 18.9373C66.5306 18.6481 66.4761 18.3297 66.3757 18.0768C66.199 17.6316 65.9804 17.193 65.7436 16.7616C65.7715 16.6437 65.759 16.519 65.6888 16.4081C65.5605 16.2066 65.3915 16.0295 65.2184 15.8563C65.0962 15.6544 64.9732 15.454 64.851 15.2563C64.7945 15.1654 64.732 15.0646 64.663 14.9578C64.8506 14.6359 64.951 14.3221 64.7526 13.9434C64.6779 13.8011 64.473 13.6962 64.304 13.7056C64.1197 13.7157 63.9333 13.7234 63.7462 13.7299C63.396 13.3392 62.9995 12.9884 62.5748 12.7865C62.1444 12.4492 61.7079 12.1183 61.2836 11.7802C61.1634 11.684 61.0424 11.5879 60.9226 11.4917C60.9214 11.4894 60.9206 11.4862 60.9198 11.4839C60.831 11.1852 60.7314 10.8904 60.6318 10.5941C60.5696 10.4105 60.5507 10.2182 60.3575 10.1182C59.9533 9.90932 59.3321 9.87621 58.8686 9.84075C58.8226 9.80294 58.7767 9.76591 58.7307 9.72807C58.9412 9.20952 58.9037 8.65868 58.6387 8.13935C58.5484 7.96283 58.2345 7.88322 58.0623 7.99986C57.6654 8.26937 57.1943 8.36471 56.728 8.32534C56.0426 7.83829 53.2792 5.63598 52.852 5.4035C52.8468 5.39515 52.8427 5.3868 52.8371 5.37852C52.5971 5.02407 52.3054 4.73942 51.9775 4.51119C51.9307 4.46603 51.8839 4.4208 51.8371 4.37558C51.8783 4.10536 51.9868 3.84442 52.161 3.62611C52.18 3.6009 52.201 3.57648 52.2223 3.55284C52.5277 3.21711 52.155 2.78525 51.729 2.96102C51.6984 2.97363 51.6677 2.98623 51.6371 2.99962C51.3095 3.13471 50.9469 3.28151 50.5693 3.40541C50.4314 3.35757 50.2906 3.31421 50.1623 3.26644L48.7873 2.75524C48.5606 2.67108 48.3214 2.59975 48.1023 2.50087C48.0261 2.03124 47.5171 1.72329 46.9887 1.73936C47.0193 1.6492 47.0649 1.56165 47.129 1.47869C47.1476 1.45423 47.1681 1.43059 47.1895 1.40773C47.4614 1.11536 47.0984 0.573174 46.7095 0.83325C46.6825 0.851372 46.6543 0.869493 46.6268 0.887615C46.5191 0.957677 46.4086 1.02341 46.2969 1.0871C46.1178 1.01491 45.9165 0.998431 45.7055 1.07479C45.2388 1.24382 44.8084 1.41571 44.3974 1.68063C44.3809 1.69144 44.3635 1.70051 44.3466 1.71068C44.1425 1.48275 43.8186 1.33036 43.527 1.332C43.5209 1.332 43.5165 1.33192 43.5112 1.33185C43.293 1.02461 42.8933 0.846003 42.5072 0.889442C42.5335 0.448525 42.0559 0.0550364 41.6214 0.00719734C41.1136 -0.0485838 40.6562 0.223983 40.5037 0.682015C40.4614 0.809536 40.419 0.937131 40.3766 1.06469C39.9822 0.880679 39.5663 0.739698 39.1315 0.669337C38.142 0.509041 37.1743 0.67974 36.2208 0.933813C36.1252 0.959168 36.03 0.985269 35.9348 1.01126C35.7988 0.865541 35.6714 0.716393 35.5495 0.577127C35.339 0.336776 34.8336 0.529064 34.8679 0.837986C34.8913 1.05115 34.7977 1.20452 34.6468 1.3135C34.4814 1.33588 34.3213 1.34266 34.0801 1.33815C33.761 1.33219 33.6158 1.32294 33.2822 1.20269C33.1269 1.14672 32.9333 0.999624 32.8429 0.867517C32.4956 0.361049 31.6135 0.224617 31.1932 0.707556C30.7511 0.528579 30.1928 0.775418 29.9476 1.12342C29.8193 1.30538 29.5511 1.40709 29.2139 1.49457C28.9609 1.56016 28.702 1.60979 28.4418 1.65323C28.326 1.50784 28.082 1.41034 27.9029 1.53227C27.7815 1.61508 27.6637 1.70009 27.5475 1.78727C26.6521 1.90137 25.761 1.90547 24.907 1.58253C24.184 1.30907 23.5202 2.05592 23.6395 2.6829C23.4301 2.78369 23.2029 2.85077 22.9961 2.95636C22.5448 3.18695 22.1743 3.55142 21.9485 3.97966C21.908 4.05633 21.8714 4.13418 21.8366 4.21245C21.6679 4.33941 21.5011 4.46976 21.3384 4.60728C21.0674 4.47882 20.7973 4.35037 20.5262 4.22192C20.3234 4.12575 19.9817 4.19276 19.9416 4.44176C19.8761 4.85154 19.7167 5.19123 19.4891 5.47569C18.7494 5.83506 18.0379 6.23854 17.357 6.68695C16.5738 6.91392 15.7413 7.04632 15.0569 7.19525C14.8226 7.24648 14.6948 7.52937 14.8269 7.71775C14.9666 7.91712 15.1064 8.11649 15.2453 8.31586C14.8558 8.66733 14.4902 9.03457 14.1451 9.41441C13.1847 10.4704 12.3811 11.6281 11.6618 12.8543C11.3772 12.9607 11.0926 13.0663 10.8079 13.1727C10.5335 13.2751 10.41 13.5698 10.6324 13.7866C10.738 13.8898 10.8327 13.9986 10.9136 14.1128C10.5105 14.7299 10.0359 15.2925 9.372 15.6614C9.17003 15.7733 9.01836 15.949 8.93741 16.1484C8.86835 16.1909 8.80018 16.2366 8.73286 16.2831C8.54538 16.414 8.43203 16.6993 8.65191 16.8687C8.80615 16.9885 8.95104 17.1303 9.07375 17.2871C9.10017 17.3762 9.12743 17.466 9.1547 17.5551C8.53771 18.0799 8.02471 18.6899 7.63953 19.3739C7.54833 19.3605 7.45459 19.3692 7.37876 19.4212C6.69017 19.8917 6.66972 20.6411 6.94671 21.311C6.77967 22.3205 6.88705 23.3552 7.20918 24.3332C6.78564 24.7241 6.53084 25.2883 6.42685 25.832C6.24364 26.7872 6.23085 28.2561 6.18313 29.231C5.72124 29.6431 5.39229 30.1766 5.20908 30.7503C5.05483 30.8212 4.90059 30.8922 4.74634 30.9631C4.60915 31.0261 4.50859 31.1924 4.5171 31.3327C4.55631 32.0112 4.85884 32.5471 5.26023 33.0325C5.40254 33.4068 5.61301 33.7521 5.88912 34.0832C6.08003 34.3099 6.26663 34.5277 6.43112 34.7726C6.44815 34.7969 6.45839 34.82 6.46606 34.8357C6.40127 34.9002 6.34759 35.0075 6.30072 35.084C5.90703 35.7253 5.90106 36.477 6.46009 37.0359C6.24961 37.1952 6.24279 37.5166 6.42854 37.7135C7.6378 38.9909 8.64594 40.5443 10.3239 41.2229C10.3316 41.2348 10.3384 41.2464 10.3444 41.2583C10.0043 42.0149 9.95833 42.4082 10.2361 43.1898C10.2378 43.1969 10.2404 43.2032 10.2429 43.2103C10.3912 43.6201 10.6639 44.2767 11.1556 44.4042C11.3107 44.4445 11.4633 44.4624 11.6141 44.4616C12.0044 44.8091 12.3939 45.1578 12.7833 45.506C12.8174 45.6787 12.8387 45.8528 12.8455 46.0284C12.8566 46.3222 13.1557 46.5605 13.4778 46.4736C13.5912 46.4431 14.2184 45.8796 14.3334 45.8826C14.3914 45.9363 14.4476 45.9896 14.5039 46.0441C14.7109 46.2451 14.9981 46.562 15.022 46.7723C15.068 47.1687 15.3492 47.6228 15.8034 47.703C15.9739 47.8629 16.2466 47.911 16.4554 47.7022C16.469 47.6888 16.4826 47.6754 16.4971 47.6638C16.5193 47.6612 16.5406 47.659 16.5627 47.6564C16.6633 47.9338 16.7639 48.2112 16.8653 48.4879C17.0638 49.0334 17.8223 49.3839 18.3608 49.0654C18.4478 49.1135 18.533 49.165 18.6182 49.2161C18.7478 49.2925 18.879 49.3704 19.0136 49.4439C19.0213 49.4644 19.029 49.4849 19.0358 49.5047C19.1227 49.7497 19.484 49.8813 19.7065 49.7403C19.7755 49.7608 19.8462 49.7772 19.9178 49.7907C20.2936 49.8593 20.672 49.8403 21.035 49.7243C21.2949 49.6426 21.5429 49.4857 21.8224 49.4644C21.8399 49.4629 21.8579 49.464 21.8756 49.4637C22.1037 49.8958 22.6248 50.2679 23.0354 50.3943C23.5733 50.5603 24.1238 50.501 24.6137 50.2981C24.7459 50.5424 24.9119 50.7735 25.1101 50.9876C25.2201 51.1058 25.4186 51.0808 25.532 50.9876C25.7473 50.8112 25.9611 50.6341 26.1749 50.4562C26.3294 50.4014 26.4855 50.3351 26.648 50.2735C27.1571 50.0815 27.7153 50.0017 28.1861 49.7239C28.4095 49.5919 28.6197 49.4238 28.7931 49.2288C29.1195 49.0542 29.4192 48.8376 29.689 48.5889C29.8237 48.5897 29.9641 48.5606 30.1005 48.4964C30.6708 48.2287 30.9705 47.6832 30.9971 47.1254C31.459 46.1205 31.7317 45.0489 31.8067 43.9519C31.8305 43.5917 31.8349 43.2285 31.8051 42.8684C31.7845 42.6144 31.7155 42.4452 31.6115 42.2158C31.5764 42.1409 31.5449 42.0723 31.5203 41.9966C31.5264 41.7539 31.5296 41.5111 31.5332 41.2695C31.6038 41.0652 31.7301 40.8754 31.9055 40.7154C32.1774 40.4678 32.3016 39.954 32.0548 39.6483C31.8934 39.4506 31.7333 39.2527 31.5723 39.055C31.6175 38.206 31.8374 36.8555 31.3497 36.7134C31.3694 36.5874 31.4114 36.4629 31.4352 36.3376C31.5494 35.7358 31.4812 35.1973 31.1351 34.6708C31.0625 34.5612 31.0012 34.4643 30.9512 34.3699C30.9197 34.1966 30.8878 34.0232 30.8564 33.8498C30.808 33.5824 30.76 33.3132 30.7192 33.0422C30.6978 32.6969 30.6785 32.3517 30.6571 32.0057C30.6373 31.6873 30.6152 31.3689 30.5922 31.0498C30.6018 30.9071 30.6152 30.7645 30.6349 30.6219C30.7515 29.7715 31.1274 29.4571 31.7785 28.8661C31.8809 28.8511 31.9822 28.8346 32.0818 28.8157C32.5465 28.7266 33.0321 28.5887 33.5101 28.6383C34.0293 28.6919 34.4935 28.8992 34.9981 28.6344C35.1462 28.5556 35.4729 28.3381 35.5007 28.1655C35.5028 28.1544 35.5052 28.145 35.5084 28.1379C35.5435 28.1332 35.5887 28.1292 35.6169 28.1285C36.0175 28.1159 36.3998 28.2616 36.804 28.2215C37.282 28.1742 37.7096 27.9779 37.9911 27.6871C38.3513 27.7691 38.7196 27.8061 39.0935 27.7604C39.4074 27.7226 39.6885 27.628 39.9664 27.4878C40.1681 27.3869 40.1044 27.3577 40.3242 27.4397C40.8244 27.6272 41.277 27.8747 41.8401 27.7462C42.1325 27.68 42.3846 27.5343 42.5972 27.338C42.6472 27.2923 42.7323 27.2238 42.7896 27.1591C43.057 27.2844 43.7302 27.5674 43.8412 27.5926C44.155 27.6635 44.487 27.6525 44.7923 27.5579C45.0162 27.4885 45.2909 27.2994 45.4877 27.2608C45.7422 27.2104 46.3082 27.5382 46.6123 27.6509C47.146 27.8487 47.7111 27.8975 48.2512 27.6934C48.4371 27.6233 48.7982 27.3435 48.9373 27.3459C49.1632 27.6036 49.7937 29.0135 49.9828 29.5281C50.7488 31.6085 50.9477 38.1046 50.5939 39.7616C50.5802 39.8105 50.5657 39.8586 50.5512 39.9074C50.1168 41.3489 49.6642 42.8147 48.9373 44.1577C48.2512 45.4233 47.3029 46.5627 45.9419 47.2537C44.5305 47.9711 42.8739 48.1594 41.287 48.0624C40.2653 48.0009 39.2605 47.8111 38.2723 47.5728C37.7556 47.4494 37.2437 47.3115 36.7338 47.1679C36.5116 47.1056 36.2857 47.0475 36.0675 46.9748C35.6823 46.8465 35.4806 46.8361 35.1115 47.0009C34.7755 47.1508 34.6896 47.5926 34.8642 47.8708C35.149 48.3249 35.6706 48.3562 36.174 48.4886C36.687 48.6236 37.2017 48.7526 37.7201 48.8686C38.7128 49.0893 39.7216 49.2586 40.7393 49.3365C42.5613 49.4778 44.4386 49.2601 46.0968 48.5252C46.2844 48.4416 46.4651 48.3525 46.6397 48.2563C46.5752 48.3398 46.5094 48.4234 46.4429 48.5061C46.259 48.7355 46.3953 49.1255 46.6535 49.2508C46.7353 49.2903 46.8172 49.3279 46.8995 49.3652C46.9108 49.3895 46.9225 49.4141 46.9362 49.4383C47.1722 49.8764 47.6667 50.1348 48.1701 50.2471C48.7687 50.3794 49.4383 50.2855 50.047 50.2691C50.6109 50.253 51.1752 50.2374 51.7383 50.2217C51.8714 50.2187 52.0041 50.2146 52.1372 50.2105C52.8072 50.1919 53.476 50.1736 54.1448 50.1546C54.7414 50.1382 54.7135 50.1807 55.2734 49.96C55.5231 49.8608 55.7276 49.7206 55.8994 49.5338C56.0071 49.4898 56.1108 49.4391 56.2108 49.3816C56.5311 49.1971 56.8159 48.9498 57.0781 48.6769C57.5238 48.807 58.1486 48.6866 58.2353 48.1687C58.3753 47.3405 59.5394 46.9867 60.0832 46.3879C60.522 45.9046 60.8355 45.2719 60.8193 44.6645C61.9254 44.1693 62.5272 42.865 62.6675 41.7587C62.7333 41.2456 62.7232 40.6964 62.8176 40.1748C62.8596 40.133 62.8971 40.089 62.9285 40.0416C63.206 39.6263 63.4481 39.1982 63.6614 38.7601C63.9511 38.567 64.2996 38.448 64.6642 38.4282C65.5609 38.3801 65.7295 37.2619 64.8748 36.9927C64.8707 36.9908 64.8671 36.9901 64.8631 36.9886C65.0946 36.4528 65.0752 35.8182 64.7937 35.3107C64.8058 35.2555 64.8167 35.2014 64.828 35.1463C65.3076 34.6694 65.5831 34.0068 65.5524 33.3613C65.7715 33.2185 66.0167 33.1082 66.2854 33.0395C66.7 32.934 66.7028 32.4659 66.3959 32.2563C66.2724 32.172 66.17 32.0735 66.0849 31.9647C66.2971 31.3752 66.2136 30.6936 65.7799 30.2097C66.055 29.8835 66.3305 29.5572 66.6056 29.231C66.7879 29.015 66.8844 28.6486 66.6056 28.4437C66.4273 28.3121 66.2495 28.1813 66.0704 28.0505Z" fill="black"/>
<path fill-rule="evenodd" clip-rule="evenodd" d="M46.3795 41.922L46.4384 41.9093C46.9091 41.8068 47.3621 41.6669 47.801 41.9369C48.2184 42.1938 48.2765 42.6692 47.951 43.016C47.6166 43.3725 47.1721 43.3527 46.703 43.3575L46.6735 43.3579C46.2839 43.3628 45.8882 43.3575 45.5001 43.3255C45.1383 43.2956 44.7741 43.2479 44.4167 43.1856L44.2053 43.1472C43.9891 43.107 43.7766 43.0544 43.6652 42.8609C43.4708 42.5238 44.9141 42.2594 45.0891 42.2132C45.5147 42.101 45.9479 42.0122 46.3795 41.922ZM47.1798 37.8581C46.9499 38.0785 46.6461 38.2291 46.3049 38.3231C45.4481 38.5587 44.3542 38.4331 43.6539 38.1929C43.5087 38.143 43.3732 38.0415 43.2953 37.9148C43.2239 37.7984 43.1997 37.6623 43.2542 37.5233C43.2695 37.4837 43.2881 37.4446 43.307 37.4066C43.3587 37.3025 43.4631 37.2216 43.5862 37.1754C43.7136 37.1273 43.8588 37.1176 43.9754 37.1515C43.9912 37.156 44.0069 37.1608 44.0234 37.1657C44.4671 37.2947 45.1944 37.5091 45.7974 37.4673C46.1588 37.4427 46.4771 37.3245 46.6417 37.0184C46.7284 36.8569 46.7042 36.6974 46.6276 36.5512C46.5114 36.3308 46.2791 36.1392 46.0834 36.0072C45.8075 35.8207 45.5135 35.7465 45.2093 35.6679C45.0944 35.6384 44.9786 35.6082 44.8612 35.5724C44.8225 35.5605 44.7886 35.5374 44.7632 35.5075C44.7382 35.4777 44.7221 35.4412 44.7168 35.405C44.7116 35.367 44.718 35.3293 44.737 35.2969C44.7543 35.267 44.7826 35.2406 44.8245 35.223C45.4199 34.9766 46.1899 35.1395 46.7708 35.5277C47.0616 35.7216 47.3036 35.9706 47.4528 36.2492C47.5916 36.5072 47.6505 36.7909 47.596 37.0799C47.5355 37.4036 47.3871 37.659 47.1798 37.8581ZM37.4227 32.3542C37.5897 32.286 37.7273 32.6051 37.7619 32.692L37.8329 32.8725C37.9491 33.1637 38.0826 33.4594 38.3267 33.6756C38.5312 33.8565 38.8587 34.0097 39.0959 33.7979C39.321 33.5973 39.2112 33.3714 39.2443 33.1249C39.304 32.6797 39.9611 32.2344 40.356 32.6991C41.2478 33.7495 39.8675 35.2096 38.5965 34.9534C37.9499 34.8233 37.4296 34.3438 37.2154 33.7737L37.2045 33.7435C37.0766 33.3826 36.9471 32.5481 37.4227 32.3542ZM48.934 33.0854L48.928 33.0723C48.5028 32.1785 50.0187 31.7944 50.1473 32.5969L50.1554 32.651C50.2805 33.5418 50.0171 34.7398 48.8372 34.8285C47.5125 34.9285 46.9611 33.5619 47.0793 32.5589C47.1007 32.3795 47.3363 32.3547 47.4089 32.5178L47.4242 32.5534C47.6384 33.0574 47.8413 34.0265 48.5948 34.0258C49.0982 34.025 49.074 33.3964 48.934 33.0854ZM49.8952 30.4983C50.6564 30.4734 50.6552 31.5752 49.8952 31.5917C47.3552 31.647 44.8136 31.7205 42.2732 31.7331L41.8114 31.7357C39.4254 31.7505 37.0306 31.7806 34.6516 31.5954C34.4483 31.5796 34.4862 31.3159 34.656 31.3266C37.1504 30.9983 39.6751 30.9023 42.1885 30.7775C44.7551 30.6501 47.3266 30.5826 49.8952 30.4983Z" fill="black"/>
<path fill-rule="evenodd" clip-rule="evenodd" d="M54.4625 33.4359C53.6501 38.5181 47.9784 39.08 46.9708 34.0347C47.1325 33.9695 47.2487 33.8405 47.2245 33.5903C47.2188 32.4907 47.5879 31.3286 48.6605 30.7171C49.7689 30.0862 51.0658 30.0236 52.3485 30.0395C54.7961 29.9856 54.7449 31.8775 54.4625 33.4359ZM46.083 31.2258C45.3149 31.1958 44.3428 31.2209 43.6547 31.6537C43.4655 31.1826 42.9742 30.6796 42.4777 30.4106C44.3235 30.4606 46.2237 30.2926 48.0837 30.1621C47.6383 30.4427 47.2241 30.8643 46.955 31.3518C46.7054 31.2286 46.3476 31.2401 46.083 31.2258ZM42.6971 33.9751C40.5669 40.755 35.2501 37.8 34.6705 36.9308C33.625 35.493 33.4281 31.9977 34.3389 31.0631C35.6426 30.218 37.4884 30.4355 39.0285 30.4148C41.8577 30.4501 43.8673 31.2328 42.6971 33.9751ZM56.9775 30.8564C56.3991 30.7864 55.7803 30.7723 55.2426 31.0079C55.0768 30.3568 54.5565 29.8124 53.9696 29.5728C53.8982 29.4904 53.9091 29.4461 53.6663 29.4585C52.1754 29.0441 50.5071 29.2634 49.0743 29.6883C46.8114 29.8645 44.4376 30.0034 42.1558 30.2462C40.0183 29.3586 33.5681 29.2284 33.1671 31.4163C32.6629 31.3466 31.8041 30.9796 31.3806 31.4774C28.2727 30.9902 25.061 31.6673 21.9396 31.9689C21.1538 32.1027 20.7491 33.5448 21.641 33.525C22.1424 33.399 21.6256 32.6272 22.3008 32.569C25.3125 32.2648 28.2581 31.8333 31.3007 31.7828C31.1951 32.2686 33.3131 32.3002 33.3446 32.0165C33.349 32.0186 33.3539 32.0201 33.3583 32.022C32.8352 33.8259 33.3075 36.4218 34.2534 37.5405C35.5789 39.0051 38.9058 39.4253 40.3814 38.4831C42.2844 37.6132 44.2646 33.2472 43.7083 31.7966C44.7176 31.5008 45.7155 31.5896 46.763 31.7403C46.523 32.3667 46.1092 33.9087 46.705 34.0426C46.5956 37.1042 49.6084 39.0144 52.386 37.7586C54.7905 36.7149 55.6311 33.4117 55.337 31.4065C55.6363 31.9413 58.1489 31.359 56.9775 30.8564Z" fill="black"/>
</svg>
