<svg width="137" height="207" viewBox="0 0 137 207" fill="none" xmlns="http://www.w3.org/2000/svg">
<path fill-rule="evenodd" clip-rule="evenodd" d="M75.8169 133.612C76.0522 136.073 75.5717 138.423 74.4268 140.41L74.0543 141.056L74.7632 141.305C76.0535 141.758 77.4882 141.978 79.1497 141.978C80.8594 141.978 82.6376 141.739 84.0665 141.547L84.9814 141.424L84.532 140.627C84.1705 139.986 84.1038 139.209 84.033 138.387C84.0137 138.167 83.9941 137.938 83.9683 137.712C82.6142 125.571 80.9032 113.271 79.2483 101.376C78.8128 98.2454 78.3625 95.0087 77.9257 91.825L76.6724 91.8732C76.3355 97.7666 76.0084 103.759 75.692 109.555C75.5528 112.103 75.4137 114.652 75.2733 117.2C74.7735 123.642 74.9458 128.859 75.8169 133.612ZM76.3281 206.421C74.4878 206.421 72.6441 206.229 70.848 205.849C65.2279 204.665 60.1219 201.873 55.7772 199.348C55.5554 199.222 55.3302 199.095 55.0989 198.966C53.3982 198.011 51.2815 196.823 49.9549 195.374C48.4993 193.784 48.2488 192.199 49.1665 190.387L49.3118 190.101L49.16 189.818C48.2099 188.043 48.2807 185.847 49.3319 184.478L50.2156 183.328L48.7629 183.483C47.2979 183.639 45.8218 183.85 44.3937 184.054C42.8096 184.281 41.1714 184.515 39.5578 184.672L39.1096 184.716L39.0065 185.15C38.9492 185.391 38.8783 185.538 38.3806 185.538C37.9488 185.538 37.3687 185.41 36.7551 185.276C35.993 185.11 35.1297 184.921 34.2967 184.921C33.9303 184.921 33.6012 184.956 33.2893 185.028L33.108 185.07L32.9791 185.203C32.8968 185.287 32.756 185.34 32.6127 185.34C32.5042 185.34 32.4035 185.31 32.336 185.257L32.1326 185.097L31.8743 185.126C27.3766 185.621 23.4981 186.491 20.0178 187.784L20.0021 187.79L19.9266 187.823C18.6681 188.368 17.367 188.931 16.182 188.931C15.3158 188.931 14.6124 188.636 13.9682 188.001L13.7862 187.821L13.5294 187.819C10.9239 187.795 9.73331 184.746 9.56872 182.703L9.54801 182.446L9.3494 182.279C4.80856 178.455 2.12784 173.204 1.1538 166.225C0.266653 159.867 0.947823 153.165 1.73112 147.447C3.54307 132.628 5.43291 119.343 10.2368 106.744L10.4613 106.155L9.86319 105.939C7.78837 105.191 6.20266 104.299 5.01535 103.21L4.93316 103.135L4.82964 103.092C3.12805 102.391 2.29469 99.8013 2.07975 99.0246L2.06256 98.9621L2.03251 98.9041C1.68532 98.236 1.60525 97.3063 1.8129 96.3539L1.83513 96.2511L1.82224 96.147C1.71012 95.2424 2.08229 94.297 2.47631 93.2957C2.65633 92.8383 2.84237 92.3656 2.97835 91.8946C3.44573 90.5489 3.91261 89.1799 4.36427 87.8552C5.37757 84.8834 6.42521 81.8104 7.54134 78.8213L7.69398 78.4124L7.35771 78.1306C6.78363 77.6497 6.97536 77.0832 7.80315 75.7294C7.99873 75.4093 8.18375 75.1065 8.32439 74.8087C9.3855 72.9686 10.5227 71.2029 11.7051 69.5587L11.7294 69.5249L11.7488 69.4887C17.8159 58.1194 28.5776 51.8582 42.0515 51.8582L42.3262 51.8586L42.478 51.7669C45.0032 50.2431 46.8059 47.6288 47.9893 43.7742L48.0269 43.6516L48.0122 43.5236C47.9717 43.1686 47.9275 42.7029 47.9426 42.2508C47.9811 41.1064 48.4281 40.0849 49.1694 39.4485C50.575 38.2411 52.7093 38.1399 54.7748 38.1399L55.0715 38.1403C57.7125 38.1481 59.577 38.608 60.9393 39.5884C62.5218 40.7275 63.3965 42.5663 63.6135 45.2099C63.6781 46.001 63.6761 46.8204 63.674 47.6127L63.6736 47.8341L63.7002 47.9217C63.8898 48.5503 64.1124 49.1538 64.3609 49.7165L64.6167 50.2949L65.1984 50.0341C65.5746 49.8655 66.0514 49.7787 66.6564 49.7688C66.8308 49.7651 67.0011 49.763 67.1726 49.763C68.5778 49.763 70.0809 49.8918 71.5344 50.016C72.6294 50.1098 73.762 50.2069 74.8582 50.2501L74.8734 50.2505C74.8734 50.2505 75.0248 50.2497 75.0928 50.2497C77.7571 50.2497 79.6887 50.6701 81.1713 51.5731C82.7673 52.5448 83.9151 54.1047 84.7833 56.4821C89.4386 70.1091 91.3522 84.7867 93.0403 97.7366C93.9982 104.508 94.2892 111.451 94.5708 118.164C94.8684 125.251 95.1758 132.578 96.2642 139.741L96.3506 140.308L96.9286 140.27C99.4722 140.105 102.221 139.751 105.132 139.375C109.554 138.804 114.126 138.214 118.547 138.214C124.727 138.214 129.413 139.435 132.871 141.944C135.281 144.223 136.528 147.309 136.477 150.87C136.404 155.901 133.752 161.464 129.72 165.04L129.705 165.054C124.608 169.886 115.304 174.076 102.053 177.509C89.8672 180.666 77.2626 182.381 70.8333 183.123L69.2422 183.307L70.5336 184.244C71.0563 184.623 71.5336 184.957 71.9921 185.264L72.2876 185.463L72.6118 185.314C73.5357 184.889 74.1222 184.799 74.4522 184.799C74.7448 184.799 75.0977 184.863 75.1169 185.167C75.1296 185.366 74.9888 185.661 74.6908 185.699L73.1091 185.897L74.4006 186.821C75.263 187.438 76.55 188.182 78.0404 189.044C82.9159 191.862 90.2839 196.122 89.0166 199.863L88.9335 200.108L89.051 200.34C89.3915 201.01 89.4206 201.631 89.1398 202.24C88.5381 203.546 86.6564 204.537 85.0579 204.939L85.0309 204.946L85.0039 204.956C82.2229 205.928 79.304 206.421 76.3281 206.421Z" fill="white"/>
<path fill-rule="evenodd" clip-rule="evenodd" d="M70.9778 182.39C71.1701 182.194 71.2508 181.937 71.0715 181.635C70.3773 180.746 68.938 181.354 68.0424 181.559C67.7043 181.277 67.3687 180.994 67.0453 180.695C67.1575 179.996 66.3196 179.53 65.9753 178.991C65.6372 178.594 65.3192 178.142 64.9139 177.809C63.9262 177.036 62.557 177.559 61.4104 177.524C60.5275 176.397 59.6184 175.306 58.7784 174.141C59.7465 172.509 59.8149 170.596 59.4935 168.778C74.3416 163.125 87.1938 152.421 103.253 149.947C103.805 149.855 104.114 149.182 103.977 148.688C102.857 146.005 86.7591 152.926 84.3531 154.18C77.2561 157.59 70.6081 161.84 63.7109 165.59C62.2725 166.357 60.6904 166.769 59.1178 167.167C56.7011 159.208 52.6127 151.913 49.478 144.239C49.6814 143.886 49.8546 143.514 50.002 143.132C49.898 147.352 53.988 147.293 54.5529 143.29C54.32 145.377 55.8927 149.846 58.1624 146.913C58.6945 146.177 58.8836 145.233 58.9737 144.282C59.0903 144.94 59.2226 145.594 59.3695 146.247C59.952 147.54 61.5427 145.968 61.9123 145.294C62.1255 145.255 62.3249 145.158 62.471 145.038C66.4845 145.598 71.2119 145.566 74.157 142.386C79.1521 144.309 84.6805 142.586 89.7325 141.818C100.013 140.632 110.334 138.825 120.706 138.963C125.337 139.233 130.801 139.983 133.73 143.948C137.487 149.663 135.364 157.382 131.219 162.33C121.248 174.996 87.024 180.504 70.9778 182.39ZM71.2581 186.953C71.4395 186.904 71.6225 186.86 71.8042 186.817C74.7141 189.248 88.4202 195.561 87.3776 199.332C87.0092 199.801 86.1271 199.908 85.5696 200.06C84.5987 200.323 83.6179 200.551 82.6282 200.732C79.428 201.316 76.1136 201.418 72.918 200.751C71.742 200.572 70.6806 200.069 69.6098 199.582C66.1497 198.055 62.3384 196.367 58.8951 194.853C54.5202 193.113 46.8468 189.683 50.0028 183.896C52.9929 187.271 56.7879 186.976 58.6998 182.782C59.3589 181.508 59.9344 179.792 61.4829 179.277C62.2999 178.723 63.3441 178.608 64.0269 179.226C64.076 179.149 64.1202 179.041 64.1444 178.945C64.9139 180.044 65.5774 181.201 66.4792 182.206C66.1693 182.223 62.9463 184.616 63.8975 184.617C65.042 184.026 66.1787 183.533 67.4145 183.214C68.3101 184.118 69.295 184.959 70.3155 185.736C69.3245 186.393 68.4342 187.197 67.7178 188.069C67.656 188.146 67.7318 188.246 67.8239 188.204C68.936 187.707 70.0793 187.271 71.2581 186.953ZM86.0109 203.258C74.8791 208.276 63.0944 202.689 53.6016 196.733C51.4109 195.505 48.5288 193.765 48.9721 190.875C50.5857 193.244 53.2459 194.593 55.7993 195.763C60.0887 197.708 64.4068 199.591 68.7072 201.513C69.1133 202.865 71.0555 202.917 72.2295 203.217C77.4546 204.234 83.0711 203.729 87.9888 201.701C87.7043 202.547 86.773 202.935 86.0109 203.258ZM41.598 183.723C41.3233 183.758 41.0478 183.79 40.7732 183.822C40.8014 183.456 40.582 183.091 40.2292 182.978C40.3876 182.204 40.4465 181.403 40.3614 180.618C40.8215 181.81 42.3057 181.448 43.2484 181.105C44.5955 180.737 45.934 180.342 47.2652 179.921C47.7903 180.899 48.3466 181.863 49.0302 182.749C46.5419 182.972 44.0769 183.413 41.598 183.723ZM40.5026 179.973C40.4367 180.113 40.3421 180.261 40.3401 180.429C40.273 179.849 40.1416 179.277 39.9422 178.727C40.1289 179.142 40.3159 179.558 40.5026 179.973ZM38.9324 176.863C37.7081 175.262 35.4457 173.953 33.3544 174.399C33.2202 174.428 33.2169 174.645 33.3544 174.672C36.1637 175.055 38.6311 177.291 38.7285 180.182C38.95 181.491 38.0429 182.775 38.3487 184.031C38.2877 184.035 38.2267 184.038 38.1669 184.042C38.1448 184.126 38.1248 184.201 38.0986 184.267C38.4023 184.317 38.4915 184.807 38.1334 184.894C37.9213 184.946 37.6999 184.973 37.4739 184.985C36.3286 184.674 35.1203 184.603 34.0253 184.144C32.9418 183.664 33.2128 182.314 32.8305 181.379C32.5501 180.301 32.2279 179.227 31.8215 178.192C31.7924 178.109 31.6799 178.128 31.6704 178.212C31.3839 180.276 31.3933 182.375 31.4625 184.455C31.0867 184.494 30.713 184.537 30.3381 184.583C30.3622 184.002 28.6248 176.922 27.7093 178.739C28.1702 180.737 28.2259 182.823 28.2752 184.879C25.5571 185.328 22.879 185.997 20.2732 186.909C18.437 187.467 16.2532 189.118 14.4707 187.625C13.0901 186.48 12.625 184.481 12.7552 182.781C14.5505 172.718 28.7298 171.543 37.1002 172.287C37.8906 174.117 38.6962 175.942 39.512 177.761C39.343 177.448 39.1497 177.147 38.9324 176.863ZM10.3838 182.585C10.2306 180.3 10.6138 177.455 12.3009 175.753C16.1622 172.477 21.569 171.446 26.3942 170.26C28.6418 169.815 30.9201 169.519 33.2079 169.372C34.0192 169.308 35.0503 169.492 35.6234 168.826C35.9185 169.528 36.2177 170.228 36.5169 170.929C26.9107 169.666 6.86894 174.053 12.4815 187.257C11.2929 185.965 10.5055 184.392 10.3838 182.585ZM58.1088 175.032C58.5509 176.14 59.0916 177.195 59.7981 178.16C58.995 178.687 58.3396 179.466 57.8779 180.304C54.9172 188.076 51.751 183.913 47.8169 179.742C51.146 178.482 55.5558 177.537 58.1088 175.032ZM8.8296 181.003C1.13101 173.372 -0.362929 160.66 2.48111 150.668C2.73412 146.962 4.02543 143.431 5.18237 139.923C8.86632 129.281 13.7114 119.042 19.5224 109.376C26.7317 111.363 33.9283 113.403 41.1547 115.324C42.1497 115.541 43.1461 115.97 44.1678 116.032C44.5329 116.265 44.8996 116.523 45.2795 116.749C44.7261 119.469 45.2365 122.245 45.3655 124.982C45.4829 127.136 45.2513 129.245 44.9668 131.377C44.6487 134.477 43.3393 144.562 45.9631 146.408C46.8521 146.839 47.6471 145.564 48.0302 145.914C48.3757 145.672 48.6978 145.358 48.9602 145.011C49.9733 148.299 51.6291 151.348 52.6516 154.639C54.0122 159.474 58.4804 167.301 57.4882 171.913C56.7207 174.762 53.3634 175.376 50.9401 176.307C48.1403 177.284 45.309 178.182 42.4314 178.91C41.0265 175.919 39.6839 172.899 38.3663 169.868C32.3442 155.884 27.011 141.608 22.2446 127.162C22.1554 126.841 21.0594 123.367 20.8588 124.336C20.8421 124.237 20.7171 123.979 20.6698 124.199C21.4782 127.592 22.2981 130.983 23.1853 134.356C21.0058 134.05 18.6625 133.931 16.6678 135.002C16.5649 135.057 16.6405 135.193 16.7422 135.177C19.1044 134.766 21.3827 135.542 23.6515 136.099C26.8377 146.982 30.9492 157.589 35.3008 168.063C33.9549 167.632 32.3925 168.108 30.9877 168.143C26.5637 168.601 22.1901 169.573 18.0106 171.083C12.7571 172.792 9.0427 175.021 8.8296 181.003ZM4.59117 101.587C3.29785 100.189 2.28148 98.4046 2.47792 96.511C3.25483 95.471 3.51205 94.1151 3.96453 92.913C5.73354 87.8847 7.37549 82.8178 9.30095 77.8438C13.3964 79.1075 17.4257 80.6235 21.2263 82.6145C21.9254 82.9729 22.6173 83.3443 23.3008 83.729C24.0168 84.1317 24.7978 84.8311 25.6566 84.6307C24.7181 85.964 22.7853 87.3516 22.4588 88.8922C22.3884 89.3801 22.7328 89.8326 23.2619 89.7236C31.5444 95.6269 40.0974 101.406 47.9262 107.981C53.7887 112.638 58.2893 116.415 60.2999 123.971C61.6552 128.866 61.6593 133.981 61.46 139.014C61.4211 139.992 61.4199 140.994 61.3413 141.978C61.4587 142.715 61.2352 144.215 60.41 144.241C60.4289 144.42 60.4878 144.585 60.5811 144.73C60.5549 144.765 60.5275 144.799 60.4993 144.833C60.4583 144.632 60.4182 144.431 60.3806 144.23C59.7379 141.374 59.652 138.061 59.7592 135.021C59.8042 134.149 58.4719 134.17 58.3974 135.021C58.1968 137.32 57.9962 139.618 57.796 141.915C57.5554 143.404 57.9344 145.352 56.7482 146.484C55.5419 145.365 55.941 143.159 55.9995 141.716C56.094 139.362 56.196 137.008 56.2831 134.654C56.3102 133.908 55.0789 133.715 54.9389 134.474C54.5435 136.637 54.1149 138.793 53.654 140.943C53.3761 141.774 53.1849 145.503 51.7948 144.856C50.9668 144.288 51.564 140.96 51.4547 139.859C51.5062 137.677 51.5365 135.499 51.6962 133.323C51.7613 132.445 50.3368 132.259 50.1415 133.116C49.8243 134.503 49.521 135.89 49.2459 137.287C48.6422 139.642 48.8616 142.833 46.6823 144.398C45.8284 138.282 47.0568 132.209 47.2291 126.115C47.126 124.14 46.7883 122.185 46.4899 120.234C46.1604 118.077 45.968 115.729 46.74 113.649C46.5288 112.717 45.6995 115.237 45.6217 115.447C44.9971 114.212 43.476 114.116 42.2725 113.732C39.5988 112.863 36.8595 112.208 34.1543 111.436C26.9793 109.437 19.7963 107.469 12.6111 105.504C9.74081 104.707 6.71933 103.764 4.59117 101.587ZM76.4382 134.118C75.4481 128.734 75.4755 123.278 75.8983 117.834C76.3637 109.392 76.8148 100.948 77.2978 92.5066C79.3944 107.785 81.6298 123.045 83.3388 138.373C83.4603 139.439 83.4415 140.568 83.9781 141.52C81.0133 141.918 77.8533 142.32 74.9704 141.308C76.2356 139.114 76.6818 136.615 76.4382 134.118ZM91.4186 96.1934C93.6601 110.674 92.3813 125.408 94.5557 139.872C91.5393 140.211 88.5463 140.713 85.5614 141.265C85.8881 139.478 85.2683 137.634 85.1615 135.834C83.5406 123.001 81.7505 110.175 79.3789 97.4539C78.7972 94.4096 78.2094 91.3774 77.5353 88.3496C77.6372 86.5161 77.7264 84.6826 77.7854 82.8482C81.0764 80.772 84.7878 79.428 88.6261 78.7505C89.6629 84.5489 90.6994 90.3432 91.4186 96.1934ZM65.4714 50.6906C65.34 50.4652 65.2152 50.2348 65.0957 50.0015C65.5009 50.0172 65.8955 50.0316 66.2946 50.0978C66.2766 50.7424 66.3126 51.392 66.3196 52.0416C66.1202 51.5664 65.7297 51.1324 65.4714 50.6906ZM133.168 141.434C123.595 134.448 107.87 138.899 96.7792 139.617C94.665 125.705 95.5278 111.566 93.5573 97.6316C91.7419 83.7105 89.8283 69.5956 85.2696 56.2574C83.3883 51.1003 80.1337 49.5688 74.7755 49.6103C72.0563 49.5034 69.1808 49.0665 66.5381 49.1286C65.9585 49.138 65.3531 49.215 64.83 49.4495C64.0953 47.7871 63.6961 46.0025 63.4948 44.2044C63.4821 44.09 63.3372 44.0694 63.2942 44.1784C62.6728 45.7442 62.6065 47.453 62.9446 49.0924C63.1894 50.2673 64.6454 54.89 66.3368 53.0811C66.471 56.8741 65.6405 61.4034 61.9377 63.3714C55.4674 66.2021 46.5239 63.6248 42.7756 57.617C42.0515 56.4162 41.4269 55.1389 40.6246 53.9862C46.2132 52.3987 49.3499 45.6796 48.0335 40.5632C47.2197 44.5425 45.7363 48.9887 42.0421 51.2176C28.589 51.1875 17.404 57.3356 11.0838 69.1772C9.84708 70.8968 8.70377 72.6834 7.65604 74.5013C7.09215 75.7173 5.44082 77.4089 6.84238 78.5834C5.22351 82.9186 3.78733 87.3142 2.26924 91.6838C1.85233 93.1397 0.89904 94.6668 1.08918 96.1975C0.883404 97.1408 0.89286 98.2561 1.36425 99.1631C1.81148 100.78 2.81504 102.954 4.47918 103.641C5.89121 104.934 7.67704 105.826 9.53946 106.497C4.57251 119.522 2.6818 133.568 0.998876 147.33C-0.650526 159.368 -1.50185 174.013 8.83291 182.713C9.03345 185.203 10.5052 188.375 13.4155 188.401C15.4311 190.388 17.8879 189.298 20.1315 188.327C23.9183 186.92 27.8899 186.14 31.8362 185.704C32.2595 186.037 32.948 185.982 33.325 185.595C35.7155 185.042 39.029 187.281 39.5116 185.252C42.5943 184.952 45.643 184.39 48.7224 184.062C47.4244 185.751 47.5181 188.243 48.4956 190.068C46.0061 194.981 51.8047 197.827 55.3499 199.842C60.1362 202.623 65.1345 205.262 70.6085 206.415C75.4211 207.431 80.4624 207.123 85.1058 205.5C87.5459 204.885 90.9536 202.864 89.5057 200.018C91.3412 194.601 78.453 188.989 74.6621 186.276C76.2115 186.082 76.2684 182.855 72.2381 184.71C71.7506 184.383 71.2721 184.045 70.7985 183.702C87.1005 181.822 118.234 176.649 130.032 165.467C136.514 159.718 140.254 148.088 133.168 141.434Z" fill="black"/>
<path fill-rule="evenodd" clip-rule="evenodd" d="M53.284 7.6918C68.8415 6.924 75.8624 17.917 76.3163 22.8269C76.6315 26.2356 74.625 30.1638 74.625 33.2097C74.625 34.7643 76.5214 38.1018 75.6385 40.3673C73.6733 45.4108 69.512 51.0077 64.2095 51.0077C58.907 51.0077 52.0061 52.4796 46.1469 44.0603C45.5972 43.2704 38.6435 38.7806 37.9681 34.5142C36.2853 23.8874 42.183 8.23968 53.284 7.6918Z" fill="white"/>
<path fill-rule="evenodd" clip-rule="evenodd" d="M52.5506 0.850662C53.1068 0.211994 54.0459 -0.0434748 54.8805 0.00597309C56.0925 0.0780881 57.147 0.829023 58.3528 0.884642C59.6173 0.943387 60.8379 0.503497 62.1056 0.707459C62.8825 0.833136 63.6525 1.1947 64.1502 1.80453C65.8747 1.30906 67.747 1.96521 68.8452 3.39809C70.2001 3.18693 71.6741 4.08732 72.0888 5.39748C73.81 5.45314 75.4347 6.84069 75.6266 8.57947C76.3147 8.76179 76.912 9.2378 77.2783 9.86709C77.7044 10.5964 77.7752 11.4328 77.6983 12.2549C78.5079 12.67 78.9197 13.562 79.0274 14.5056C79.7674 15.0598 80.0888 16.0559 79.9377 16.9964C80.5042 17.3167 80.7969 18.0625 80.7941 18.728C80.7908 19.3491 80.6266 19.8993 80.8575 20.4987C81.0634 21.0326 81.1371 21.4775 81.0241 22.0368L81.0126 22.0911C80.9926 22.1824 80.9758 22.27 80.9607 22.356C81.1137 22.4909 81.2435 22.66 81.3409 22.857C81.6958 23.5757 81.643 24.396 81.372 25.125C81.4907 25.5894 81.4756 26.0802 81.3004 26.5266C81.6287 27.0009 81.801 27.5826 81.7503 28.1861C81.6934 28.862 81.3859 29.4671 80.9197 29.9147C81.0437 30.8378 80.67 31.8354 79.9934 32.4854C80.0896 33.0379 80.0065 33.6171 79.7056 34.1412C79.4907 34.5143 79.2018 34.7928 78.8681 34.9866C78.8792 35.2947 78.8374 35.6103 78.7355 35.9262C78.5935 36.3643 78.3532 36.7683 78.0368 37.0937C78.2255 38.3048 77.5026 39.6488 76.2308 39.9886C76.124 40.0174 76.0221 40.0301 75.9246 40.0322C75.7982 41.1972 75.5223 42.3462 75.0949 43.4372C74.009 46.2152 72.0344 48.644 69.4588 50.1591C68.185 50.9083 66.7544 51.4212 65.2935 51.6356C64.2427 51.7898 63.2317 51.752 62.1764 51.6467C60.8522 51.5138 59.5219 51.3151 58.235 50.9733L58.0278 50.9177C57.4941 50.7746 56.9316 50.6088 56.4695 50.32C55.9521 49.9966 55.6832 49.498 55.5641 48.911C55.4978 48.584 55.7041 48.2326 56.0606 48.2256H56.0835C56.1613 48.2273 56.2386 48.2244 56.3172 48.2195L56.3762 48.2154H56.3791C56.3831 48.2145 56.3852 48.2145 56.3893 48.2145C56.4241 48.2092 56.458 48.1989 56.492 48.194C56.8842 48.1277 57.2272 48.1931 57.5956 48.3161L57.6414 48.3318C58.2616 48.5461 58.8764 48.7448 59.517 48.8925C60.1789 49.0439 60.8494 49.1644 61.5215 49.259L61.5882 49.2673L61.6087 49.2701L61.6189 49.2714C61.621 49.2714 61.623 49.2714 61.625 49.2722L61.8232 49.2973C61.9795 49.3158 62.1355 49.3323 62.2914 49.3487C62.5788 49.3775 62.8661 49.4001 63.1535 49.4166C68.1142 49.6967 72.2808 45.7771 73.5378 41.0779C73.9938 39.3773 74.0237 37.6807 73.889 35.983C73.8461 35.8596 73.8203 35.7226 73.8215 35.572C73.8215 35.4938 73.8256 35.4165 73.8305 35.3383C73.6635 33.6965 73.3729 32.0535 73.1911 30.4051C72.9787 28.4798 72.8604 26.5434 72.9038 24.6058C72.9251 23.649 73.027 22.7011 73.1604 21.7535L73.2083 21.413C72.6054 21.2949 72.045 21.0079 71.5984 20.5924C70.6295 21.1539 69.3757 21.2036 68.4195 20.6108C67.3479 21.2852 65.851 21.3464 64.772 20.687C64.1195 21.1543 63.298 21.3559 62.4912 21.1785C62.1285 21.0988 61.7675 20.9262 61.4584 20.6873C61.2378 20.7264 61.0147 20.7415 60.7925 20.7299L60.7466 20.7556C60.2341 21.0265 59.6668 21.2049 59.0831 21.1849C58.6504 21.1703 58.2051 21.0847 57.7929 20.9228C57.3524 21.1896 56.8702 21.3717 56.3549 21.437C55.6017 21.5323 54.7888 21.3651 54.1625 20.9364C53.018 21.5907 51.6103 21.6915 50.3746 21.2518C50.1216 21.6819 49.7716 22.0528 49.3615 22.3387C49.4351 22.6024 49.4585 22.8838 49.4331 23.1545C49.3918 23.6 49.2804 23.9995 49.0983 24.3582C49.2902 24.7584 49.348 25.25 49.2407 25.7437C49.0876 26.448 48.6795 27.0601 48.1511 27.5373C48.1044 28.6604 47.4904 29.7139 46.4912 30.2993C46.4409 30.3285 46.3905 30.3528 46.3402 30.3746C46.296 30.4351 46.2436 30.4886 46.183 30.5334C45.5477 31.1225 44.5424 31.0756 43.7458 30.7428C43.7307 30.7436 43.7151 30.7449 43.6996 30.7453C43.4151 30.7523 43.2215 30.6412 43.1061 30.4775C42.9902 30.4836 42.8752 30.496 42.7593 30.5174C42.3365 30.5968 41.8723 30.7494 41.4896 30.9473C40.4962 31.4598 40.0361 32.3665 39.8985 33.4563C39.7487 34.6451 40.0897 35.8563 41.0062 36.6609C41.4515 37.0526 42.0213 37.2977 42.6001 37.4006C43.2395 37.5149 43.9231 37.2336 44.3954 37.7848C44.49 37.8938 44.5547 38.0464 44.5031 38.1937C44.3431 38.6532 44.0794 38.8293 43.6668 38.8931C44.2628 39.6027 44.8748 40.2889 45.5522 40.9265C46.2849 41.6176 47.0426 42.2874 47.7037 43.0497C48.4028 43.856 49.034 44.7112 49.472 45.6899C49.7225 46.2523 49.9239 46.8323 50.1404 47.4078L50.1793 47.5082C50.4208 48.1199 50.7421 48.7098 50.3705 49.3487C50.2227 49.6001 49.8879 49.8432 49.58 49.8029C48.7127 49.6918 48.422 49.1035 48.1552 48.3371C47.9542 47.7583 47.8003 47.1626 47.5837 46.5892C47.5432 46.4826 47.499 46.3777 47.4527 46.2732C46.9525 46.4131 46.4028 46.302 45.9562 46.0157C45.4794 46.228 44.9513 46.3337 44.4409 46.3247C43.7577 46.3127 43.1335 46.1223 42.5968 45.7788C42.5543 45.7672 42.5113 45.7565 42.4687 45.7442C41.6525 46.0581 40.6963 46.0017 39.9575 45.4933C39.4786 45.1642 39.1515 44.7244 38.9657 44.2348C38.3472 44.2233 37.7352 44.0032 37.2923 43.5631C36.8854 43.1587 36.6476 42.637 36.5768 42.0952C36.0447 41.9895 35.5457 41.7312 35.154 41.2964C34.8273 40.9327 34.6288 40.4703 34.5617 39.9898C33.9133 39.8039 33.3288 39.3793 33.0095 38.7869C32.7123 38.2357 32.6693 37.6375 32.8146 37.0933L32.777 37.039C32.1089 36.6881 31.5993 36.1138 31.5469 35.2939C31.5322 35.0602 31.5576 34.8266 31.6206 34.6057C31.5977 34.3584 31.6124 34.1116 31.6767 33.8726C30.7786 32.9959 30.4532 31.5878 30.9407 30.4236C30.0633 29.4762 29.8313 27.9771 30.4749 26.8524C30.0335 26.3168 29.8067 25.6339 29.8447 24.9045C29.8919 23.9941 30.3075 23.1985 30.8052 22.4621C30.436 22.052 30.2387 21.4804 30.2534 20.9282C30.2739 20.1279 30.6976 19.4388 31.2285 18.8681C30.7655 17.4589 31.2825 15.9302 32.4188 15.0382C32.1892 14.6581 32.104 14.1873 32.1789 13.7104C32.3103 12.877 32.9333 12.3095 33.6055 11.8603C33.4651 11.401 33.5019 10.9054 33.7258 10.4306C34.0242 9.79703 34.5879 9.39532 35.1761 9.05536C35.3279 7.65033 36.892 6.45025 38.2039 7.17543C37.8785 6.12991 38.8158 5.00091 39.8936 4.88141C40.4212 3.27653 42.2411 2.26499 43.8772 2.66361C44.7135 1.51611 46.2706 1.07429 47.5927 1.56659C49.0463 0.448907 50.8498 0.28308 52.5506 0.850662ZM42.1969 32.3624C43.2182 32.3069 43.9841 33.1432 44.5219 33.9084C45.0266 34.6266 43.7315 35.3848 43.3537 34.5937C43.2182 34.3115 43.0643 34.0125 42.858 33.7652C42.8232 33.8142 42.7925 33.8644 42.7622 33.9162L42.7315 33.9684C42.709 34.0063 42.6853 34.0458 42.666 34.0857C42.6681 34.0931 42.6374 34.1877 42.6361 34.1918C42.5518 34.4485 42.3684 34.6131 42.1179 34.7019C41.7946 34.815 41.4888 34.5711 41.3848 34.2844C41.2199 33.8273 41.6034 33.4287 42.0029 33.2473C41.6108 33.1835 41.2248 33.3172 40.9415 33.62C40.9026 33.6624 40.8367 33.6282 40.8347 33.576C40.8019 32.8577 41.5502 32.3974 42.1969 32.3624Z" fill="black"/>
<path fill-rule="evenodd" clip-rule="evenodd" d="M67.1047 43.0743C66.3487 43.294 65.537 43.3138 64.7662 43.0867C64.0671 42.881 63.3491 42.4277 62.8346 41.8283C62.3778 41.2955 62.0818 40.6484 62.0933 39.9573C62.0945 39.8787 62.1228 39.8129 62.1662 39.7615C62.2124 39.7068 62.2775 39.6689 62.3471 39.6525C62.4187 39.6356 62.4944 39.6414 62.5591 39.671C62.6176 39.6973 62.6676 39.7426 62.6987 39.8088C62.7777 39.9129 62.8567 40.0157 62.9357 40.1157C63.5714 40.9035 64.187 41.4922 65.1432 41.7032C65.6619 41.818 66.1801 41.767 66.6553 41.5921C67.1641 41.405 67.6242 41.0759 67.9844 40.655C68.1473 40.4646 68.3397 40.3868 68.5276 40.3856C68.7408 40.3843 68.9512 40.4835 69.1101 40.6423C69.266 40.7986 69.3704 41.0105 69.3798 41.2326C69.3884 41.4272 69.325 41.6308 69.1567 41.8122C68.6017 42.4104 67.8829 42.8481 67.1047 43.0743ZM67.0814 33.207C67.8567 33.6797 69.0376 34.7822 68.2038 35.9546C67.2222 36.988 65.8092 35.8028 65.1129 35.2672C64.467 34.8517 63.7417 35.92 64.3405 36.4051C69.3729 40.1437 71.4146 33.3304 67.4736 32.6508C67.0397 32.5759 66.8784 33.0605 67.0814 33.207ZM59.8309 31.1262C59.5816 30.9666 59.2886 30.9115 58.964 31.06C58.7102 31.1756 58.2648 31.5619 57.9554 32.0695C57.7433 32.4167 57.5931 32.824 57.6242 33.2485C57.6316 33.3468 57.5951 33.4197 57.5378 33.4736C57.4928 33.5159 57.4273 33.5472 57.3508 33.5567C57.2857 33.5649 57.2128 33.5575 57.1535 33.539C57.0409 33.5036 56.9811 33.4304 56.9586 33.3703C56.7417 32.7923 56.8354 32.1473 57.0782 31.5652C57.4064 30.7798 58.002 30.1216 58.3925 29.9098C59.0606 29.5465 59.8485 29.5301 60.5174 29.8999C61.0867 30.2146 61.4429 30.7231 61.7969 31.241C61.8723 31.3512 61.9472 31.4607 62.0241 31.568C62.1788 31.7832 62.1944 31.9967 62.1346 32.1798C62.0679 32.3826 61.8989 32.5537 61.6872 32.6434C61.4916 32.7261 61.2644 32.7376 61.0634 32.6524C60.8935 32.5809 60.738 32.4406 60.6393 32.2032C60.4732 31.8029 60.1969 31.3611 59.8309 31.1262ZM72.483 32.0169C72.3123 32.1061 72.1788 32.1329 71.9897 32.0761C71.8849 32.0444 71.7818 31.9839 71.7007 31.9029C71.6205 31.8223 71.5624 31.7219 71.5399 31.6108C71.4846 31.3368 71.3352 31.0801 71.1219 30.9127C70.9398 30.7695 70.7101 30.6939 70.4551 30.7366C70.1801 30.7827 69.9177 30.9596 69.7372 31.1686C69.677 31.2385 69.6295 31.3175 69.582 31.3965C69.4932 31.5438 69.4068 31.6808 69.284 31.7889C69.2374 31.8301 69.1674 31.8589 69.0994 31.8589C69.072 31.8589 69.0442 31.8544 69.0171 31.8461C68.7433 31.5701 68.6909 31.3607 68.6995 31.1534C68.7089 30.9357 68.7945 30.7152 68.9324 30.5096C69.2566 30.0274 69.8718 29.6321 70.2873 29.5424C70.8559 29.4198 71.4207 29.5671 71.8735 29.8859C72.3397 30.2138 72.6848 30.7231 72.7924 31.2969C72.8182 31.4352 72.8071 31.5845 72.7548 31.7137C72.7036 31.84 72.6144 31.9482 72.483 32.0169ZM61.0851 25.9844C60.7437 26.318 60.3397 26.3698 59.9312 26.4159C59.704 26.4414 59.5227 26.4624 59.3442 26.5027C58.8543 26.6138 58.3696 26.7812 57.9275 27.0219C57.4654 27.2736 56.9615 27.5776 56.5992 27.9664C56.5133 28.0594 56.4318 28.1565 56.3504 28.2535C56.2763 28.3424 56.2051 28.428 56.1297 28.5102C56.043 28.6049 55.9611 28.7044 55.8792 28.8032C55.8289 28.8867 55.8191 28.9072 55.8088 28.9286C55.7933 28.9607 55.7757 28.9965 55.7552 29.0352C55.7274 29.0882 55.6946 29.1458 55.6606 29.1985C55.6037 29.2939 55.5735 29.3207 55.5469 29.3322C55.5031 29.3519 55.4617 29.3614 55.4216 29.3565C55.3839 29.3515 55.3483 29.333 55.3131 29.3034C55.1379 29.1549 55.0864 28.9109 55.0917 28.6522C55.0995 28.2593 55.2439 27.8245 55.377 27.5575C55.6864 26.9363 56.1154 26.2904 56.6316 25.8268C57.2202 25.2978 57.8645 24.8971 58.6041 24.6211C59.0638 24.4495 59.5964 24.292 60.0974 24.3121C60.458 24.3261 60.8019 24.4339 61.0863 24.7025C61.2607 24.8675 61.3446 25.102 61.3446 25.336C61.3446 25.575 61.2574 25.8157 61.0851 25.9844ZM73.1772 29.0401C73.1555 29.0759 73.1256 29.1006 73.092 29.1154C73.0572 29.1306 73.018 29.1351 72.9803 29.129C72.943 29.1224 72.9074 29.1055 72.8792 29.0796C72.8522 29.0545 72.8317 29.0216 72.8227 28.9813C72.5959 27.9824 72.1559 27.2395 71.2169 26.7602C70.7552 26.5245 70.2239 26.3748 69.7208 26.2555C69.5747 26.2205 69.4203 26.1983 69.2648 26.1753C68.7777 26.1041 68.2869 26.0222 67.9688 25.6269C67.7777 25.3887 67.697 25.0843 67.7425 24.8058C67.7855 24.5433 67.9381 24.3031 68.2157 24.1587C68.9066 23.8004 69.7654 24.1521 70.4633 24.452C70.5153 24.4742 70.5661 24.496 70.6156 24.517C71.2979 24.8062 71.9205 25.1875 72.4322 25.7334C72.8383 26.1662 73.2144 26.8063 73.3659 27.4645C73.492 28.0125 73.4621 28.5715 73.1772 29.0401Z" fill="black"/>
</svg>
