<svg width="32" height="32" viewBox="0 0 32 32" fill="none" xmlns="http://www.w3.org/2000/svg">
<path d="M32 12.4444V0H19.5556L24.5209 4.96533L16.8373 12.6489C15.0933 11.4062 12.9671 10.6667 10.6667 10.6667C4.784 10.6667 0 15.4507 0 21.3333C0 27.216 4.784 32 10.6667 32C16.5493 32 21.3333 27.216 21.3333 21.3333C21.3333 19.0329 20.5938 16.9067 19.3511 15.1627L27.0347 7.47911L32 12.4444ZM10.6667 28.4444C6.74489 28.4444 3.55556 25.2551 3.55556 21.3333C3.55556 17.4116 6.74489 14.2222 10.6667 14.2222C14.5884 14.2222 17.7778 17.4116 17.7778 21.3333C17.7778 25.2551 14.5884 28.4444 10.6667 28.4444Z" fill="#55ACEE"/>
</svg>
