<svg width="5" height="16" viewBox="0 0 5 16" fill="none" xmlns="http://www.w3.org/2000/svg">
<path d="M2.27002 6C1.17002 6 0.27002 6.9 0.27002 8C0.27002 9.1 1.17002 10 2.27002 10C3.37002 10 4.27002 9.1 4.27002 8C4.27002 6.9 3.37002 6 2.27002 6ZM2.27002 0C1.17002 0 0.27002 0.9 0.27002 2C0.27002 3.1 1.17002 4 2.27002 4C3.37002 4 4.27002 3.1 4.27002 2C4.27002 0.9 3.37002 0 2.27002 0ZM2.27002 12C1.17002 12 0.27002 12.9 0.27002 14C0.27002 15.1 1.17002 16 2.27002 16C3.37002 16 4.27002 15.1 4.27002 14C4.27002 12.9 3.37002 12 2.27002 12Z" fill="black"/>
</svg>
