<svg width="5" height="17" viewBox="0 0 5 17" fill="none" xmlns="http://www.w3.org/2000/svg">
<path d="M2.50401 6.44749C1.29841 6.44749 0.312012 7.35968 0.312012 8.47458C0.312012 9.58949 1.29841 10.5017 2.50401 10.5017C3.70961 10.5017 4.69601 9.58949 4.69601 8.47458C4.69601 7.35968 3.70961 6.44749 2.50401 6.44749ZM2.50401 0.366211C1.29841 0.366211 0.312012 1.2784 0.312012 2.3933C0.312012 3.50821 1.29841 4.4204 2.50401 4.4204C3.70961 4.4204 4.69601 3.50821 4.69601 2.3933C4.69601 1.2784 3.70961 0.366211 2.50401 0.366211ZM2.50401 12.5288C1.29841 12.5288 0.312012 13.441 0.312012 14.5559C0.312012 15.6708 1.29841 16.583 2.50401 16.583C3.70961 16.583 4.69601 15.6708 4.69601 14.5559C4.69601 13.441 3.70961 12.5288 2.50401 12.5288Z" fill="black"/>
</svg>
