<svg width="15" height="17" viewBox="0 0 15 17" fill="none" xmlns="http://www.w3.org/2000/svg">
<g clip-path="url(#clip0)">
<path d="M15.0008 6.96967C13.5267 6.97316 12.0888 6.51729 10.8902 5.66644V11.6005C10.8898 12.6996 10.551 13.7723 9.91922 14.6753C9.28742 15.5783 8.39268 16.2684 7.35466 16.6535C6.31663 17.0386 5.18478 17.1003 4.11047 16.8303C3.03615 16.5602 2.07057 15.9714 1.34283 15.1425C0.615096 14.3135 0.159896 13.2841 0.0380976 12.1917C-0.0837009 11.0993 0.133708 9.99603 0.661254 9.02947C1.1888 8.06292 2.00134 7.27911 2.99022 6.78286C3.9791 6.28661 5.09718 6.10157 6.19497 6.25248V9.23711C5.69262 9.08041 5.15319 9.08513 4.6537 9.2506C4.15422 9.41606 3.72023 9.7338 3.41371 10.1585C3.10719 10.5831 2.94381 11.0929 2.94692 11.6152C2.95002 12.1374 3.11944 12.6453 3.43098 13.0663C3.74252 13.4873 4.18026 13.8 4.68167 13.9596C5.18309 14.1192 5.72254 14.1176 6.223 13.9551C6.72345 13.7925 7.15932 13.4773 7.46834 13.0545C7.77737 12.6316 7.94376 12.1227 7.94375 11.6005V0H10.8902C10.8881 0.246746 10.909 0.493155 10.9525 0.736113C11.0548 1.27848 11.2677 1.79443 11.5781 2.25241C11.8884 2.71039 12.2898 3.10077 12.7575 3.39967C13.4229 3.83599 14.203 4.06854 15.0008 4.06838V6.96967Z" fill="#99AAB5"/>
</g>
<defs>
<clipPath id="clip0">
<rect width="15" height="17" fill="white"/>
</clipPath>
</defs>
</svg>
