<svg width="20" height="32" viewBox="0 0 20 32" fill="none" xmlns="http://www.w3.org/2000/svg">
<path d="M10 0C4.485 0 0 4.30818 0 9.60576C0 14.3558 3.61167 18.3022 8.33333 19.0674V24.0144H3.33333V27.2163H8.33333V32H11.6667V27.2163H16.6667V24.0144H11.6667V19.0674C16.3883 18.3006 20 14.3558 20 9.60576C20 4.30818 15.515 0 10 0ZM10 16.0096C6.32333 16.0096 3.33333 13.1375 3.33333 9.60576C3.33333 6.07404 6.32333 3.20192 10 3.20192C13.6767 3.20192 16.6667 6.07404 16.6667 9.60576C16.6667 13.1375 13.6767 16.0096 10 16.0096Z" fill="#C4C4C4"/>
</svg>
