<svg width="21" height="19" viewBox="0 0 21 19" fill="none" xmlns="http://www.w3.org/2000/svg">
<mask id="mask0_2767:143" style="mask-type:alpha" maskUnits="userSpaceOnUse" x="0" y="0" width="21" height="19">
<path fill-rule="evenodd" clip-rule="evenodd" d="M0 0H20.0137V18.1855H0V0Z" fill="white"/>
</mask>
<g mask="url(#mask0_2767:143)">
<path fill-rule="evenodd" clip-rule="evenodd" d="M10.0127 1.5C9.53671 1.5 9.11271 1.746 8.87471 2.159L1.67671 14.724C1.44271 15.134 1.44471 15.623 1.68171 16.032C1.91871 16.441 2.34271 16.686 2.81571 16.686H17.1987C17.6707 16.686 18.0947 16.441 18.3317 16.032C18.5697 15.623 18.5717 15.134 18.3357 14.724L11.1507 2.159C10.9137 1.746 10.4897 1.5 10.0127 1.5ZM17.1987 18.186H2.81571C1.80171 18.186 0.892708 17.662 0.383708 16.784C-0.125292 15.907 -0.128292 14.858 0.374708 13.979L7.57471 1.413C8.08071 0.528 8.99171 0 10.0127 0H10.0137C11.0337 0 11.9467 0.529 12.4527 1.415L19.6387 13.979C20.1417 14.858 20.1387 15.907 19.6297 16.784C19.1207 17.662 18.2117 18.186 17.1987 18.186Z" fill="black"/>
</g>
<path fill-rule="evenodd" clip-rule="evenodd" d="M10.0039 11.1645C9.58991 11.1645 9.25391 10.8285 9.25391 10.4145V7.31445C9.25391 6.90045 9.58991 6.56445 10.0039 6.56445C10.4179 6.56445 10.7539 6.90045 10.7539 7.31445V10.4145C10.7539 10.8285 10.4179 11.1645 10.0039 11.1645Z" fill="black"/>
<path fill-rule="evenodd" clip-rule="evenodd" d="M10.0059 14.499C9.45292 14.499 9.00092 14.052 9.00092 13.499C9.00092 12.946 9.44392 12.499 9.99592 12.499H10.0059C10.5589 12.499 11.0059 12.946 11.0059 13.499C11.0059 14.052 10.5589 14.499 10.0059 14.499Z" fill="black"/>
</svg>
