<svg width="20" height="20" viewBox="0 0 20 20" fill="none" xmlns="http://www.w3.org/2000/svg">
<path d="M9.16709 14.1671C9.8237 14.1671 10.4739 14.0378 11.0805 13.7865C11.6871 13.5352 12.2383 13.1669 12.7026 12.7026C13.1669 12.2383 13.5352 11.6871 13.7865 11.0805C14.0378 10.4739 14.1671 9.8237 14.1671 9.16709C14.1671 8.51048 14.0378 7.8603 13.7865 7.25367C13.5352 6.64704 13.1669 6.09584 12.7026 5.63155C12.2383 5.16726 11.6871 4.79896 11.0805 4.54769C10.4739 4.29641 9.8237 4.16709 9.16709 4.16709C7.841 4.16709 6.56923 4.69387 5.63155 5.63155C4.69387 6.56923 4.16709 7.841 4.16709 9.16709C4.16709 10.4932 4.69387 11.7649 5.63155 12.7026C6.56923 13.6403 7.841 14.1671 9.16709 14.1671ZM14.4338 13.2554L17.4171 16.2388C17.4966 16.3157 17.56 16.4077 17.6036 16.5094C17.6472 16.6111 17.6702 16.7204 17.671 16.8311C17.6719 16.9417 17.6508 17.0515 17.6088 17.1538C17.5668 17.2562 17.5049 17.3492 17.4266 17.4274C17.3483 17.5056 17.2552 17.5674 17.1527 17.6092C17.0503 17.6511 16.9405 17.6721 16.8299 17.671C16.7193 17.67 16.6099 17.6469 16.5083 17.6032C16.4066 17.5594 16.3147 17.4959 16.2379 17.4163L13.2546 14.4329C11.915 15.4728 10.2294 15.9631 8.54105 15.8039C6.85268 15.6448 5.28842 14.8482 4.16671 13.5763C3.045 12.3044 2.45016 10.6529 2.50327 8.95786C2.55639 7.26284 3.25348 5.65177 4.45262 4.45262C5.65177 3.25348 7.26284 2.55639 8.95786 2.50327C10.6529 2.45016 12.3044 3.045 13.5763 4.16671C14.8482 5.28842 15.6448 6.85268 15.8039 8.54105C15.9631 10.2294 15.4728 11.915 14.4329 13.2546L14.4338 13.2554Z" fill="#858C9D"/>
</svg>
