<svg width="100" height="146" viewBox="0 0 100 146" fill="none" xmlns="http://www.w3.org/2000/svg">
<path fill-rule="evenodd" clip-rule="evenodd" d="M92.5872 91.32C92.169 90.1717 92.7794 89.0258 93.1183 87.9153C94.3214 84.0621 95.6348 80.2089 97.4937 76.6158C98.1979 75.4139 97.0395 73.9393 95.6972 74.2782C93.3998 74.6001 91.0301 74.3437 88.729 74.2013C87.8868 72.0231 85.6405 71.1191 83.8723 69.865C81.866 68.6121 79.9139 67.1727 77.8276 66.0747C77.7111 65.0366 76.4538 64.7796 75.684 65.5217C73.5719 64.207 71.0383 64.4514 68.7732 63.5903C67.0528 60.8074 66.9237 57.8814 66.4677 55.1973C66.2692 54.0269 66.4803 52.8981 65.6809 51.8549C62.9962 48.0773 52.3877 46.4389 48.4759 48.6776C46.3707 47.3643 46.3197 49.7435 45.9852 51.2118C45.6136 51.9463 45.4126 52.7784 45.475 53.6546C43.2129 58.3803 38.0388 60.517 33.4053 62.2474C32.824 61.688 31.9932 61.7585 31.4401 62.2215C27.4237 63.0952 23.5256 64.6303 20.1606 67.0278C16.3374 68.1465 13.6449 71.2571 11.6978 74.5925C11.4834 74.944 11.4328 75.3024 11.4954 75.6319C5.50826 84.4117 2.65069 94.9225 2.24937 105.538C-1.60082 107.85 4.07935 128.616 5.40168 132.927C5.403 132.926 5.40432 132.926 5.40565 132.925C6.26347 134.444 7.23751 138.78 9.3844 138.444C10.8571 140.11 13.204 139.783 15.2025 139.911C14.8769 141.16 15.0368 142.589 15.4243 143.823C15.8825 145.292 18.131 145.342 18.4499 143.741C38.3512 147.608 58.7713 144.522 78.8966 145.102C84.7151 145.144 90.5337 145.324 96.3384 145.739C97.156 145.797 97.985 144.961 97.929 144.148C96.6811 130.864 95.5088 113.39 94.1135 100.238C93.7822 97.2381 93.5208 94.2057 92.5872 91.32Z" fill="white"/>
<path fill-rule="evenodd" clip-rule="evenodd" d="M46.314 49.4979C46.3707 49.3417 46.6038 49.3625 46.6082 49.5376C46.6995 53.2724 45.7704 57.8361 42.7827 60.359C41.2494 61.6541 39.2217 62.2468 37.3597 62.9278L37.1499 63.0053L33.8603 64.2311C32.9878 64.5561 32.0466 65.0563 31.276 64.5971C31.8996 66.1441 32.4231 67.7334 33.1826 69.2244C34.128 71.0808 35.2711 72.7791 36.6701 74.323C42.2126 80.442 50.9836 82.3085 58.8551 80.5157C62.9086 79.5923 66.8525 77.8424 69.6178 74.6512C71.7193 72.226 72.9268 68.97 73.2115 65.7586C73.1284 65.7719 73.0408 65.7719 72.9514 65.7517C71.9555 65.5344 70.9501 65.0002 70.0739 64.4767L69.9895 64.4263C69.146 63.9186 68.2673 63.3366 67.6619 62.5473C67.061 61.7637 66.4305 59.2081 66.4305 59.2081C66.2585 58.2475 66.0972 56.3344 66.1249 55.3631C66.1275 55.2717 66.5338 55.2176 66.5772 55.3127C66.9527 56.1372 67.0742 57.9483 67.364 58.8062L67.4226 58.9769C67.7319 59.8733 67.9971 60.9637 68.639 61.6881C69.8434 63.0481 71.6607 63.6238 73.2827 64.306C73.3992 62.769 75.8534 62.8043 75.8219 64.4075C75.8207 64.4944 75.8162 64.5813 75.8137 64.6676C76.0071 64.7741 76.1929 64.8956 76.3668 65.0134L76.5369 65.1287C77.1794 65.5659 77.827 65.9816 78.511 66.352C79.8358 67.0707 81.238 67.6402 82.5948 68.2922C83.968 68.9517 85.2518 69.7372 86.4512 70.6783C87.0143 71.1199 87.5542 71.5904 88.0663 72.0899L88.2049 72.2273C88.6924 72.7129 89.3268 73.2559 89.6045 73.894C89.6656 74.0345 89.9724 74.3621 90.1387 74.3728C92.7176 74.5422 95.2908 74.781 97.8533 75.1387C98.5166 75.2313 98.7787 75.5734 98.5336 76.1271C97.6908 78.0276 94.3919 85.6193 93.5144 87.6565C93.6171 89.1532 93.4785 90.9151 93.5711 92.4124C93.7059 94.5969 93.883 96.7809 94.0952 98.9598C94.8537 106.752 96.0033 114.508 97.0426 122.267C97.5629 126.15 98.0366 130.039 98.5047 133.929C98.7415 135.895 98.9418 137.862 99.0962 139.836C99.1604 140.659 99.219 141.482 99.27 142.306L99.3147 143.036C99.3758 143.955 99.5163 144.833 98.9475 145.622C98.6899 145.98 98.1015 146.182 97.762 145.775C97.3362 145.264 97.1781 144.882 97.1371 144.211C97.1056 143.697 97.0987 143.181 97.0748 142.666C97.0244 141.551 96.9607 140.436 96.8864 139.322C96.7377 137.096 96.5683 134.87 96.3711 132.647C95.6826 124.851 94.373 117.114 93.5019 109.338C93.0628 105.418 92.751 101.49 92.5853 97.5481C92.5028 95.5796 92.4732 93.6111 92.4921 91.6414C92.4996 90.905 92.5343 90.1724 92.5853 89.4417C91.2795 92.408 89.9075 95.3459 88.4732 98.2448L88.133 98.9308C87.2234 100.763 86.2899 102.602 85.1976 104.329L85.0099 104.624C84.5671 105.326 83.9624 106.432 83.1548 106.653C82.5929 106.807 81.9057 106.699 81.3293 106.688C80.7567 106.677 80.1841 106.674 79.6128 106.651C78.9709 106.625 78.3592 106.541 77.7394 106.374C77.6367 106.346 77.5391 106.316 77.4502 106.278C76.826 107.3 75.7652 108.078 74.6805 108.532C73.8112 108.895 72.901 109.144 71.9889 109.375L71.6663 109.456C70.6887 109.7 69.57 109.815 69.0188 110.76L68.8903 110.979C68.4802 111.676 68.0871 112.288 67.4081 112.788C66.678 113.326 65.8125 113.664 64.9501 113.927C64.0676 114.197 63.1643 114.403 62.268 114.624L62.0235 114.685C61.432 114.833 60.8349 114.969 60.2472 115.13C59.9958 115.199 59.7407 115.27 59.4944 115.354C59.2059 115.454 58.9968 115.608 58.7694 115.776C58.5647 116.491 57.691 116.878 56.9729 116.829C56.5955 116.803 56.2573 116.675 55.9492 116.487C55.4119 116.945 54.8198 117.355 54.2718 117.779C53.5045 118.373 52.7341 118.962 51.96 119.546C50.3631 120.751 48.7537 121.939 47.1278 123.104C44.2422 125.171 41.2935 127.144 38.2951 129.044C37.0447 129.836 35.7861 130.627 34.515 131.399L34.6507 131.449L34.9198 131.551C35.5557 131.789 36.2644 132.172 36.3877 132.914C36.4853 133.503 36.1566 133.909 35.5756 133.981C34.885 134.066 34.3476 133.578 33.9176 133.112C33.7279 132.907 33.5155 132.716 33.3337 132.504C33.2596 132.418 33.2026 132.318 33.1524 132.214C31.898 132.953 30.6303 133.668 29.3425 134.336L29.0201 134.502C25.8266 136.136 22.7182 137.926 19.4975 139.513C18.6573 139.927 17.633 140.375 16.5653 140.681C16.8486 141.779 16.8442 142.985 16.8514 144.1C16.8582 145.187 15.132 145.182 15.1685 144.1L15.186 143.578C15.2175 142.7 15.2688 141.788 15.4771 140.934C12.3312 141.455 9.18859 140.322 8.60345 139.981C7.9576 139.605 7.37133 139.004 6.88346 138.446C5.83943 137.253 5.11496 135.821 4.4722 134.382C3.09532 131.299 2.11983 128.003 1.40663 124.708C-1.22265 112.557 -0.0916942 99.5525 4.17821 87.9053C5.24498 84.9951 6.50444 82.1491 7.94771 79.4065L8.12692 79.0669C9.56717 76.3545 11.1679 73.6528 13.2011 71.3441C15.319 68.9397 17.9315 67.0701 20.776 65.6188C22.1642 64.9101 23.5925 64.2966 25.0524 63.7523C25.2869 63.6648 25.523 63.5867 25.7596 63.5117C27.281 62.5416 29.1274 61.6131 30.9744 61.6497C31.0999 61.6522 31.2016 61.7001 31.2775 61.7712C31.3665 61.787 31.4555 61.8059 31.5447 61.8317C31.7415 61.889 31.9494 62.1051 31.9212 62.3268L31.9116 62.4005C31.9064 62.4364 31.8998 62.4711 31.8885 62.5051C31.9546 62.5152 32.0194 62.5309 32.0829 62.5523C33.85 62.0534 35.5887 61.2894 37.3131 60.6739L37.7062 60.5347C39.1506 60.0289 40.6321 59.5325 41.817 58.5303C42.9956 57.5331 43.8819 56.2418 44.5225 54.8459C45.3118 53.1262 45.6658 51.2636 46.314 49.4979ZM81.6946 140.204C82.0449 139.944 82.4587 140.246 82.5891 140.568C83.0194 141.626 82.8071 143.27 82.2011 144.205C81.5731 145.174 80.0701 144.791 80.0336 143.618C79.9958 142.394 80.7069 140.94 81.6946 140.204ZM85.3091 110.996C85.3406 110.859 85.5542 110.86 85.5857 110.996C85.8773 112.238 85.8704 113.575 85.956 114.847L85.9661 114.988C86.0682 116.392 86.1545 117.799 86.2162 119.204C86.3372 121.97 86.4814 124.736 86.6427 127.5C86.7233 128.87 86.809 130.241 86.9009 131.61C87.1882 131.45 87.4836 131.31 87.7904 131.186C88.2496 131 88.6968 130.979 89.1907 130.984C89.7916 130.99 90.2445 131.519 90.1645 132.108C90.0782 132.75 89.5132 133.025 88.9268 132.933C88.2773 132.831 87.6253 132.674 86.9696 132.609C87.0427 133.668 87.1182 134.727 87.1982 135.785C87.3041 137.186 87.4427 138.585 87.5397 139.988C87.5491 140.121 87.5592 140.255 87.5693 140.39C87.9605 140.186 88.3756 140.082 88.8461 139.954L88.9683 139.919C89.6518 139.723 90.3825 139.452 91.0149 139.911C91.4401 140.22 91.5252 140.728 91.173 141.136C90.6389 141.755 89.849 141.635 89.1113 141.603L88.7145 141.589C88.3409 141.574 87.9957 141.55 87.6499 141.455C87.7135 142.369 87.7469 143.285 87.6348 144.185C87.5743 144.672 86.9343 144.799 86.7649 144.303C86.3227 143.006 86.2313 141.608 86.0694 140.25C85.9183 138.982 85.8263 137.704 85.7268 136.43L85.6972 136.047C85.4742 133.245 85.2959 130.441 85.1661 127.632C85.0357 124.823 84.9576 122.015 84.9261 119.204C84.9123 117.928 84.9331 116.647 84.9828 115.37L84.9992 114.988C85.0565 113.675 85.0162 112.283 85.3091 110.996ZM26.8298 140.412C26.8468 140.232 26.9904 140.009 27.204 140.037C27.4008 140.063 27.6036 140.05 27.7983 140.083C28.0553 140.126 28.2621 140.277 28.5011 140.373C28.8896 140.528 29.313 140.609 29.7117 140.735C30.4594 140.974 30.8669 141.761 30.5573 142.497C30.2316 143.27 29.4133 143.446 28.7062 143.121C28.1489 142.866 27.7335 142.457 27.3587 141.984L27.2525 141.849C27.091 141.646 26.9078 141.419 26.84 141.173C26.7741 140.933 26.8066 140.655 26.8298 140.412ZM63.1605 136.777C64.0922 136.645 64.8878 136.964 65.7495 137.265L65.8194 137.288C66.6969 137.591 67.9763 137.801 68.426 138.699C68.6975 139.241 68.4865 139.96 67.8484 140.121C66.8374 140.374 65.9309 139.635 65.095 139.137L65.0516 139.111C64.2446 138.638 63.4119 138.241 62.8966 137.426C62.7593 137.208 62.8783 136.817 63.1605 136.777ZM30.6465 62.6758C30.2733 62.7589 29.9001 62.8333 29.5273 62.9038C28.1094 63.6648 26.7331 64.4534 25.269 65.1306C23.7157 65.8493 22.1681 66.592 20.6926 67.4613C17.7118 69.2181 15.2544 71.5022 13.2238 74.3016C9.71633 79.1381 7.10727 84.7148 5.24 90.374C4.76026 91.8278 4.3309 93.298 3.95113 94.7803C4.62262 94.1591 5.41764 93.7774 6.30916 93.4499C6.68699 93.3113 7.15729 93.5462 7.34885 93.8732C7.43489 94.0199 7.48352 94.1655 7.47458 94.3381C7.45474 94.7185 7.20724 95.1507 6.79867 95.2262C5.84617 95.402 4.92007 95.7434 4.00171 96.0445C3.8625 96.0905 3.74281 96.0728 3.64732 96.0193C2.73557 99.8826 2.16518 103.825 1.96316 107.792C1.79227 111.15 1.89765 114.535 2.26949 117.888C2.55522 117.76 2.83472 117.639 3.14798 117.566C3.55428 117.472 3.9539 117.357 4.35024 117.227C5.49392 116.851 6.01562 118.74 4.84662 119.028C4.4116 119.135 3.97387 119.224 3.53059 119.29C3.14426 119.346 2.80247 119.321 2.43825 119.262C2.71648 121.354 3.09658 123.431 3.58073 125.479L3.68757 125.927C4.31648 128.541 5.04945 131.181 6.10942 133.653C6.62935 134.865 7.31779 136.016 8.1678 137.027C8.58544 137.524 9.04893 137.95 9.55438 138.354C9.97517 138.689 11.4056 139.418 13.0996 139.418C14.7937 139.418 15.2524 139.258 16.1071 138.964C17.7973 138.382 19.4022 137.453 20.9873 136.625L21.1513 136.54C21.8522 136.177 22.5504 135.809 23.2469 135.438C23.1589 134.727 23.3129 134.131 23.6828 133.475C24.0828 132.765 25.0736 133.118 25.1473 133.845L25.1497 133.872C25.1608 134.036 25.1883 134.202 25.2224 134.369C29.879 131.817 34.437 129.086 38.9225 126.241C41.812 124.408 44.6705 122.521 47.4875 120.578C48.8954 119.607 50.2913 118.618 51.6733 117.61C52.3971 117.082 53.1177 116.55 53.8352 116.012C54.1338 115.789 54.4273 115.554 54.7266 115.329C54.6535 115.238 54.5829 115.147 54.5143 115.057C53.3962 113.593 52.6705 111.847 52.3089 110.046C52.091 108.96 51.9851 107.832 51.953 106.724L51.9392 106.242C51.9171 105.43 51.9115 104.581 52.0607 103.794C51.8573 103.907 51.6494 104.016 51.4422 104.133C50.6989 104.555 49.9543 104.975 49.2091 105.394C47.7168 106.231 46.2195 107.059 44.7033 107.854C41.9953 109.273 39.2608 110.623 36.4525 111.833L35.086 112.422C32.7144 113.443 30.3233 114.444 27.8575 115.203C26.4666 115.631 25.0653 115.997 23.6545 116.323L24.225 116.992C24.6119 117.445 24.6186 118.095 24.1243 118.477C23.6382 118.853 22.9861 118.696 22.6624 118.198L22.0721 117.29C21.946 117.096 21.8744 116.914 21.8338 116.722C21.1839 116.858 20.5324 116.989 19.879 117.115L18.6439 117.351C16.8803 117.692 15.1704 118.366 13.5939 119.229C13.046 119.529 12.8933 118.946 13.4739 118.54C15.1717 117.352 17.1521 116.681 19.1954 116.117L19.2958 116.089C20.0454 115.884 20.7938 115.67 21.5405 115.448C21.4584 115.151 21.411 114.842 21.4205 114.502C21.4415 113.745 21.5084 112.985 21.5486 112.228C21.633 110.639 21.7407 109.056 21.8668 107.47C21.9153 106.86 21.9695 106.247 22.0317 105.635C21.6312 105.42 21.2859 105.135 20.8394 104.995L20.7641 104.973C20.2866 104.844 20.4478 104.228 20.8719 104.175C21.2561 104.128 21.6384 104.15 22.0172 104.232C22.0759 104.244 22.1314 104.259 22.1843 104.274C22.2539 103.707 22.3312 103.142 22.4188 102.58C22.6508 101.095 22.8149 99.5292 23.2977 98.1018C23.3335 97.9966 23.4904 97.9588 23.5485 98.0691C24.251 99.4064 24.2754 101.046 24.3545 102.535L24.3643 102.712C24.4576 104.336 24.463 105.976 24.4329 107.602C24.402 109.278 24.3446 110.95 24.2695 112.624C24.2392 113.299 24.2404 113.998 24.1256 114.643C28.3054 113.283 32.4114 111.656 36.347 109.729C39.1235 108.371 41.8756 106.957 44.5962 105.491C45.9594 104.756 47.3294 104.034 48.6913 103.296C49.1682 103.038 49.645 102.778 50.1219 102.519L50.8362 102.129C51.5052 101.764 52.0633 101.4 52.8425 101.375C53.0749 101.367 53.2828 101.476 53.4308 101.641C53.8497 101.343 54.3335 101.161 54.8412 101.166C55.6059 100.109 56.382 99.0618 57.1889 98.0369L57.7848 97.2779C58.8173 95.9689 59.9102 94.6398 61.2261 93.6433C61.8131 93.1992 62.4594 92.8653 63.1328 92.59C62.9741 92.551 62.8191 92.4735 62.6812 92.345C62.0374 91.7478 61.9486 90.6392 61.8182 89.8064C61.6828 88.9428 61.735 88.1699 61.8686 87.3094C61.9209 86.9743 62.4746 86.905 62.61 87.2124C62.8947 87.86 63.1965 88.4811 63.456 89.1362L63.5322 89.334C63.8106 90.0716 64.4034 90.847 64.3643 91.6477C64.3536 91.8669 64.2799 92.0577 64.1665 92.2114C64.7322 92.0237 65.306 91.8562 65.8705 91.681C67.6481 91.1318 69.4326 90.5982 71.2443 90.1718C71.7268 90.0584 72.2112 89.9532 72.6982 89.8562C72.9526 88.6455 73.3243 87.4568 73.7627 86.2896C73.3476 86.0767 73.0792 85.7201 72.7221 85.4033C72.3876 85.1066 72.1583 84.745 71.873 84.4042C71.6134 84.0943 71.7589 83.5337 72.2257 83.5519L72.358 83.5576C72.8411 83.5803 73.3092 83.6301 73.7476 83.8556L73.9038 83.9362C74.118 84.0477 74.3523 84.1749 74.5614 84.3255C74.8342 83.6975 75.1177 83.0751 75.4049 82.459L75.7772 81.6628C76.7422 79.5891 77.7047 77.4373 78.9167 75.5073C79.4553 74.6487 80.1721 74.1126 81.2008 74.0301C82.2609 73.9444 83.362 74.0547 84.4235 74.0931C85.6537 74.1372 86.8833 74.1888 88.1123 74.2537C87.7967 73.9236 87.5094 73.5564 87.1932 73.2395C86.6679 72.7142 86.1135 72.2166 85.5302 71.7561C84.3756 70.8452 83.1069 70.095 81.7885 69.4487C80.4701 68.8024 79.1132 68.2386 77.8755 67.4399C77.0925 66.9347 76.392 66.2991 75.7533 65.6112C75.3514 69.9501 73.2569 73.981 70.1111 77.0096C66.843 80.1548 62.3272 81.8827 57.9089 82.6178C53.4031 83.3674 48.7001 83.0921 44.3896 81.5255C42.1666 80.7173 40.035 79.5633 38.1339 78.1157C38.1131 78.2411 38.0879 78.3658 38.0387 78.483C37.9726 78.6405 37.8913 78.774 37.7981 78.912L37.6325 79.1545C37.5279 79.3069 37.4214 79.4581 37.303 79.5992C37.0156 79.9419 36.6085 80.0918 36.17 80.0899C35.3304 80.0874 34.6945 79.2635 34.9205 78.449C35.0625 77.9375 35.3663 77.6294 35.8406 77.4291C35.9905 77.3655 36.1433 77.3126 36.297 77.2603L36.4124 77.2213C36.5676 77.1677 36.7218 77.1173 36.8816 77.0877C35.9814 76.2928 35.1462 75.4285 34.3983 74.4962C32.0524 71.5709 29.7387 67.4745 30.5229 63.5898C30.5365 63.523 30.5966 63.4808 30.6612 63.4701C30.7067 63.1974 30.8518 62.9341 31.0505 62.7564C30.9168 62.7212 30.782 62.6941 30.6465 62.6758ZM55.0056 129.841C55.4699 129.582 55.9499 130.196 55.5725 130.576L55.0088 131.14C54.4853 131.666 53.9763 132.197 53.5285 132.796L53.4201 132.943C52.8154 133.766 52.171 134.719 51.1807 135.026C49.9826 135.399 48.8312 133.939 49.5253 132.872C50.1313 131.94 51.2979 131.589 52.3039 131.203C53.2557 130.839 54.1155 130.335 55.0056 129.841ZM16.3584 125.54C16.6313 125.183 17.343 125.371 17.1566 125.877C16.551 127.52 16.3041 129.759 14.7745 130.851C14.281 131.202 13.5057 131.041 13.0994 130.635C12.6378 130.172 12.6193 129.522 12.8833 128.959C13.2053 128.271 13.9974 127.773 14.5525 127.249L14.6024 127.202C15.1997 126.621 15.8456 126.211 16.3584 125.54ZM80.2893 127.431C80.7762 127.22 82.0461 126.812 82.4222 127.295C82.4398 127.313 82.455 127.333 82.4669 127.354C82.5595 127.515 82.5734 127.741 82.4669 127.9C82.0285 128.559 81.5718 129.051 80.9488 129.52L80.8789 129.573C80.1999 130.071 79.5624 130.658 78.7353 130.883C77.5888 131.195 76.7882 129.76 77.5932 128.921C78.2421 128.246 79.2323 127.895 80.0915 127.518L80.2893 127.431ZM34.2583 118.045C34.0665 117.698 34.4583 117.273 34.8131 117.489C35.8251 118.109 37.0042 118.573 38.1408 118.906C38.6013 119.042 39.0164 119.508 38.9817 120.011L38.9767 120.087C38.9628 120.266 38.9383 120.442 38.8255 120.59C38.4293 121.108 37.863 121.307 37.2583 121.001C35.9104 120.317 34.9877 119.363 34.2583 118.045ZM63.8396 116.995C63.8144 116.849 63.9215 116.737 64.0695 116.765C64.9249 116.927 65.7149 117.34 66.4494 117.815C66.8431 118.07 67.2229 118.35 67.616 118.607C68.1016 118.925 68.283 119.187 68.3549 119.77C68.4021 120.155 68.043 120.507 67.7136 120.613C66.816 120.902 65.7873 119.952 65.1794 119.335L65.1517 119.307C64.5155 118.658 63.9901 117.89 63.8396 116.995ZM89.5283 115.986C89.333 115.46 90.0052 115.023 90.4449 115.282C90.8581 115.525 91.3072 115.727 91.6978 116.006C92.0562 116.263 92.3831 116.567 92.727 116.845L92.8971 116.979C93.5283 117.487 94.5689 118.741 93.6675 119.469C92.8089 120.162 91.6707 119.277 91.0943 118.63L91.0546 118.585C90.7226 118.202 90.3145 117.786 90.0738 117.338C89.8471 116.917 89.694 116.434 89.5283 115.986ZM81.0628 75.215C79.9876 75.4235 79.5491 76.7513 79.0969 77.6162C78.0279 79.6584 77.0452 81.7384 76.0588 83.8209C75.7545 84.4609 75.4591 85.1066 75.1605 85.751C75.1422 85.8014 75.1189 85.8512 75.0912 85.9003C74.4796 87.2174 73.8496 88.5258 73.1139 89.7762C73.7873 89.6496 74.4644 89.5418 75.1441 89.4574C75.1101 88.8174 75.5479 87.9608 75.7646 87.4215L75.7829 87.3762C76.0531 86.6858 76.3366 85.5973 77.032 85.2389C77.2638 85.1198 77.512 85.2691 77.5296 85.5249C77.5825 86.2852 76.8392 87.1551 76.4758 87.8001C76.2559 88.1907 76.0424 88.5825 75.8333 88.9787C75.7551 89.1274 75.6896 89.2729 75.6096 89.4039C75.9599 89.3655 76.3107 89.3321 76.6628 89.3075L76.8922 89.2918C78.1967 89.2055 79.5819 89.1809 80.7605 89.8247C81.854 90.4212 82.4134 91.6955 81.8124 92.8559C81.0641 94.3015 79.4162 94.493 77.9668 94.6102C76.1564 94.7563 74.3422 95.0196 72.5451 95.2773C70.6856 95.5431 68.935 96.2284 67.1038 96.5812C66.9331 96.6139 66.8273 96.391 66.9835 96.2958C68.4279 95.4158 70.1841 94.9321 71.7993 94.4388L71.9303 94.3992C72.8065 94.1295 73.6626 93.8221 74.569 93.6697C75.4484 93.521 76.334 93.4014 77.221 93.31L77.3073 93.3018C78.2843 93.2199 80.7769 93.2477 80.6717 91.8007C80.6017 90.8433 79.0458 90.6776 78.3353 90.6663C75.078 90.614 71.798 91.4788 68.7026 92.4055L68.0116 92.6127C66.7442 92.9944 65.4749 93.3869 64.2308 93.8341C62.8216 94.3406 61.7111 95.1311 60.685 96.2121C59.5467 97.4114 58.4443 98.6372 57.2639 99.7963C56.5193 100.527 55.7653 101.244 55.0056 101.956C54.8336 102.178 54.6963 102.42 54.6012 102.734C54.4406 103.264 54.4777 103.757 54.5382 104.301C54.6913 105.677 54.7253 107.066 54.9168 108.437C55.0944 109.707 55.3433 111.023 55.8705 112.201C56.079 112.668 56.3505 113.126 56.6604 113.536L56.9099 113.861C57.0188 114.002 57.1404 114.156 57.2683 114.301C57.456 114.072 57.7275 113.923 58.0431 113.961C58.7133 114.039 59.2406 114.02 59.8982 113.866C60.4078 113.747 60.913 113.607 61.4195 113.478C62.4154 113.224 63.4194 112.993 64.4046 112.701L64.5741 112.65C65.3086 112.425 66.0431 112.143 66.6541 111.668C67.364 111.118 67.5826 110.323 68.1086 109.636C69.2311 108.167 71.6581 108.198 73.301 107.796C74.6975 107.455 76.0411 106.916 77.0074 105.902L77.0635 105.842C77.0206 105.661 77.0899 105.457 77.2581 105.363L77.2947 105.343C77.3602 105.306 77.4307 105.291 77.5 105.292C77.5895 105.161 77.6764 105.025 77.7551 104.88C77.8194 104.76 77.9813 104.848 77.9599 104.966C77.9473 105.037 77.9296 105.105 77.9132 105.174C78.8493 104.933 79.8773 104.979 80.8273 104.98L82.0606 104.975C82.2742 104.973 82.5923 104.962 82.6206 104.949L82.6496 104.936C82.7265 104.903 82.6175 104.958 82.671 104.887C82.7302 104.808 82.7882 104.729 82.8455 104.649C83.0502 104.362 83.2436 104.067 83.4326 103.77C81.3677 104.296 79.2279 104.624 77.1195 104.897C74.8569 105.19 72.5646 105.394 70.2824 105.396C69.6531 105.396 69.6588 104.446 70.2824 104.422C72.6994 104.33 75.1038 104.202 77.5044 103.892C78.746 103.731 79.9825 103.53 81.2115 103.295C81.6865 103.204 82.1595 103.108 82.632 103.006L82.986 102.929C83.2083 102.88 83.8357 102.809 84.1419 102.604C84.2024 102.501 84.2622 102.397 84.322 102.294C84.2924 101.931 83.3709 101.98 83.1548 101.979C82.5419 101.978 81.929 101.983 81.3154 101.985C80.0896 101.988 78.8644 101.977 77.638 101.968C75.1888 101.947 72.7303 101.862 70.283 101.967C69.689 101.992 69.3772 101.039 69.9643 100.788C72.5564 99.681 75.4339 99.4404 78.2018 99.1002C79.6575 98.9213 81.1139 98.7147 82.5362 98.3525L82.8884 98.2631C83.7822 98.0338 84.7693 97.7541 85.522 97.208C84.3907 96.75 82.9841 96.8029 81.8118 96.738L81.7217 96.7324C80.0795 96.6316 78.4348 96.5799 76.7895 96.5774C73.4232 96.573 70.0563 96.6921 66.6938 96.8521C66.6094 96.8558 66.5917 96.7223 66.6742 96.7047C70.13 95.9506 73.6424 95.5872 77.1794 95.5311C78.826 95.5047 80.4745 95.528 82.1199 95.601L82.7239 95.6288C84.1268 95.6892 85.6839 95.7056 86.8581 96.5535C87.037 96.6826 87.1315 96.8476 87.146 97.0221C88.7208 93.8826 90.1746 90.677 91.6348 87.4934C92.7699 85.0171 93.8628 82.5208 95.0389 80.0641L95.42 79.2698C95.9302 78.209 96.4524 77.1488 97.0325 76.1271C94.8631 75.8367 92.6817 75.6351 90.499 75.4808C88.5097 75.3403 82.0203 75.0291 81.0628 75.215ZM80.1022 109.243C80.3498 109.105 80.729 109.217 80.7895 109.523C80.8348 109.75 80.9123 110.002 80.9123 110.235C80.9123 110.513 80.8128 110.816 80.7599 111.088C80.6376 111.715 80.4877 112.224 80.169 112.782C79.9699 113.131 79.5674 113.369 79.163 113.359C78.843 113.352 78.5595 113.266 78.3397 113.018C78.0764 112.721 77.8956 112.284 78.0399 111.884C78.4184 110.836 79.1132 109.792 80.1022 109.243ZM27.6285 108.198C28.2074 107.183 29.5796 106.277 30.777 106.366C32.5751 106.501 32.942 108.923 31.2012 109.501C30.1606 109.847 28.7291 109.492 27.8188 108.923C27.5734 108.77 27.4834 108.452 27.6285 108.198ZM9.14909 104.732C9.01756 104.541 9.23489 104.323 9.43079 104.366C9.86531 104.461 10.3338 104.503 10.7594 104.633C11.1952 104.765 11.617 104.985 12.0488 105.136C12.9532 105.453 13.9192 105.612 14.7945 105.995C15.1444 106.148 15.4196 106.655 15.3872 107.028L15.379 107.116C15.3597 107.301 15.3275 107.463 15.2238 107.632C14.9453 108.088 14.3934 108.323 13.8725 108.183C12.9062 107.923 11.962 107.256 11.1381 106.702L10.9859 106.601C10.6259 106.363 10.2389 106.115 9.94877 105.81C9.64597 105.491 9.39715 105.093 9.14909 104.732ZM42.3657 101.044C42.2542 100.642 42.7531 100.378 43.0435 100.649C43.6236 101.19 44.2309 101.691 44.799 102.246L44.8375 102.284C45.2444 102.693 45.8371 103.482 45.3074 104.011C44.629 104.69 43.6841 103.683 43.32 103.158C42.8589 102.492 42.5817 101.821 42.3657 101.044ZM86.7888 97.7302C85.9277 98.6423 84.6011 99.0618 83.4326 99.4095C82.0474 99.8215 80.6206 100.067 79.192 100.27C77.8112 100.465 76.4418 100.64 75.083 100.865C76.111 100.877 77.1384 100.885 78.1633 100.903C79.3463 100.924 80.528 100.95 81.7098 100.984C82.5709 101.01 83.5806 100.891 84.3989 101.212C84.5463 101.269 84.6842 101.349 84.8046 101.446C85.4918 100.223 86.1513 98.9824 86.7888 97.7302ZM33.6708 89.1973C34.5696 88.9113 35.4148 88.5321 36.3677 88.631C36.6209 88.6568 36.8023 88.9031 36.6641 89.1469C36.2125 89.9418 35.4782 90.391 34.7554 90.9226L34.6917 90.9699C33.9005 91.5582 33.051 92.0949 32.1906 92.5781C30.7093 93.4095 29.3818 91.0297 30.8778 90.3311C31.778 89.911 32.7235 89.4984 33.6708 89.1973ZM49.8535 87.1305C51.2286 87.2212 52.6031 87.283 53.9795 87.3384C55.5744 87.4026 55.0384 89.8581 53.7061 89.3611C52.3902 88.8704 51.0737 88.3853 49.7458 87.9274C49.3414 87.7882 49.3741 87.1236 49.8277 87.1299L49.8535 87.1305ZM14.5833 82.7627C14.9397 82.7381 15.2992 82.8156 15.6562 82.8502L16.0359 82.8874C16.8189 82.9649 17.5529 83.0612 18.2995 83.38C19.6772 83.9683 18.9373 86.1838 17.5543 86.1327C16.5321 86.0949 15.658 85.6559 14.7949 85.145C14.0403 84.6978 13.5777 84.1384 13.0681 83.4367C12.8994 83.2042 13.1345 82.9441 13.3643 82.9208C13.7692 82.8792 14.1784 82.791 14.5833 82.7627ZM83.6417 78.2386C83.4137 79.6616 82.848 80.9951 81.9951 82.1567C81.5668 82.74 80.8147 82.762 80.3901 82.1567C79.7891 81.3 80.1595 80.3179 80.6118 79.4953L80.746 79.2546C80.9488 78.8931 81.26 78.3665 81.6153 78.0024L81.6216 77.9652C81.8118 76.4748 83.8767 76.7728 83.6417 78.2386ZM28.0224 69.106C28.3652 68.7967 28.9966 68.89 29.1078 69.3926C29.2635 70.0963 29.3583 70.8899 29.2564 71.6043C29.2011 71.9917 29.1803 72.4263 29.0281 72.7873C28.8644 73.1753 28.5495 73.4739 28.2529 73.7662C27.6607 74.3482 26.4123 74.1561 26.2536 73.2376L26.2335 73.1255C26.1537 72.6909 26.0516 72.2266 26.1698 71.7964C26.2589 71.4714 26.4583 71.14 26.6232 70.8389L26.6579 70.7747C26.9882 70.1592 27.5031 69.5734 28.0224 69.106ZM76.2099 70.6033L76.334 70.6052C77.2909 70.6241 79.0402 70.8566 79.0496 72.0395C79.0515 72.3186 78.8455 72.6071 78.569 72.6714C77.997 72.8043 77.6273 72.466 77.2191 72.1246C76.8858 71.8449 76.4972 71.6219 76.094 71.4619C75.6575 71.2881 75.6865 70.6027 76.2099 70.6033Z" fill="black"/>
<path fill-rule="evenodd" clip-rule="evenodd" d="M79.2399 35.8934C78.4053 29.8698 76.4966 24.0215 76.2226 17.9077C76.0595 15.2915 75.8963 12.6752 75.7338 10.0587C75.6721 8.42461 73.5499 7.8733 72.7392 9.32098C70.8973 7.27715 67.5984 7.57812 65.0819 7.64017C50.2662 8.1654 36.1867 18.1863 31.1009 32.1586C30.9786 32.4918 31.0156 32.8464 31.1539 33.1633C28.7833 41.0719 37.167 46.1636 42.8848 49.6898C45.2041 52.1421 47.9304 54.1793 51.0088 55.5745C54.5502 57.2407 58.4923 58.1704 62.4053 58.2593C63.2639 58.2788 63.7798 57.584 63.8422 56.8652C65.0907 56.5742 67.2267 56.91 67.8869 55.6306C75.4144 52.3594 80.3196 44.0691 79.2399 35.8934Z" fill="white"/>
<path fill-rule="evenodd" clip-rule="evenodd" d="M75.7175 14.532C75.696 14.3367 75.9782 14.3307 76.0362 14.4889C76.513 15.7892 77.0082 17.0806 77.3861 18.4138C77.7502 19.6987 78.0129 21.0127 78.2787 22.3211C78.719 24.4926 79.0982 26.68 79.4119 28.8743C80.0815 28.3509 80.9584 28.3032 81.7836 28.7106C82.171 28.9017 82.319 29.4069 82.2258 29.7989C82.1515 30.1133 82.0601 30.4263 81.9511 30.7325C82.1848 30.9397 82.3833 31.1948 82.5275 31.4884C82.908 32.2607 82.7852 33.0707 82.4444 33.8077C82.4702 33.8512 82.496 33.8959 82.5206 33.9425C83.0138 34.9007 82.7499 35.7592 82.3889 36.6947C82.1193 37.3939 82.2699 38.1819 81.6878 38.7104C81.485 39.3605 81.1814 39.9658 80.7398 40.512C80.639 40.6959 80.4891 40.8439 80.3102 40.9529C80.2655 41.9791 80.1571 43.0027 79.9537 44.0168C79.1625 47.9545 76.651 51.4631 73.543 53.9381C70.5011 56.3595 66.9288 57.8064 63.0744 58.2744C61.2029 58.5018 59.3282 58.43 57.4719 58.1056L57.2407 58.0647C55.5279 57.7535 53.4549 57.2388 52.2706 55.9462C51.6476 55.2666 52.0117 53.7705 53.1128 53.9116C53.6961 53.9866 54.2038 54.0798 54.7538 54.2952C55.1821 54.4634 55.6111 54.6253 56.0508 54.7626C56.8936 55.0247 57.7648 55.2294 58.6391 55.3428C60.4615 55.5784 62.3556 55.516 64.1566 55.1601C67.4321 54.5138 70.6151 53.0228 73.1008 50.7778C75.9902 48.168 77.6841 44.7897 77.9335 40.8943C78.2107 36.5554 77.7099 32.1126 77.2941 27.7961C77.0781 25.5508 76.8034 23.3101 76.4734 21.0787C76.1502 18.8985 75.9562 16.7214 75.7175 14.532ZM50.1453 0.521753L50.2851 0.500208C55.8479 -0.346655 61.7011 -0.28656 66.9295 2.01C67.9317 2.4505 68.9124 2.98171 69.8359 3.59815C70.498 3.52905 71.1631 3.47299 71.8164 3.46379C72.639 3.45302 73.4416 3.88035 73.5424 4.71248C74.3127 4.80829 75.0227 5.09188 75.4762 5.65918C75.6532 5.88003 75.7716 6.13565 75.8315 6.40192C76.3052 6.51386 76.7694 6.68551 77.2104 6.91184C77.7452 7.18743 78.0538 7.95423 77.8649 8.52153C77.8214 8.65029 77.7716 8.77577 77.7162 8.89848L77.6734 8.99L77.6986 9.02465C78.1256 9.71164 77.829 10.6129 77.1745 11.023C76.6831 11.3305 76.1351 11.5755 75.5707 11.694C75.6173 11.9203 75.6601 12.148 75.6942 12.3783C75.708 12.4716 75.5883 12.5381 75.5348 12.4462C75.5348 12.4462 75.737 13.0759 76.0419 13.7696C76.1616 14.0425 75.7786 14.2847 75.6318 14.0092C75.2431 13.2743 75.0025 12.5208 74.6497 11.7632C74.3241 11.7419 73.999 11.6673 73.686 11.5249C73.4812 11.4317 73.3257 11.2746 73.2142 11.0869C73.2072 11.0949 73.2035 11.1042 73.1965 11.1135C72.1465 12.4648 70.0942 12.9388 68.508 13.3661C66.8047 13.8256 65.0611 14.109 63.3112 14.318C60.2555 14.6815 57.1764 14.7494 54.1062 14.8906C53.9027 14.8998 53.6999 14.9101 53.4964 14.9199C52.2498 16.0143 50.6435 16.6944 48.9963 16.9011C48.161 17.0057 47.1739 16.9791 46.2379 16.7659C45.899 17.112 45.4706 17.3684 45.0032 17.5001C44.9195 19.244 43.9469 20.8951 42.4779 21.8575L42.5037 21.9612C42.8691 23.4504 42.864 25.0781 41.5551 26.1132C41.3781 26.2532 41.184 26.3733 40.9806 26.4728L41.0253 26.5757C41.7012 28.1566 41.9173 29.9028 40.6461 31.2144C40.1308 31.746 39.2263 31.62 38.8395 31.0103L38.8206 30.9794C38.7992 30.9429 38.7765 30.9082 38.7538 30.8723C38.7198 30.9429 38.6669 31.0021 38.5888 31.0355C38.1056 31.2433 37.9129 31.0903 37.4719 30.8761C37.065 30.6764 36.635 30.5271 36.196 30.4112C35.8379 30.318 35.4812 30.2512 35.1219 30.2128C32.8515 31.0808 31.385 33.7435 31.7336 36.2424C31.9226 37.603 32.6693 38.9504 33.9707 39.5148C34.5403 39.7624 35.2097 39.8663 35.8259 39.7825C36.6603 39.6691 37.3019 39.1438 38.1655 39.4443C38.5063 39.5627 38.7192 39.8304 38.7374 40.1964C38.7683 40.7715 38.5648 41.203 38.2215 41.5224C38.8269 42.0282 39.3151 42.7312 39.8411 43.2918C40.4987 43.9935 41.1651 44.6953 41.8757 45.3422C42.5466 45.9557 43.2603 46.5258 44.0155 47.0316L44.0949 47.0839C45.0423 47.7012 46.2354 48.2486 46.2807 49.5387C46.2952 49.9274 46.0596 50.2839 45.7402 50.4823C44.5466 51.2225 43.2477 50.2505 42.3122 49.5387C41.9355 49.2521 41.5696 48.9554 41.2168 48.648C40.9812 48.6663 40.7248 48.6278 40.4571 48.5094C40.2851 48.4351 40.1176 48.3469 39.9526 48.2537C39.4165 48.3885 38.9107 48.2701 38.4943 47.9891C37.894 48.1365 37.2578 48.1541 36.7175 48.0357C36.2239 47.9261 35.7833 47.6931 35.42 47.3806C34.6614 47.6225 33.819 47.5778 33.0711 47.1179C32.6226 46.8427 32.2726 46.4496 32.0823 45.9904C31.9854 45.8386 31.9234 45.6616 31.9188 45.4669L31.9186 45.3926C31.2665 45.4077 30.6131 45.1834 30.1087 44.6675C29.6456 44.1932 29.4195 43.6024 29.394 43.0014C28.738 42.8156 28.1378 42.4332 27.6813 41.8436C26.9254 40.866 26.8244 39.6584 27.213 38.58C27.1876 38.5233 27.1649 38.4647 27.145 38.4062C26.5421 37.5551 26.1442 36.529 26.1762 35.4997C26.1801 35.3397 26.2014 35.1829 26.2334 35.0273C25.6398 34.7117 25.2033 34.1573 25.1568 33.4531C25.1208 32.9007 25.3191 32.3602 25.6771 31.9514C25.5028 31.535 25.4256 31.0821 25.4788 30.6298C25.5334 30.1649 25.697 29.7615 25.9367 29.4248C25.9313 29.3024 25.9379 29.1784 25.9579 29.0519C25.934 28.9281 25.914 28.8003 25.9035 28.67C25.7902 27.2427 26.775 25.9938 27.9741 25.3348C28.2895 25.1618 28.6302 25.0206 28.9709 24.9008C29.2184 24.8129 29.591 24.7836 29.8093 24.6226C29.8 24.6159 29.8905 24.4989 29.9064 24.4362C29.9237 24.359 29.9424 24.2831 29.9518 24.2046C29.9876 23.8744 29.961 23.5349 29.9544 23.2034C29.9251 21.6989 29.9716 20.1879 30.13 18.6915C30.4241 15.917 31.1496 13.2024 32.5627 10.778C33.7485 8.74642 35.3721 7.03033 37.2338 5.60709C40.9422 2.77365 45.5702 1.23306 50.1453 0.521753ZM32.9592 35.0254C32.4764 33.8651 34.7491 33.8537 35.35 33.9085L35.3677 33.9104C36.7202 34.0452 38.8344 34.6959 39.3881 36.061C39.6168 36.626 38.939 37.2389 38.3967 37.0531C37.8656 36.871 37.5677 36.4805 37.1412 36.1384C37.0295 36.049 36.9129 35.9652 36.7942 35.8846C36.8567 36.0836 36.9568 36.2676 37.0959 36.4049L37.1286 36.4358C37.7831 37.0241 36.6124 37.9482 36.178 37.1696C35.9467 36.7551 35.8541 36.3003 35.9262 35.8298C35.9477 35.6906 35.9849 35.564 36.0391 35.4424C35.996 35.421 35.9535 35.3977 35.9099 35.3769L35.8319 35.3403C35.311 35.1041 33.0882 34.1756 33.1062 35.0058C33.1082 35.0978 32.9891 35.0978 32.9592 35.0254Z" fill="black"/>
<path fill-rule="evenodd" clip-rule="evenodd" d="M64.2233 47.7851C63.3288 47.4203 62.5301 46.8112 61.9468 46.0332C61.744 45.7624 61.6911 45.477 61.7339 45.2156C61.7818 44.9221 61.9556 44.6556 62.1925 44.4774C62.4299 44.2985 62.7273 44.2096 63.0145 44.255C63.264 44.294 63.5128 44.4307 63.7093 44.7142L63.7503 44.7709C64.0973 45.2408 64.5496 45.6257 65.0649 45.8745C65.5613 46.1139 66.1162 46.2254 66.6914 46.1605C67.7855 46.037 68.5402 45.4449 69.3421 44.6405C69.4409 44.5391 69.5405 44.4345 69.6406 44.3281C69.7036 44.2317 69.7912 44.1693 69.8882 44.1372C69.9965 44.1007 70.1187 44.1032 70.2302 44.1422C70.3386 44.1794 70.435 44.2512 70.4992 44.3463C70.5609 44.4364 70.5956 44.5479 70.5843 44.6764C70.5112 45.5092 70.0753 46.2531 69.4567 46.837C68.7701 47.4858 67.8592 47.9343 67.0019 48.0918C66.057 48.2651 65.0945 48.141 64.2233 47.7851ZM67.4473 34.9297C68.4526 35.5407 69.9833 36.9656 68.9024 38.4805C67.6299 39.8166 65.7975 38.2853 64.8948 37.5923C64.0577 37.0556 63.1172 38.4364 63.8939 39.0632C70.418 43.8953 73.0655 35.0897 67.9556 34.2116C67.3931 34.1146 67.184 34.7407 67.4473 34.9297ZM55.756 29.3088C55.8668 27.9301 57.9663 27.6169 58.1748 28.9813C58.3619 30.2034 58.1415 31.3259 57.5915 32.4264C57.0656 33.4777 55.744 32.9876 55.6438 32.0302C55.5103 30.747 55.6867 30.1662 55.756 29.3088ZM71.7345 28.6984C72.0268 28.315 72.4494 28.0532 72.9559 28.2012C74.5376 28.6636 74.0715 30.9102 73.5159 32.0031C73.2142 32.5971 72.2384 32.7476 71.7975 32.2248C71.0787 31.3725 70.7348 29.6696 71.6482 28.8299C71.6727 28.7865 71.7005 28.7426 71.7345 28.6984ZM57.5695 23.2758L57.8189 23.232C58.5919 23.0983 59.5531 22.9698 60.0999 23.5914C60.3896 23.9211 60.4898 24.5337 60.0999 24.8493C59.4139 25.4044 58.6561 25.1893 57.8347 25.2363C57.1575 25.2752 56.5068 25.3873 55.8542 25.5738C54.4237 25.9829 53.2577 26.7298 52.0357 27.5499C51.875 27.6574 51.7112 27.4523 51.7881 27.3022C52.4936 25.9199 53.8605 24.7844 55.23 24.0923C55.9607 23.7228 56.7607 23.4163 57.5695 23.2758ZM70.2926 22.6565L70.4835 22.6957C72.5647 23.1309 75.2683 24.0001 76.2542 26.045C76.2913 26.3341 76.2516 26.3961 76.2195 26.4366L76.2088 26.4501C76.1823 26.4847 76.1609 26.5323 76.0356 26.5717C76.0009 26.5633 75.9656 26.5546 75.9304 26.5453C75.4787 26.4268 75.1216 26.2637 74.7751 26.0944L74.4003 25.9095C73.965 25.6961 73.526 25.4903 73.0605 25.3385C72.0671 25.0144 71.046 24.7862 70.0085 24.6643C69.7836 24.6379 69.5676 24.562 69.3962 24.4318C69.2343 24.3084 69.1109 24.1374 69.0542 23.9101C68.9811 23.6161 69.0019 23.3934 69.1594 23.1281C69.2784 22.9288 69.4479 22.7907 69.6432 22.7114C69.8416 22.6306 70.0677 22.6115 70.2926 22.6565Z" fill="black"/>
<path fill-rule="evenodd" clip-rule="evenodd" d="M79.3576 35.7404C77.7419 37.411 75.0452 37.8904 72.8953 36.9946C67.3753 34.6872 70.077 27.4915 74.334 25.559C74.8657 25.4264 75.5762 25.1118 76.2238 25.0404C76.2824 25.0117 76.4096 25.0949 76.5646 25.0163C81.2581 25.5405 82.3271 32.8296 79.3576 35.7404ZM61.5542 36.1682C59.7426 38.5726 56.3732 39.3146 53.6204 38.1965C48.1823 36.0541 50.1111 29.6733 53.8321 27.1717C61.6916 24.2173 64.9369 31.7348 61.5542 36.1682ZM49.7659 30.8403C49.7609 30.8378 49.7559 30.8371 49.7508 30.8346C49.7792 30.822 49.8081 30.8094 49.8365 30.7962C49.8277 30.8208 49.817 30.8447 49.8081 30.8693C49.7943 30.8592 49.7817 30.8479 49.7659 30.8403ZM83.0987 28.2412C82.6553 28.2421 82.014 28.3151 81.6468 28.6231C80.7409 25.5673 77.398 22.739 74.4903 24.8013C72.2005 25.538 70.5016 27.1716 69.5359 29.3436C67.7948 28.3075 65.0572 28.7499 63.5473 30.1203C62.5583 26.8514 60.125 25.7069 57.2286 25.538C54.067 25.0199 50.9162 28.0915 49.9329 30.5556C49.1152 30.4623 47.8938 30.2022 47.1247 30.7068C42.1332 29.3973 33.4062 28.6753 32.3915 29.403C31.6684 29.6805 31.2715 31.3883 32.2816 31.4803C33.1618 31.3549 32.1788 30.2293 33.0661 30.1064C37.7937 29.813 42.3827 30.7653 47.0604 31.1653C47.4781 31.7272 48.8274 31.9149 49.5473 31.6894C48.4135 35.8689 50.8607 38.713 54.5275 39.5647C60.2062 40.8692 65.146 35.7883 63.6613 30.5027C65.3816 29.6465 67.3602 29.6833 69.2336 30.1342C66.1023 41.6623 84.6616 41.1451 81.7633 29.0181C83.6921 29.9779 84.111 28.4349 83.0987 28.2412Z" fill="black"/>
</svg>
